<?xml version="1.0" encoding="UTF-8"?>
<svg version="1.1" xmlns="http://www.w3.org/2000/svg" width="500" height="500">
<path d="M0 0 C165 0 330 0 500 0 C500 165 500 330 500 500 C335 500 170 500 0 500 C0 335 0 170 0 0 Z " fill="#FEFEFE" transform="translate(0,0)"/>
<path d="M0 0 C88.44 0 176.88 0 268 0 C267.67 3.3 267.34 6.6 267 10 C266.81971069 11.98341017 266.64391678 13.96724079 266.47509766 15.95166016 C266.3847525 17.00882233 266.29440735 18.0659845 266.20132446 19.15518188 C266.10652802 20.27186249 266.01173157 21.38854309 265.9140625 22.5390625 C265.70315602 25.0039089 265.49221738 27.46875256 265.28125 29.93359375 C264.95621346 33.74068098 264.63156886 37.54780077 264.30761719 41.35498047 C262.69889985 60.24371263 260.9861246 79.12107842 259.1909256 97.99286652 C259.00216672 99.97722204 258.81367337 101.96160283 258.62518311 103.94598389 C258.11790208 109.28647744 257.61021573 114.62693233 257.10209656 119.96734619 C252.28169025 170.63389496 247.63305188 221.31602039 243 272 C217.78059546 279.44080528 217.78059546 279.44080528 205.125 282.625 C197.11180114 284.67279853 189.11946545 286.76438154 181.15942383 289.00952148 C172.25351997 291.51058512 163.30719327 293.86319544 154.3659668 296.23413086 C153.12758057 296.56292236 151.88919434 296.89171387 150.61328125 297.23046875 C149.50766846 297.52332764 148.40205566 297.81618652 147.26293945 298.11791992 C144.93326028 298.74770899 142.61226476 299.40998772 140.29785156 300.09375 C133.38504855 301.99338909 127.73068404 300.63038123 121.0625 298.6875 C119.09906072 298.13505266 117.13550938 297.58300349 115.171875 297.03125 C114.05490234 296.71414063 112.93792969 296.39703125 111.78710938 296.0703125 C104.99442171 294.15056374 98.19006629 292.27301886 91.38522339 290.3968811 C89.6675683 289.92326934 87.95005961 289.44912631 86.23269653 288.97445679 C72.23767168 285.10876559 58.2034033 281.42114145 44.11645508 277.9050293 C43.42509964 277.7306987 42.7337442 277.5563681 42.0214386 277.37675476 C40.17726087 276.91181141 38.33184483 276.45178725 36.48632812 275.9921875 C32.54990339 274.87190528 28.81421627 273.48133029 25 272 C19.19373232 214.00701256 19.19373232 214.00701256 17.125 189.4375 C15.28686854 167.64562022 13.22034111 145.87588581 11.14681244 124.10539627 C10.8777253 121.27862929 10.60923145 118.45180652 10.34088135 115.62496948 C9.91202963 111.10922472 9.48146159 106.5936466 9.04956818 102.07819176 C8.88970946 100.40534179 8.73026188 98.73245247 8.57128143 97.05951881 C7.75887304 88.51815681 6.90082964 79.98556683 5.93603516 71.45996094 C5.24575604 65.35423099 4.63299214 59.25591989 4.21875 53.125 C4.15973511 52.30531738 4.10072021 51.48563477 4.03991699 50.64111328 C3.79568676 47.24742838 3.55951395 43.85319723 3.32275391 40.45898438 C2.62682111 30.55195196 1.82912418 20.68295815 0.6348877 10.82177734 C0.19808742 7.15598057 0 3.70884187 0 0 Z " fill="#2162AF" transform="translate(116,136)"/>
<path d="M0 0 C55.44 0 110.88 0 168 0 C168 5.01483787 167.95361389 9.37108889 167.34375 14.25 C167.14072266 15.90322266 167.14072266 15.90322266 166.93359375 17.58984375 C166.79050781 18.71519531 166.64742187 19.84054688 166.5 21 C166.35691406 22.15628906 166.21382812 23.31257813 166.06640625 24.50390625 C165.71525757 27.33650557 165.35968038 30.16847358 165 33 C158.37427969 35.82731233 151.74807398 38.65348407 145.121315 41.47836113 C142.04126762 42.79137236 138.96141124 44.10482694 135.88183594 45.41894531 C132.30704394 46.94430701 128.7316915 48.46834895 125.15625 49.9921875 C123.57028015 50.6694136 123.57028015 50.6694136 121.95227051 51.36032104 C110.3299581 56.31074596 98.66233775 61.14069261 87 66 C111.75 66.33 136.5 66.66 162 67 C159.69941593 99.20817701 159.69941593 99.20817701 158.4921875 113.703125 C158.36039018 115.29977326 158.22873074 116.89643291 158.09719849 118.49310303 C157.75991741 122.58305952 157.42083683 126.67286461 157.08129883 130.76263428 C156.73143447 134.98098409 156.38338571 139.19948372 156.03515625 143.41796875 C155.35848617 151.61212171 154.67990331 159.80611468 154 168 C149.74852235 169.61879517 145.53979492 171.21995304 141.1640625 172.47265625 C139.83942993 172.85538696 139.83942993 172.85538696 138.48803711 173.24584961 C137.54323486 173.51534424 136.59843262 173.78483887 135.625 174.0625 C128.87560537 175.9996016 122.13208371 177.95105989 115.41107178 179.98457336 C112.34705137 180.91148288 109.28093041 181.83134588 106.21478271 182.75119019 C104.70568415 183.20599061 103.1975673 183.66406231 101.69049072 184.1255188 C99.55532835 184.7787105 97.41683764 185.41975592 95.27734375 186.05859375 C94.04234131 186.43298584 92.80733887 186.80737793 91.53491211 187.19311523 C83.59360406 189.00581108 77.44952498 187.21863009 69.87109375 184.859375 C68.80439957 184.53592102 67.73770538 184.21246704 66.63868713 183.87921143 C63.23544828 182.8452115 59.83644514 181.79801813 56.4375 180.75 C53.06979012 179.72140028 49.7012614 178.69551531 46.33267212 177.6697998 C44.16710958 177.00974579 42.00204085 176.34806925 39.8374939 175.68469238 C33.00518332 173.59361868 26.15732724 171.58688609 19.26586914 169.70019531 C17 169 17 169 16 168 C15.71022501 165.94786968 15.48302562 163.88686147 15.28125 161.82421875 C15.15403564 160.52943604 15.02682129 159.23465332 14.89575195 157.90063477 C14.76342057 156.49629547 14.63151098 155.09191636 14.5 153.6875 C14.43307953 152.98825409 14.36615906 152.28900818 14.29721069 151.568573 C13.19777859 140.05242306 12.44810936 128.56122136 12 117 C23.22 117 34.44 117 46 117 C46.72578257 120.62891285 47.16750913 123.66343732 47.31640625 127.30078125 C47.35830078 128.27724609 47.40019531 129.25371094 47.44335938 130.25976562 C47.48267578 131.26716797 47.52199219 132.27457031 47.5625 133.3125 C47.60568359 134.33923828 47.64886719 135.36597656 47.69335938 136.42382812 C47.79906825 138.94909569 47.90116468 141.47445562 48 144 C49.0725 144.10183594 50.145 144.20367187 51.25 144.30859375 C58.02894756 145.15447035 64.57491606 147.13628609 71.15625 148.91601562 C82.25141686 151.80888426 89.50463382 150.89389293 100.375 147.625 C107.87569512 145.4072464 115.29370993 143.37034282 123 142 C122.97679687 141.15824219 122.95359375 140.31648437 122.9296875 139.44921875 C122.73057366 125.75303074 123.97251367 112.87106548 125 99 C86.72 99 48.44 99 9 99 C7 73 7 73 7 66 C33.63896433 54.9316251 60.30550701 43.93390672 87 33 C45.915 32.505 45.915 32.505 4 32 C2.4797661 21.3583627 0.97323003 10.70553029 0 0 Z " fill="#F8F9F8" transform="translate(165,192)"/>
<path d="M0 0 C35.64 0 71.28 0 108 0 C108 7.2385081 107.85749347 14.17132654 107.19311523 21.33642578 C107.10668762 22.31165915 107.02026001 23.28689253 106.93121338 24.29167843 C106.64488873 27.50998142 106.35173146 30.72762353 106.05859375 33.9453125 C105.85290592 36.24340339 105.64768085 38.54153575 105.44288635 40.83970642 C105.00638264 45.7286005 104.56698957 50.61722253 104.12524414 55.50564575 C103.43340391 63.16275086 102.74814593 70.82043509 102.06445312 78.47827148 C101.95066126 79.75262778 101.83686939 81.02698408 101.71962929 82.33995724 C101.48949815 84.91723231 101.25938353 87.49450886 101.02928543 90.07178688 C100.68301744 93.94785739 100.33613394 97.8238724 99.98910522 101.69987488 C98.02550407 123.64199863 96.10733831 145.58786447 94.21757889 167.53646088 C94.00274611 170.03061827 93.78755445 172.52474443 93.57223511 175.01885986 C93.23597996 178.91403696 92.90020964 182.80925549 92.56489372 186.70451355 C92.43980182 188.1574738 92.31461722 189.61042607 92.18933296 191.06336975 C91.57811065 198.15533301 90.9759928 205.24782252 90.40625 212.34326172 C90.31553223 213.46550644 90.22481445 214.58775116 90.13134766 215.7440033 C89.96653495 217.79467561 89.80451845 219.84557561 89.64599609 221.89674377 C89.53892334 223.22874062 89.53892334 223.22874062 89.4296875 224.58764648 C89.37022949 225.34979965 89.31077148 226.11195282 89.24951172 226.89720154 C89.00015098 228.99872756 88.55950022 230.96107569 88 233 C86.94312988 233.27674561 85.88625977 233.55349121 84.79736328 233.83862305 C80.78236426 234.89034852 76.76783063 235.94384157 72.75341797 236.99780273 C71.03348748 237.44911275 69.31343993 237.89997691 67.59326172 238.3503418 C55.69930033 241.4647641 43.83768532 244.67827728 32 248 C26.85522665 249.44131979 21.7092265 250.87816638 16.5625 252.3125 C15.92401123 252.49208252 15.28552246 252.67166504 14.62768555 252.85668945 C12.75409994 253.38331764 10.87902523 253.90463913 9.00390625 254.42578125 C7.91924072 254.72911377 6.8345752 255.03244629 5.71704102 255.3449707 C3 256 3 256 0 256 C-0.33 244.78 -0.66 233.56 -1 222 C12.90845531 217.92923259 26.82443746 213.89039317 40.76464844 209.9296875 C49.85940328 207.34120109 58.93142462 204.67843608 68 202 C68.10609085 200.70811768 68.10609085 200.70811768 68.21432495 199.39013672 C68.89050172 191.15655868 69.56681945 182.92299224 70.24328423 174.68943787 C70.59081172 170.45946856 70.93829017 166.22949524 71.28564453 161.99951172 C71.35276516 161.18219574 71.41988579 160.36487976 71.48904037 159.52279663 C71.62373033 157.88268135 71.75840698 156.24256498 71.89307022 154.60244751 C72.22433826 150.56888792 72.55615329 146.5353746 72.88909912 142.50195312 C73.0182023 140.93750114 73.14729187 139.37304803 73.27636719 137.80859375 C73.33865383 137.05371674 73.40094048 136.29883972 73.46511459 135.52108765 C73.85243286 130.81797965 74.23183071 126.11429695 74.60644531 121.41015625 C74.69668976 120.29020264 74.7869342 119.17024902 74.87991333 118.01635742 C75.04267752 115.99460108 75.20293387 113.97264047 75.3600769 111.95043945 C75.43090485 111.07734131 75.50173279 110.20424316 75.57470703 109.3046875 C75.63336945 108.56202637 75.69203186 107.81936523 75.75247192 107.05419922 C76 105 76 105 77 101 C51.59 101 26.18 101 0 101 C3.28631461 98.53526404 5.48899574 97.23148831 9.1875 95.75 C10.79359131 95.09789551 10.79359131 95.09789551 12.43212891 94.43261719 C13.60952637 93.95985352 14.78692383 93.48708984 16 93 C25.58611474 89.1131094 35.11561548 85.11010367 44.6015625 80.984375 C45.59420105 80.55298218 46.5868396 80.12158936 47.60955811 79.67712402 C51.61522699 77.93476644 55.62006594 76.19063124 59.62060547 74.43652344 C62.4456435 73.19795765 65.27338858 71.9657594 68.1015625 70.734375 C68.95658356 70.35682068 69.81160461 69.97926636 70.6925354 69.590271 C71.48058563 69.24820618 72.26863586 68.90614136 73.08056641 68.55371094 C73.7680899 68.25237244 74.4556134 67.95103394 75.16397095 67.64056396 C77 67 77 67 80 67 C80 64.03 80 61.06 80 58 C80.99 50.08 81.98 42.16 83 34 C27.56 34 -27.88 34 -85 34 C-85 33.67 -85 33.34 -85 33 C-56.95 33 -28.9 33 0 33 C0 22.11 0 11.22 0 0 Z " fill="#3D9CD6" transform="translate(250,158)"/>
<path d="M0 0 C0 21.45 0 42.9 0 65 C-25.08 65 -50.16 65 -76 65 C-78 39 -78 39 -78 32 C-76.94651367 31.56357178 -75.89302734 31.12714355 -74.80761719 30.67749023 C-70.71445951 28.98169175 -66.62148043 27.28546257 -62.52856445 25.58908081 C-60.68012624 24.82299242 -58.83165632 24.05698053 -56.9831543 23.29104614 C-46.74915717 19.05027817 -36.51791531 14.80316479 -26.296875 10.53125 C-25.46138123 10.18224136 -24.62588745 9.83323273 -23.76507568 9.47364807 C-19.77964908 7.80872925 -15.79498172 6.14203481 -11.81152344 4.47241211 C-10.38479704 3.87606417 -8.95804097 3.2797872 -7.53125 2.68359375 C-6.8790448 2.40942627 -6.2268396 2.13525879 -5.55487061 1.8527832 C-1.11355999 0 -1.11355999 0 0 0 Z " fill="#E1E0E0" transform="translate(250,226)"/>
<path d="M0 0 C11.22 0 22.44 0 34 0 C34.72578257 3.62891285 35.16750913 6.66343732 35.31640625 10.30078125 C35.35830078 11.27724609 35.40019531 12.25371094 35.44335938 13.25976562 C35.48267578 14.26716797 35.52199219 15.27457031 35.5625 16.3125 C35.60568359 17.33923828 35.64886719 18.36597656 35.69335938 19.42382812 C35.79906825 21.94909569 35.90116468 24.47445562 36 27 C37.06992188 27.103125 38.13984375 27.20625 39.2421875 27.3125 C44.99028609 28.03132871 50.52731738 29.54391569 56.125 31 C58.23120376 31.54386748 60.33795961 32.08560227 62.4453125 32.625 C63.36844238 32.86476563 64.29157227 33.10453125 65.24267578 33.3515625 C68.134169 34.0315524 71.07004153 34.51167359 74 35 C73.67 46.55 73.34 58.1 73 70 C74.485 70.495 74.485 70.495 76 71 C69.48331634 71.4561168 64.06077932 69.78629718 57.87109375 67.859375 C56.80439957 67.53592102 55.73770538 67.21246704 54.63868713 66.87921143 C51.23544828 65.8452115 47.83644514 64.79801813 44.4375 63.75 C41.06979012 62.72140028 37.7012614 61.69551531 34.33267212 60.6697998 C32.16710958 60.00974579 30.00204085 59.34806925 27.8374939 58.68469238 C21.00518332 56.59361868 14.15732724 54.58688609 7.26586914 52.70019531 C5 52 5 52 4 51 C3.71022501 48.94786968 3.48302562 46.88686147 3.28125 44.82421875 C3.15403564 43.52943604 3.02682129 42.23465332 2.89575195 40.90063477 C2.76342057 39.49629547 2.63151098 38.09191636 2.5 36.6875 C2.43307953 35.98825409 2.36615906 35.28900818 2.29721069 34.568573 C1.19777859 23.05242306 0.44810936 11.56122136 0 0 Z " fill="#E1E0DF" transform="translate(177,309)"/>
<path d="M0 0 C10.93496471 -0.02312297 21.86992366 -0.04091485 32.8049078 -0.05181217 C37.88191018 -0.0570411 42.95889589 -0.06413892 48.03588867 -0.07543945 C52.93120552 -0.08626799 57.82650629 -0.09227676 62.72183418 -0.09487724 C64.59382951 -0.09673155 66.46582391 -0.10035228 68.33781242 -0.10573006 C70.95040699 -0.11294004 73.56293427 -0.11399096 76.17553711 -0.11352539 C76.95740387 -0.11712067 77.73927063 -0.12071594 78.54483032 -0.12442017 C83.88594784 -0.11405216 83.88594784 -0.11405216 85 1 C85 11.23 85 21.46 85 32 C58.27 32 31.54 32 4 32 C0.51785714 7.625 0.51785714 7.625 0 0 Z " fill="#E2E1E0" transform="translate(165,192)"/>
<path d="M0 0 C13.86 0 27.72 0 42 0 C42 5.94 42 11.88 42 18 C37.05 18.33 32.1 18.66 27 19 C28.62421875 20.32837891 28.62421875 20.32837891 30.28125 21.68359375 C31.6896998 22.93241924 33.09582857 24.18386586 34.5 25.4375 C35.21542969 26.01048828 35.93085938 26.58347656 36.66796875 27.17382812 C38.71875 29.05859375 38.71875 29.05859375 42 34 C42 39.61 42 45.22 42 51 C28.14 51 14.28 51 0 51 C0 45.39 0 39.78 0 34 C4.95 33.67 9.9 33.34 15 33 C13.9171875 32.12601563 12.834375 31.25203125 11.71875 30.3515625 C10.31017279 29.11201456 8.90405113 27.86967235 7.5 26.625 C6.78457031 26.06039062 6.06914062 25.49578125 5.33203125 24.9140625 C3.28125 23.0390625 3.28125 23.0390625 0 18 C0 12.06 0 6.12 0 0 Z " fill="#090909" transform="translate(229,62)"/>
<path d="M0 0 C13.2 0 26.4 0 40 0 C38.99159664 28.81152461 38.99159664 28.81152461 38 43 C34.19700199 44.10802068 30.39243103 45.21045775 26.58642578 46.30810547 C24.66747252 46.86272452 22.74973645 47.42154952 20.83203125 47.98046875 C19.60097656 48.33496094 18.36992187 48.68945312 17.1015625 49.0546875 C15.42054443 49.54171143 15.42054443 49.54171143 13.70556641 50.03857422 C9.1814083 51.21238728 4.58318873 52.08336225 0 53 C0 35.51 0 18.02 0 0 Z " fill="#3C9CD7" transform="translate(250,291)"/>
<path d="M0 0 C13.53 0 27.06 0 41 0 C41 5.94 41 11.88 41 18 C36.05 18.33 31.1 18.66 26 19 C28.12198832 21.14888676 30.24739599 23.29418583 32.375 25.4375 C32.97828125 26.04916016 33.5815625 26.66082031 34.203125 27.29101562 C34.78320312 27.87431641 35.36328125 28.45761719 35.9609375 29.05859375 C36.49509277 29.59798584 37.02924805 30.13737793 37.57958984 30.69311523 C38.98652388 32.10846977 38.98652388 32.10846977 41 33 C41 38.61 41 44.22 41 50 C27.47 50 13.94 50 0 50 C0 44.72 0 39.44 0 34 C4.95 33.67 9.9 33.34 15 33 C13.824375 31.80375 12.64875 30.6075 11.4375 29.375 C10.44556641 28.36566406 10.44556641 28.36566406 9.43359375 27.3359375 C6.40624058 24.4300672 3.18606991 21.73091706 0 19 C0 12.73 0 6.46 0 0 Z " fill="#030303" transform="translate(288,62)"/>
<path d="M0 0 C13.86 0 27.72 0 42 0 C42 5.94 42 11.88 42 18 C34.08 18 26.16 18 18 18 C18 23.28 18 28.56 18 34 C25.92 34 33.84 34 42 34 C42 39.61 42 45.22 42 51 C28.14 51 14.28 51 0 51 C0 34.17 0 17.34 0 0 Z " fill="#0A0A0A" transform="translate(170,62)"/>
<path d="M0 0 C0 10.89 0 21.78 0 33 C-24.42 33 -48.84 33 -74 33 C-73 30 -73 30 -70.15307617 28.52050781 C-68.87102419 27.9867369 -67.58382963 27.46522544 -66.29296875 26.953125 C-65.59217194 26.66476273 -64.89137512 26.37640045 -64.16934204 26.07929993 C-61.84610657 25.12595192 -59.51693487 24.18808643 -57.1875 23.25 C-55.57660477 22.59219542 -53.96617705 21.93324486 -52.35620117 21.27319336 C-48.97845615 19.88926701 -45.59869139 18.51043228 -42.21777344 17.13427734 C-37.01073781 15.01004987 -31.81988068 12.84824222 -26.6328125 10.67578125 C-25.38818993 10.15475327 -25.38818993 10.15475327 -24.11842346 9.62319946 C-20.88176646 8.26780182 -17.64541996 6.91166448 -14.40927124 5.55505371 C-12.17590585 4.61961697 -9.9415932 3.6864803 -7.70703125 2.75390625 C-6.70490097 2.33314568 -6.70490097 2.33314568 -5.68252563 1.90388489 C-1.11400701 0 -1.11400701 0 0 0 Z " fill="#E7E9EA" transform="translate(250,226)"/>
</svg>
