<?xml version="1.0" encoding="UTF-8"?>
<svg version="1.1" xmlns="http://www.w3.org/2000/svg" width="500" height="500">
<path d="M0 0 C165 0 330 0 500 0 C500 165 500 330 500 500 C335 500 170 500 0 500 C0 335 0 170 0 0 Z " fill="#2D2F37" transform="translate(0,0)"/>
<path d="M0 0 C1.0699118 -0.00832352 2.13982361 -0.01664703 3.24215698 -0.02522278 C6.74643696 -0.04913409 10.25053015 -0.0580715 13.75488281 -0.06469727 C16.21429495 -0.07367748 18.67370657 -0.08279955 21.13311768 -0.09205627 C26.27723512 -0.10849731 31.42128786 -0.11623755 36.56542969 -0.11914062 C43.12288706 -0.12452108 49.67972753 -0.16220972 56.23701096 -0.20788479 C61.31429206 -0.23777834 66.39142673 -0.24486685 71.46878815 -0.24586678 C73.88466468 -0.25004413 76.30054267 -0.2623771 78.71633148 -0.28338432 C97.35127371 -0.43254978 112.96964462 0.65997405 127.39550781 13.74389648 C128.15863281 14.58952148 128.92175781 15.43514648 129.70800781 16.30639648 C130.18882812 16.80655273 130.66964844 17.30670898 131.16503906 17.82202148 C140.67769562 28.12940631 143.23977624 39.76816786 143.02050781 53.45874023 C141.90340536 67.21306422 135.46223888 78.55649177 125.61425781 87.97436523 C115.57006194 96.03402241 104.55133881 99.01162814 91.89550781 99.68139648 C77.7051294 100.6058511 66.26691509 105.65504267 56.70800781 116.30639648 C55.88300781 117.19327148 55.05800781 118.08014648 54.20800781 118.99389648 C48.84895648 125.58705111 46.1750998 133.03733258 44.70800781 141.30639648 C44.37800781 141.30639648 44.04800781 141.30639648 43.70800781 141.30639648 C43.70800781 127.44639648 43.70800781 113.58639648 43.70800781 99.30639648 C37.60171875 99.35860352 37.60171875 99.35860352 31.37207031 99.41186523 C28.1012245 99.43119375 24.8303951 99.4474495 21.55952454 99.46164703 C18.12045602 99.47740894 14.68161375 99.49842843 11.24267578 99.53271484 C7.28583623 99.57191243 3.32908513 99.58617279 -0.62792969 99.59936523 C-1.84499603 99.61484909 -3.06206238 99.63033295 -4.31600952 99.64628601 C-18.48046805 99.64905181 -30.37041055 95.37661109 -40.66699219 85.43139648 C-47.61690718 78.05261015 -51.13294353 70.89194119 -54.29199219 61.30639648 C-54.78699219 59.82139648 -54.78699219 59.82139648 -55.29199219 58.30639648 C-56.33046036 45.07334497 -55.22808505 32.46067777 -47.04199219 21.43139648 C-45.81776127 20.03340376 -44.5667815 18.65844575 -43.29199219 17.30639648 C-42.62296875 16.53682617 -41.95394531 15.76725586 -41.26464844 14.97436523 C-29.94108749 2.62697418 -16.10761114 0.01087851 0 0 Z " fill="#FD7261" transform="translate(209.2919921875,99.693603515625)"/>
<path d="M0 0 C1.28975739 0.00707474 2.57951477 0.01414948 3.90835571 0.0214386 C7.28543432 0.0402443 10.66138318 0.08910215 14.0380249 0.1449585 C17.50435848 0.1967346 20.97088574 0.2193521 24.4375 0.24414062 C31.20150825 0.29458818 37.96244216 0.39250233 44.7265625 0.48828125 C45.0565625 13.02828125 45.3865625 25.56828125 45.7265625 38.48828125 C46.3865625 36.17828125 47.0465625 33.86828125 47.7265625 31.48828125 C53.10174748 18.14091181 62.91525171 9.00075835 75.89453125 3.03125 C88.76585937 -1.49370138 102.21558832 -0.84534458 114.7265625 4.48828125 C118.2538439 6.25192195 121.50056889 8.2232219 124.7265625 10.48828125 C125.35046875 10.91625 125.974375 11.34421875 126.6171875 11.78515625 C135.91618222 18.90600806 141.72539036 30.11912203 143.7265625 41.48828125 C145.16871026 54.81849076 143.44760475 66.80002425 135.4140625 77.86328125 C133.87722844 79.75937522 132.31674415 81.63669988 130.7265625 83.48828125 C130.159375 84.17921875 129.5921875 84.87015625 129.0078125 85.58203125 C121.60622307 93.85439591 109.27468656 98.94481632 98.30859375 99.734375 C84.76930621 99.98107156 72.68650661 96.96358729 62.00390625 88.2734375 C59.77690161 86.09848306 57.72586253 83.87288535 55.7265625 81.48828125 C55.23800781 80.92496094 54.74945313 80.36164063 54.24609375 79.78125 C50.0287629 74.44794853 48.46579413 69.06243715 45.7265625 62.48828125 C45.3965625 74.69828125 45.0665625 86.90828125 44.7265625 99.48828125 C37.34341584 99.55140505 29.96126154 99.61148436 22.57807922 99.6435318 C19.1390107 99.6592937 15.70016843 99.68031319 12.26123047 99.71459961 C8.30439092 99.7537972 4.34763982 99.76805755 0.390625 99.78125 C-0.82644135 99.79673386 -2.04350769 99.81221771 -3.29745483 99.82817078 C-17.38181632 99.83092094 -29.45070464 95.43935456 -39.7109375 85.48828125 C-40.92116108 84.17553873 -42.11101613 82.84353421 -43.2734375 81.48828125 C-43.74265625 80.95847656 -44.211875 80.42867188 -44.6953125 79.8828125 C-53.26202671 69.17441974 -55.62985658 54.77820707 -54.2734375 41.48828125 C-52.55900894 32.21766758 -48.75008431 24.35653926 -42.2734375 17.48828125 C-41.4896875 16.62203125 -40.7059375 15.75578125 -39.8984375 14.86328125 C-39.0321875 14.07953125 -38.1659375 13.29578125 -37.2734375 12.48828125 C-36.67402344 11.93398437 -36.07460937 11.3796875 -35.45703125 10.80859375 C-25.13267486 1.94828053 -13.26880205 -0.28106524 0 0 Z " fill="#A15AFC" transform="translate(208.2734375,198.51171875)"/>
<path d="M0 0 C1.07012329 0.00201416 2.14024658 0.00402832 3.24279785 0.00610352 C7.18925343 0.01646203 11.13564726 0.04438341 15.08203125 0.0703125 C28.35421875 0.1321875 28.35421875 0.1321875 41.89453125 0.1953125 C41.89453125 32.8653125 41.89453125 65.5353125 41.89453125 99.1953125 C27.84890625 99.288125 27.84890625 99.288125 13.51953125 99.3828125 C9.11407959 99.42378052 9.11407959 99.42378052 4.61962891 99.46557617 C2.26595469 99.47434616 -0.08772411 99.48198888 -2.44140625 99.48828125 C-4.24315308 99.5113031 -4.24315308 99.5113031 -6.08129883 99.53479004 C-20.26686127 99.539162 -32.16604461 95.28276074 -42.48046875 85.3203125 C-49.43038374 77.94152617 -52.94642009 70.7808572 -56.10546875 61.1953125 C-56.60046875 59.7103125 -56.60046875 59.7103125 -57.10546875 58.1953125 C-58.14393692 44.96226099 -57.04156161 32.34959379 -48.85546875 21.3203125 C-47.63123783 19.92231977 -46.38025806 18.54736177 -45.10546875 17.1953125 C-44.43644531 16.42574219 -43.76742187 15.65617187 -43.078125 14.86328125 C-31.18819078 1.89830777 -16.8109375 -0.1520485 0 0 Z " fill="#EF4D1C" transform="translate(211.10546875,99.8046875)"/>
<path d="M0 0 C1.97005257 0.01061211 1.97005257 0.01061211 3.97990417 0.0214386 C7.42438863 0.04027445 10.86777122 0.08916109 14.31182861 0.1449585 C17.84510401 0.19666696 21.37856241 0.21906111 24.91210938 0.24414062 C31.81034047 0.29731223 38.70785132 0.38232817 45.60546875 0.48828125 C45.67536232 7.74738586 45.72847782 15.00641643 45.76090527 22.26579094 C45.77647864 25.63760241 45.79756157 29.00918156 45.83178711 32.38085938 C45.86839327 36.26829027 45.88524661 40.15539625 45.8984375 44.04296875 C45.91392136 45.23816132 45.92940521 46.43335388 45.94535828 47.6647644 C45.94827193 62.32898574 41.18906881 74.49364779 31.0546875 85.1640625 C24.07535088 91.78719693 16.80509258 95.75484669 7.60546875 98.48828125 C6.96222656 98.68164062 6.31898438 98.875 5.65625 99.07421875 C-7.33053557 101.6963126 -20.66562449 98.36898367 -31.67578125 91.4296875 C-42.53665234 83.67415168 -50.40639184 72.24823836 -53.08203125 59.11328125 C-54.18346051 46.33670181 -53.14492409 34.63780651 -46.39453125 23.48828125 C-45.79898438 22.47507812 -45.79898438 22.47507812 -45.19140625 21.44140625 C-34.92583973 5.98121571 -17.86712172 -0.37025251 0 0 Z " fill="#0ACD83" transform="translate(207.39453125,297.51171875)"/>
<path d="M0 0 C0.62390625 0.42796875 1.2478125 0.8559375 1.890625 1.296875 C11.18961972 8.41772681 16.99882786 19.63084078 19 31 C20.44214776 44.33020951 18.72104225 56.311743 10.6875 67.375 C9.15066594 69.27109397 7.59018165 71.14841863 6 73 C5.4328125 73.6909375 4.865625 74.381875 4.28125 75.09375 C-3.12033943 83.36611466 -15.45187594 88.45653507 -26.41796875 89.24609375 C-39.95725629 89.49279031 -52.04005589 86.47530604 -62.72265625 77.78515625 C-64.94966089 75.61020181 -67.00069997 73.3846041 -69 71 C-69.48855469 70.43667969 -69.97710937 69.87335938 -70.48046875 69.29296875 C-79.11888494 58.36869474 -80.9222215 45.42344622 -80 32 C-77.89240139 18.64081197 -71.25572985 7.57188653 -60.5300293 -0.55859375 C-41.67407658 -14.13243196 -18.81564525 -13.21098496 0 0 Z " fill="#19BAFB" transform="translate(333,209)"/>
<path d="M0 0 C13.53 0 27.06 0 41 0 C41 0.33 41 0.66 41 1 C40.17757812 1.20753906 39.35515625 1.41507813 38.5078125 1.62890625 C28.14215996 4.48963484 20.22898298 8.94484754 13 17 C12.175 17.886875 11.35 18.77375 10.5 19.6875 C5.14094867 26.28065463 2.46709198 33.73093609 1 42 C0.67 42 0.34 42 0 42 C0 28.14 0 14.28 0 0 Z " fill="#303340" transform="translate(253,199)"/>
<path d="M0 0 C0.66 0.99 1.32 1.98 2 3 C0.02 5.31 -1.96 7.62 -4 10 C-4.99 9.67 -5.98 9.34 -7 9 C-4.69 6.03 -2.38 3.06 0 0 Z " fill="#244858" transform="translate(345,273)"/>
<path d="M0 0 C0.66 0.33 1.32 0.66 2 1 C0.625 3 0.625 3 -1 5 C-1.66 5 -2.32 5 -3 5 C-3 5.66 -3 6.32 -3 7 C-4.32 6.34 -5.64 5.68 -7 5 C-4.69 3.35 -2.38 1.7 0 0 Z " fill="#21AADC" transform="translate(279,204)"/>
<path d="M0 0 C0 3.99191204 -1.25498212 5.18079244 -4 8 C-6.75 8.8125 -6.75 8.8125 -9 9 C-6 6 -3 3 0 0 Z " fill="#1B4B3A" transform="translate(240,380)"/>
<path d="M0 0 C0 0.33 0 0.66 0 1 C-3.96 1.99 -7.92 2.98 -12 4 C-12 3.01 -12 2.02 -12 1 C-7.93631321 0.22596442 -4.13574827 -0.0984702 0 0 Z " fill="#2D3B48" transform="translate(294,199)"/>
<path d="M0 0 C0.66 0.33 1.32 0.66 2 1 C-0.75 3.0625 -0.75 3.0625 -4 5 C-6.203125 4.62109375 -6.203125 4.62109375 -8 4 C-6.71349294 3.30289269 -5.42059335 2.61757124 -4.125 1.9375 C-3.40570313 1.55464844 -2.68640625 1.17179687 -1.9453125 0.77734375 C-1.30335938 0.52082031 -0.66140625 0.26429687 0 0 Z " fill="#B3482A" transform="translate(187,102)"/>
<path d="M0 0 C0.33 0.66 0.66 1.32 1 2 C-0.65 3.65 -2.3 5.3 -4 7 C-4.66 6.67 -5.32 6.34 -6 6 C-2.25 1.125 -2.25 1.125 0 0 Z " fill="#27A6DC" transform="translate(270,211)"/>
<path d="M0 0 C2.64 0.66 5.28 1.32 8 2 C7.67 2.66 7.34 3.32 7 4 C4.4375 4.625 4.4375 4.625 2 5 C1.34 3.35 0.68 1.7 0 0 Z " fill="#4D2F3D" transform="translate(187,196)"/>
</svg>
