<?xml version="1.0" encoding="UTF-8"?>
<svg version="1.1" xmlns="http://www.w3.org/2000/svg" width="500" height="500">
<path d="M0 0 C165 0 330 0 500 0 C500 165 500 330 500 500 C335 500 170 500 0 500 C0 335 0 170 0 0 Z " fill="#FEFEFE" transform="translate(0,0)"/>
<path d="M0 0 C1.65346436 0.00398804 1.65346436 0.00398804 3.34033203 0.00805664 C22.73845818 0.12115273 22.73845818 0.12115273 28.75 2.125 C28.75 2.785 28.75 3.445 28.75 4.125 C30.008125 4.228125 31.26625 4.33125 32.5625 4.4375 C38.1351218 5.04090491 43.38960058 6.53190933 48.75 8.125 C48.75 8.785 48.75 9.445 48.75 10.125 C49.430625 10.393125 50.11125 10.66125 50.8125 10.9375 C54.14710809 12.28553306 57.44743237 13.70036298 60.75 15.125 C60.75 15.785 60.75 16.445 60.75 17.125 C61.27722656 17.20234375 61.80445313 17.2796875 62.34765625 17.359375 C65.69886254 18.42740172 68.34333141 20.36620435 71.1875 22.375 C71.74759766 22.75785156 72.30769531 23.14070313 72.88476562 23.53515625 C76.5480589 26.09133989 79.65362876 28.88323393 82.75 32.125 C83.575 32.90875 84.4 33.6925 85.25 34.5 C92.75 42.375 92.75 42.375 92.75 46.125 C93.41 46.125 94.07 46.125 94.75 46.125 C98.63227088 51.0341034 101.38482867 57.0298349 104.3359375 62.5234375 C105.4929194 64.65202851 106.69426551 66.73411563 107.9375 68.8125 C119.91320503 90.69913333 120.25524876 121.4881015 113.75 145.125 C111.63899884 151.39086459 108.81314916 157.2766644 105.75 163.125 C105.41806641 163.76695312 105.08613281 164.40890625 104.74414062 165.0703125 C100.21247818 173.71755661 94.82562698 181.49620522 88.75 189.125 C87.99976563 190.10726562 87.99976563 190.10726562 87.234375 191.109375 C77.59610222 203.18491216 62.67416204 212.69996591 48.75 219.125 C47.76 219.125 46.77 219.125 45.75 219.125 C45.75 219.785 45.75 220.445 45.75 221.125 C41.29695356 222.54997486 37.47944312 223.66243672 32.75 223.125 C30.73635301 221.58620481 29.86165124 220.6889827 29.36473083 218.17889404 C29.35966019 217.44277893 29.35458954 216.70666382 29.34936523 215.94824219 C29.32935707 214.69113434 29.32935707 214.69113434 29.3089447 213.40863037 C29.30877098 212.05393646 29.30877098 212.05393646 29.30859375 210.671875 C29.28878197 209.27149994 29.28878197 209.27149994 29.26856995 207.84283447 C29.22763313 204.85352653 29.20600727 201.86452491 29.1875 198.875 C29.16365064 195.89985305 29.13538003 192.92499215 29.09571838 189.95001221 C29.07152938 188.09916104 29.05653456 186.2481597 29.05210876 184.39715576 C28.96811622 177.38296902 28.32016464 171.73383843 23.75 166.125 C23.75 165.465 23.75 164.805 23.75 164.125 C27.05 164.125 30.35 164.125 33.75 164.125 C33.75 163.465 33.75 162.805 33.75 162.125 C34.56082031 162.00125 35.37164062 161.8775 36.20703125 161.75 C47.13260789 159.71496826 55.50159934 154.61598363 62.75 146.125 C64.3530037 143.74868798 65.91054186 141.35610248 67.41796875 138.91796875 C67.85753906 138.32628906 68.29710937 137.73460937 68.75 137.125 C69.41 137.125 70.07 137.125 70.75 137.125 C70.82347656 136.25488281 70.82347656 136.25488281 70.8984375 135.3671875 C70.97320312 134.58601562 71.04796875 133.80484375 71.125 133 C71.22941406 131.85144531 71.22941406 131.85144531 71.3359375 130.6796875 C71.75 128.125 71.75 128.125 72.7578125 125.609375 C75.88174025 114.63873111 76.06065242 98.87055112 70.75 88.625 C69.76686843 87.11389037 68.77235719 85.60985211 67.75 84.125 C67.75 83.465 67.75 82.805 67.75 82.125 C67.09 82.125 66.43 82.125 65.75 82.125 C63.44382953 78.6657443 63.52372203 77.42116387 63.58984375 73.35546875 C63.6062793 71.65100586 63.6062793 71.65100586 63.62304688 69.91210938 C63.64431641 68.72423828 63.66558594 67.53636719 63.6875 66.3125 C63.72211591 63.97272065 63.75221198 61.63286919 63.77734375 59.29296875 C63.79531006 58.25422607 63.81327637 57.2154834 63.83178711 56.14526367 C63.74803804 53.05254798 63.32859802 50.16086779 62.75 47.125 C53.04686474 47.8475739 41.03116146 49.84383854 33.75 57.125 C28.37542779 57.42164847 22.95965284 57.36887589 17.625 56.625 C3.99651179 54.89361311 -10.67790916 55.80534888 -24.1875 57.875 C-28.61714849 58.43077987 -31.35195007 57.19843081 -35.25 55.125 C-35.25 54.465 -35.25 53.805 -35.25 53.125 C-46.46859788 49.07733162 -46.46859788 49.07733162 -58.25 48.125 C-60.80491351 50.67991351 -60.24002349 57.2486759 -60.28027344 60.78417969 C-60.22844499 64.46931515 -60.1518568 68.1522594 -60.03515625 71.8359375 C-60.02097656 72.733125 -60.00679687 73.6303125 -59.9921875 74.5546875 C-59.9701123 75.36147949 -59.94803711 76.16827148 -59.92529297 76.99951172 C-60.33102979 79.65541005 -61.25761119 80.39734728 -63.25 82.125 C-64.42574711 84.22489652 -64.42574711 84.22489652 -65.25 86.125 C-65.91 86.125 -66.57 86.125 -67.25 86.125 C-67.58 88.105 -67.91 90.085 -68.25 92.125 C-68.91 92.125 -69.57 92.125 -70.25 92.125 C-70.58 102.355 -70.91 112.585 -71.25 123.125 C-70.59 123.125 -69.93 123.125 -69.25 123.125 C-68.755 127.085 -68.755 127.085 -68.25 131.125 C-67.59 131.125 -66.93 131.125 -66.25 131.125 C-66.04697266 132.05119141 -66.04697266 132.05119141 -65.83984375 132.99609375 C-63.18869927 143.42604538 -57.26871789 150.42070454 -48.25 156.125 C-47.63511719 156.51558594 -47.02023438 156.90617188 -46.38671875 157.30859375 C-41.5099616 160.0650217 -36.68123022 160.90444444 -31.171875 161.6875 C-27.4428075 162.24586305 -23.8883326 163.14544892 -20.25 164.125 C-20.98381675 167.61827348 -22.40244557 170.21950015 -24.3125 173.24609375 C-25.40161848 175.16474083 -25.40161848 175.16474083 -25.55859375 177.703125 C-26.25 180.125 -26.25 180.125 -28.53515625 181.48828125 C-29.45167969 181.80152344 -30.36820312 182.11476562 -31.3125 182.4375 C-32.23160156 182.76363281 -33.15070313 183.08976563 -34.09765625 183.42578125 C-34.80792969 183.65652344 -35.51820313 183.88726562 -36.25 184.125 C-36.25 185.445 -36.25 186.765 -36.25 188.125 C-37.9 188.125 -39.55 188.125 -41.25 188.125 C-41.25 187.135 -41.25 186.145 -41.25 185.125 C-42.57 184.795 -43.89 184.465 -45.25 184.125 C-45.25 185.115 -45.25 186.105 -45.25 187.125 C-46.9 187.125 -48.55 187.125 -50.25 187.125 C-50.37375 186.3825 -50.4975 185.64 -50.625 184.875 C-51.5282193 180.90083507 -52.59291775 178.78208225 -55.5 175.875 C-57.73959618 173.63540382 -59.34107265 171.63345412 -61.125 169.0625 C-64.66105424 164.30587882 -68.00450848 161.68096268 -73.91796875 160.66796875 C-76.36507971 160.40910652 -78.79170594 160.22392531 -81.25 160.125 C-80.89927875 163.02004453 -80.39545952 163.99466387 -78.18359375 165.9765625 C-77.35988281 166.56179687 -76.53617188 167.14703125 -75.6875 167.75 C-74.17543716 168.83038187 -72.68687948 169.94646855 -71.25 171.125 C-71.25 171.785 -71.25 172.445 -71.25 173.125 C-70.59 173.125 -69.93 173.125 -69.25 173.125 C-68.96125 174.094375 -68.6725 175.06375 -68.375 176.0625 C-67.60785318 179.23164203 -67.60785318 179.23164203 -65.25 180.125 C-64.1796875 182.12109375 -64.1796875 182.12109375 -63.125 184.5625 C-62.77179688 185.36558594 -62.41859375 186.16867187 -62.0546875 186.99609375 C-61.25 189.125 -61.25 189.125 -61.25 191.125 C-60.5075 191.41375 -59.765 191.7025 -59 192 C-56.25 193.125 -56.25 193.125 -54.375 194.1875 C-48.48923948 196.78415905 -41.61358387 196.24979208 -35.3125 196.1875 C-34.43787109 196.18298828 -33.56324219 196.17847656 -32.66210938 196.17382812 C-30.52470953 196.16214834 -28.38734537 196.14421689 -26.25 196.125 C-26.16303823 200.06236123 -26.10962165 203.99947628 -26.0625 207.9375 C-26.03736328 209.05705078 -26.01222656 210.17660156 -25.98632812 211.33007812 C-25.97666016 212.40322266 -25.96699219 213.47636719 -25.95703125 214.58203125 C-25.9413208 215.57178955 -25.92561035 216.56154785 -25.90942383 217.58129883 C-26.25 220.125 -26.25 220.125 -27.5690918 221.94799805 C-30.43416476 223.95417332 -32.84824134 223.45959921 -36.25 223.125 C-42.49732747 221.17911112 -48.61013657 218.45614741 -54.25 215.125 C-54.58 214.465 -54.91 213.805 -55.25 213.125 C-56.301875 212.650625 -57.35375 212.17625 -58.4375 211.6875 C-62.88133674 209.56218678 -66.58947485 206.72308029 -70.4375 203.6875 C-71.32828247 202.98765991 -71.32828247 202.98765991 -72.23706055 202.27368164 C-82.6743394 193.92356624 -90.28363284 183.17842656 -97.8125 172.25 C-98.24199951 171.64430176 -98.67149902 171.03860352 -99.11401367 170.41455078 C-101.90415689 166.28004008 -102.88686557 163.10694955 -103.25 158.125 C-103.91 158.125 -104.57 158.125 -105.25 158.125 C-108.24317735 151.07833155 -110.76155868 144.65477219 -111.109375 136.953125 C-111.05199446 135.10607508 -111.05199446 135.10607508 -112.25 134.125 C-113.36441404 126.60863297 -113.43334219 119.15051228 -113.4375 111.5625 C-113.44974609 110.38236328 -113.46199219 109.20222656 -113.47460938 107.98632812 C-113.48527164 101.63517282 -113.07787899 96.204238 -111.25 90.125 C-110.94503524 88.48157878 -110.65116 86.83600613 -110.375 85.1875 C-109.54346243 80.93236634 -108.18045533 77.30698025 -106.3125 73.40625 C-105.1995546 71.01669075 -104.29031686 68.59635552 -103.375 66.125 C-101.64038092 61.70585139 -99.36565125 57.99205435 -96.6171875 54.1328125 C-95.29555502 52.19190079 -94.24906319 50.24681992 -93.25 48.125 C-92.59 48.125 -91.93 48.125 -91.25 48.125 C-91.023125 47.41859375 -90.79625 46.7121875 -90.5625 45.984375 C-88.9883737 42.55502842 -86.81430822 40.08213715 -84.25 37.375 C-83.76523193 36.85639404 -83.28046387 36.33778809 -82.78100586 35.8034668 C-69.67060206 21.95229006 -69.67060206 21.95229006 -64.25 21.125 C-64.25 20.465 -64.25 19.805 -64.25 19.125 C-56.47702045 13.33287653 -48.51175885 9.8514052 -39.25 7.125 C-37.8693481 6.61933934 -36.49355216 6.10004754 -35.125 5.5625 C-32.21149896 4.45862693 -29.28190571 3.44418891 -26.3125 2.5 C-25.56097656 2.26023437 -24.80945313 2.02046875 -24.03515625 1.7734375 C-16.11402748 -0.07075237 -8.09444185 -0.03490567 0 0 Z " fill="#1C1A1A" transform="translate(248.25,72.875)"/>
<path d="M0 0 C6.6 0 13.2 0 20 0 C20 9.57 20 19.14 20 29 C20.99 28.34 21.98 27.68 23 27 C26.9945574 25.91120571 30.87356685 25.83473294 35 25.8125 C36.19625 25.79832031 37.3925 25.78414063 38.625 25.76953125 C44.01057682 26.13729633 47.0871885 27.57024801 50.625 31.625 C51.47964844 32.57246094 51.47964844 32.57246094 52.3515625 33.5390625 C57.10208809 40.63107937 57.52134968 47.31471023 57.4375 55.625 C57.42847656 56.68444824 57.41945313 57.74389648 57.41015625 58.83544922 C57.0010262 77.43097844 57.0010262 77.43097844 51.12890625 84.13671875 C44.04883252 89.87840425 35.76815281 89.60112632 27 89 C22.46468805 88.00507402 18.86201258 86.57467505 15 84 C14.67 85.32 14.34 86.64 14 88 C11.85423363 88.02685938 9.70837355 88.04633088 7.5625 88.0625 C6.36753906 88.07410156 5.17257812 88.08570313 3.94140625 88.09765625 C1 88 1 88 0 87 C-0.09514592 84.29161914 -0.12554932 81.60881487 -0.11352539 78.90014648 C-0.11367142 78.05143982 -0.11381744 77.20273315 -0.1139679 76.32830811 C-0.11326848 73.50921109 -0.10547478 70.69017929 -0.09765625 67.87109375 C-0.09579217 65.92196183 -0.09436822 63.97282945 -0.09336853 62.0236969 C-0.08954255 56.88293168 -0.07971159 51.74219453 -0.06866455 46.60144043 C-0.05845215 41.35994852 -0.05387128 36.1184521 -0.04882812 30.87695312 C-0.03808939 20.58462108 -0.02049195 10.29231726 0 0 Z " fill="#151314" transform="translate(364,324)"/>
<path d="M0 0 C6.27 0 12.54 0 19 0 C19 10.89 19 21.78 19 33 C27.25 33 35.5 33 44 33 C44 22.11 44 11.22 44 0 C50.27 0 56.54 0 63 0 C63 29.04 63 58.08 63 88 C56.73 88 50.46 88 44 88 C44 75.46 44 62.92 44 50 C35.75 50 27.5 50 19 50 C19.01160156 52.65933594 19.02320313 55.31867188 19.03515625 58.05859375 C19.04294652 60.62345256 19.04902345 63.18831007 19.05493164 65.75317383 C19.05997218 67.54094021 19.06680454 69.32870245 19.07543945 71.11645508 C19.0875173 73.68051168 19.09323094 76.24451397 19.09765625 78.80859375 C19.10281754 79.6127623 19.10797882 80.41693085 19.11329651 81.24546814 C19.11349215 83.16401715 19.06201983 85.08245368 19 87 C18.67 87.33 18.34 87.66 18 88 C12.06 88 6.12 88 0 88 C0 58.96 0 29.92 0 0 Z " fill="#171516" transform="translate(230,324)"/>
<path d="M0 0 C2 2 2 2 2.046875 3.953125 C1.4566172 8.51985639 0.66464929 12.67191184 -1 17 C-1.63164062 16.9278125 -2.26328125 16.855625 -2.9140625 16.78125 C-18.48096557 14.67704978 -18.48096557 14.67704978 -33 19 C-37.92594145 23.00948722 -41.4549324 28.13480399 -42.35327148 34.50512695 C-42.4639284 37.20179329 -42.44817282 39.86473378 -42.375 42.5625 C-42.37306641 43.9227832 -42.37306641 43.9227832 -42.37109375 45.31054688 C-42.30213726 50.59338034 -41.67841086 54.9963165 -40 60 C-39.86335938 60.73992187 -39.72671875 61.47984375 -39.5859375 62.2421875 C-38.7950365 64.61489049 -37.55746918 65.56760923 -35.625 67.125 C-35.01914063 67.62257813 -34.41328125 68.12015625 -33.7890625 68.6328125 C-29.56254549 71.86268357 -26.47340211 72.39283918 -21.3125 72.625 C-18.899375 72.74875 -16.48625 72.8725 -14 73 C-13.67 66.73 -13.34 60.46 -13 54 C-17.29 54 -21.58 54 -26 54 C-26 48.72 -26 43.44 -26 38 C-15.44 38 -4.88 38 6 38 C6 52.85 6 67.7 6 83 C-7.53099181 89.76549591 -21.28602057 92.70116877 -36.421875 89.2109375 C-38.74895732 88.28715634 -40.84785928 87.27257016 -43 86 C-43.9075 85.566875 -44.815 85.13375 -45.75 84.6875 C-52.14170468 79.89372149 -57.20952537 73.02183885 -58.46484375 65.046875 C-58.7161021 62.36219671 -58.90094761 59.69422498 -59 57 C-59.66 57 -60.32 57 -61 57 C-61.02934144 53.02084915 -61.04691265 49.04172663 -61.0625 45.0625 C-61.07506836 43.38704102 -61.07506836 43.38704102 -61.08789062 41.67773438 C-61.13906768 24.22635845 -61.13906768 24.22635845 -57.125 16.6875 C-56.61195312 15.70136719 -56.09890625 14.71523438 -55.5703125 13.69921875 C-54.17339474 11.29804916 -52.82245412 9.09632017 -51 7 C-50.34 7 -49.68 7 -49 7 C-48.67 6.01 -48.34 5.02 -48 4 C-35.71004985 -4.81670337 -14.06035191 -4.06745894 0 0 Z " fill="#151314" transform="translate(140,323)"/>
<path d="M0 0 C0.79792969 0.00386719 1.59585938 0.00773437 2.41796875 0.01171875 C3.61486328 0.00591797 3.61486328 0.00591797 4.8359375 0 C10.79136108 0.01011108 10.79136108 0.01011108 11.91796875 1.13671875 C12.01183256 3.00852815 12.03540679 4.88389935 12.03149414 6.75805664 C12.03141861 7.95922623 12.03134308 9.16039581 12.03126526 10.39796448 C12.02610397 11.70522995 12.02094269 13.01249542 12.015625 14.359375 C12.01376073 15.70316007 12.01233687 17.04694582 12.01133728 18.39073181 C12.00751277 21.93354152 11.99768307 25.47631045 11.9866333 29.019104 C11.97641774 32.63187102 11.97183935 36.24464459 11.96679688 39.85742188 C11.95606073 46.95053914 11.93846447 54.043622 11.91796875 61.13671875 C7.62796875 61.13671875 3.33796875 61.13671875 -1.08203125 61.13671875 C-1.08203125 59.81671875 -1.08203125 58.49671875 -1.08203125 57.13671875 C-1.76265625 57.59046875 -2.44328125 58.04421875 -3.14453125 58.51171875 C-8.91801203 61.70555918 -14.56953603 62.46157502 -21.08203125 62.38671875 C-21.75492187 62.39445312 -22.4278125 62.4021875 -23.12109375 62.41015625 C-28.74252462 62.38845188 -34.12731916 61.98283573 -38.33203125 58.01171875 C-42.70512819 50.8273452 -43.51838526 44.78574183 -43.41015625 36.546875 C-43.40828308 35.56174423 -43.40640991 34.57661346 -43.40447998 33.56163025 C-43.39779458 31.4950722 -43.38395075 29.42852604 -43.36328125 27.36206055 C-43.33188696 24.18461472 -43.32228205 21.0076643 -43.31640625 17.83007812 C-43.30724505 15.81900431 -43.29687211 13.80793556 -43.28515625 11.796875 C-43.28090637 10.84281265 -43.27665649 9.88875031 -43.27227783 8.90577698 C-43.26267029 8.0307402 -43.25306274 7.15570343 -43.24316406 6.25415039 C-43.23633606 5.48108047 -43.22950806 4.70801056 -43.22247314 3.91151428 C-43.08203125 2.13671875 -43.08203125 2.13671875 -42.08203125 1.13671875 C-36.14203125 1.13671875 -30.20203125 1.13671875 -24.08203125 1.13671875 C-23.75203125 15.32671875 -23.42203125 29.51671875 -23.08203125 44.13671875 C-20.47283297 45.44131789 -18.4926051 45.26937815 -15.58203125 45.26171875 C-14.60234375 45.26429688 -13.62265625 45.266875 -12.61328125 45.26953125 C-10.08772071 45.30611928 -10.08772071 45.30611928 -8.08203125 44.13671875 C-8.0569751 42.83935791 -8.03191895 41.54199707 -8.00610352 40.20532227 C-7.91221373 35.41013019 -7.81194876 30.61508925 -7.7097168 25.82006836 C-7.66629791 23.74132818 -7.62462813 21.66255072 -7.5847168 19.58374023 C-7.52718204 16.6025873 -7.46344006 13.62162326 -7.3984375 10.640625 C-7.38172501 9.70521378 -7.36501251 8.76980255 -7.34779358 7.80604553 C-7.32784836 6.94522873 -7.30790314 6.08441193 -7.28735352 5.19750977 C-7.27180923 4.43584 -7.25626495 3.67417023 -7.24024963 2.88941956 C-6.86771836 -1.23738192 -3.36958723 0.00572086 0 0 Z " fill="#191718" transform="translate(344.08203125,350.86328125)"/>
<path d="M0 0 C6.27 0 12.54 0 19 0 C19 5.28 19 10.56 19 16 C23.29 16 27.58 16 32 16 C32 21.61 32 27.22 32 33 C27.71 33 23.42 33 19 33 C19 42.24 19 51.48 19 61 C23.29 61.33 27.58 61.66 32 62 C32 66.95 32 71.9 32 77 C27.60634738 77.73227544 23.8906384 78.16136525 19.5 78.1875 C18.4171875 78.20167969 17.334375 78.21585937 16.21875 78.23046875 C11.10646271 77.86441905 7.93636914 76.91508802 4.25 73.3125 C0.04291767 68.33411924 -0.2470694 61.77186236 -0.1953125 55.53515625 C-0.1924826 54.85698349 -0.18965271 54.17881073 -0.18673706 53.48008728 C-0.17565416 51.34070234 -0.1505736 49.2017557 -0.125 47.0625 C-0.11495476 45.60091756 -0.10583163 44.13932847 -0.09765625 42.67773438 C-0.07575425 39.11835021 -0.04130866 35.55921797 0 32 C-3.3 32 -6.6 32 -10 32 C-10 27.71 -10 23.42 -10 19 C-7.03 18.34 -4.06 17.68 -1 17 C-0.67 11.39 -0.34 5.78 0 0 Z " fill="#1A1819" transform="translate(190,335)"/>
<path d="M0 0 C6.27 0 12.54 0 19 0 C19 20.13 19 40.26 19 61 C12.73 61 6.46 61 0 61 C-1.74299388 59.25700612 -1.12758682 56.85593748 -1.12939453 54.48632812 C-1.13254669 53.30840698 -1.13569885 52.13048584 -1.13894653 50.91687012 C-1.1369223 49.63461548 -1.13489807 48.35236084 -1.1328125 47.03125 C-1.13376923 45.72546997 -1.13472595 44.41968994 -1.13571167 43.07434082 C-1.13718833 40.30687278 -1.13503511 37.53943696 -1.13037109 34.77197266 C-1.12467381 31.21737351 -1.12795298 27.66284986 -1.13394356 24.10825348 C-1.13841747 20.72841286 -1.13528886 17.34859277 -1.1328125 13.96875 C-1.13483673 12.68649536 -1.13686096 11.40424072 -1.13894653 10.08312988 C-1.13579437 8.90520874 -1.13264221 7.7272876 -1.12939453 6.51367188 C-1.12859894 5.47078003 -1.12780334 4.42788818 -1.12698364 3.35339355 C-1 1 -1 1 0 0 Z " fill="#110F10" transform="translate(156,351)"/>
<path d="M0 0 C2.18160819 1.55829157 2.74129731 2.77335665 3.75 5.25 C4.19068733 8.90585318 4.12024575 12.57020813 4.125 16.25 C4.14949219 17.24773437 4.17398437 18.24546875 4.19921875 19.2734375 C4.22824129 26.49037489 4.22824129 26.49037489 2.0703125 29.91796875 C-0.7656832 31.54604036 -2.49495707 31.69216517 -5.75 31.5625 C-6.6884375 31.53800781 -7.626875 31.51351562 -8.59375 31.48828125 C-11.25 31.25 -11.25 31.25 -15.25 30.25 C-15.25 20.68 -15.25 11.11 -15.25 1.25 C-5.01923077 -1.67307692 -5.01923077 -1.67307692 0 0 Z " fill="#F4F4F4" transform="translate(398.25,365.75)"/>
<path d="M0 0 C4.44649022 2.38204833 4.44649022 2.38204833 6 5 C6.48705972 8.3938736 6.35673975 11.59775979 6 15 C5.34 15 4.68 15 4 15 C3.566875 15.928125 3.566875 15.928125 3.125 16.875 C2 19 2 19 0 21 C-8.55489614 21.55192878 -8.55489614 21.55192878 -12 19 C-14.16575103 17.06629372 -14.92974802 15.70377429 -15.21875 12.80859375 C-15.2985133 6.5970266 -15.2985133 6.5970266 -14 4 C-13.34 4 -12.68 4 -12 4 C-11.67 3.01 -11.34 2.02 -11 1 C-7.25049967 -0.24983344 -3.88692703 -0.61488111 0 0 Z " fill="#1B191A" transform="translate(169,326)"/>
<path d="M0 0 C6.6 0 13.2 0 20 0 C20 9.57 20 19.14 20 29 C20.66 29.33 21.32 29.66 22 30 C21.01 30 20.02 30 19 30 C19 20.43 19 10.86 19 1 C13.39 1 7.78 1 2 1 C2 29.05 2 57.1 2 86 C5.96 86 9.92 86 14 86 C14 85.01 14 84.02 14 83 C14.99 83.33 15.98 83.66 17 84 C16.34 84 15.68 84 15 84 C14.67 85.32 14.34 86.64 14 88 C11.85423363 88.02685938 9.70837355 88.04633088 7.5625 88.0625 C6.36753906 88.07410156 5.17257812 88.08570313 3.94140625 88.09765625 C1 88 1 88 0 87 C-0.09514592 84.29161914 -0.12554932 81.60881487 -0.11352539 78.90014648 C-0.11367142 78.05143982 -0.11381744 77.20273315 -0.1139679 76.32830811 C-0.11326848 73.50921109 -0.10547478 70.69017929 -0.09765625 67.87109375 C-0.09579217 65.92196183 -0.09436822 63.97282945 -0.09336853 62.0236969 C-0.08954255 56.88293168 -0.07971159 51.74219453 -0.06866455 46.60144043 C-0.05845215 41.35994852 -0.05387128 36.1184521 -0.04882812 30.87695312 C-0.03808939 20.58462108 -0.02049195 10.29231726 0 0 Z " fill="#5B5A5A" transform="translate(364,324)"/>
<path d="M0 0 C6.27 0 12.54 0 19 0 C19 20.13 19 40.26 19 61 C12.73 61 6.46 61 0 61 C-1.74299388 59.25700612 -1.12758682 56.85593748 -1.12939453 54.48632812 C-1.13254669 53.30840698 -1.13569885 52.13048584 -1.13894653 50.91687012 C-1.1369223 49.63461548 -1.13489807 48.35236084 -1.1328125 47.03125 C-1.13376923 45.72546997 -1.13472595 44.41968994 -1.13571167 43.07434082 C-1.13718833 40.30687278 -1.13503511 37.53943696 -1.13037109 34.77197266 C-1.12467381 31.21737351 -1.12795298 27.66284986 -1.13394356 24.10825348 C-1.13841747 20.72841286 -1.13528886 17.34859277 -1.1328125 13.96875 C-1.13483673 12.68649536 -1.13686096 11.40424072 -1.13894653 10.08312988 C-1.13579437 8.90520874 -1.13264221 7.7272876 -1.12939453 6.51367188 C-1.12859894 5.47078003 -1.12780334 4.42788818 -1.12698364 3.35339355 C-1 1 -1 1 0 0 Z M0 2 C0 21.14 0 40.28 0 60 C5.61 60 11.22 60 17 60 C17 40.86 17 21.72 17 2 C11.39 2 5.78 2 0 2 Z " fill="#7B7A7A" transform="translate(156,351)"/>
<path d="M0 0 C7.59 0 15.18 0 23 0 C23.02686682 3.95837814 23.04677414 7.91657562 23.0625 11.875 C23.07087891 13.00292969 23.07925781 14.13085938 23.08789062 15.29296875 C23.09272461 16.90751953 23.09272461 16.90751953 23.09765625 18.5546875 C23.10551147 20.04718018 23.10551147 20.04718018 23.11352539 21.56982422 C23 24 23 24 22 26 C21.34 25.67 20.68 25.34 20 25 C20.33 17.41 20.66 9.82 21 2 C14.4 2 7.8 2 1 2 C0.67 1.34 0.34 0.68 0 0 Z " fill="#686767" transform="translate(199,269)"/>
<path d="M0 0 C3.28416237 3.16252673 6.31433225 6.31679852 9 10 C8.8125 12.375 8.8125 12.375 8 14 C6.35 14 4.7 14 3 14 C3 11.69 3 9.38 3 7 C1.35 6.67 -0.3 6.34 -2 6 C-2 4.68 -2 3.36 -2 2 C-1.34 2 -0.68 2 0 2 C0 1.34 0 0.68 0 0 Z " fill="#C2C2C2" transform="translate(187,242)"/>
<path d="M0 0 C0.66 0 1.32 0 2 0 C1.67 9.9 1.34 19.8 1 30 C1.66 30 2.32 30 3 30 C3.66 34.29 4.32 38.58 5 43 C4.34 42.67 3.68 42.34 3 42 C2.40644386 39.35139573 2.25790731 36.70802678 2 34 C1.34 34 0.68 34 0 34 C0 22.78 0 11.56 0 0 Z " fill="#999899" transform="translate(78,350)"/>
<path d="M0 0 C4.95 0.99 9.9 1.98 15 3 C15 4.65 15 6.3 15 8 C13.35 8 11.7 8 10 8 C10 7.01 10 6.02 10 5 C8.68 4.67 7.36 4.34 6 4 C6 4.99 6 5.98 6 7 C4.35 7 2.7 7 1 7 C0 2.25 0 2.25 0 0 Z " fill="#8C8B8B" transform="translate(197,253)"/>
<path d="M0 0 C4.59306496 1.4859916 7.43569245 3.85014682 11 7 C10.67 7.66 10.34 8.32 10 9 C9.67 8.67 9.34 8.34 9 8 C8.67 8.66 8.34 9.32 8 10 C6.35 9.67 4.7 9.34 3 9 C3 8.01 3 7.02 3 6 C2.01 6 1.02 6 0 6 C0 4.02 0 2.04 0 0 Z " fill="#C3C2C2" transform="translate(176,233)"/>
<path d="M0 0 C0 0.66 0 1.32 0 2 C-1.65 2.33 -3.3 2.66 -5 3 C-5.33 6.3 -5.66 9.6 -6 13 C-3.36 13 -0.72 13 2 13 C2 13.33 2 13.66 2 14 C-1.3 14 -4.6 14 -8 14 C-8 9.71 -8 5.42 -8 1 C-2 0 -2 0 0 0 Z " fill="#2B292A" transform="translate(188,353)"/>
<path d="M0 0 C1.8871875 0.0309375 1.8871875 0.0309375 3.8125 0.0625 C3.8125 0.3925 3.8125 0.7225 3.8125 1.0625 C2.90757812 1.31773437 2.90757812 1.31773437 1.984375 1.578125 C-4.55554218 3.40976179 -4.55554218 3.40976179 -9.1875 8.0625 C-9.49972758 10.81962829 -9.37362802 13.27057976 -9.1875 16.0625 C-9.8475 15.7325 -10.5075 15.4025 -11.1875 15.0625 C-11.2145043 13.60426788 -11.23389787 12.14589325 -11.25 10.6875 C-11.26160156 9.87539063 -11.27320313 9.06328125 -11.28515625 8.2265625 C-11.1875 6.0625 -11.1875 6.0625 -10.1875 4.0625 C-9.5275 4.0625 -8.8675 4.0625 -8.1875 4.0625 C-7.8575 3.0725 -7.5275 2.0825 -7.1875 1.0625 C-4.43671116 0.14557039 -2.82801087 -0.04636083 0 0 Z " fill="#545253" transform="translate(165.1875,325.9375)"/>
<path d="M0 0 C0.66 0.33 1.32 0.66 2 1 C-0.97 4.3 -3.94 7.6 -7 11 C-7.99 10.67 -8.98 10.34 -10 10 C-6.7 6.7 -3.4 3.4 0 0 Z " fill="#555454" transform="translate(174,100)"/>
<path d="M0 0 C1.32 0.66 2.64 1.32 4 2 C4 2.99 4 3.98 4 5 C3.67 4.67 3.34 4.34 3 4 C2.67 4.66 2.34 5.32 2 6 C0.68 5.67 -0.64 5.34 -2 5 C-1.125 1.125 -1.125 1.125 0 0 Z " fill="#9A9999" transform="translate(182,237)"/>
<path d="M0 0 C1.32 1.32 2.64 2.64 4 4 C3.67 4.66 3.34 5.32 3 6 C0.9375 6.625 0.9375 6.625 -1 7 C-1.33 5.35 -1.66 3.7 -2 2 C-1.34 2 -0.68 2 0 2 C0 1.34 0 0.68 0 0 Z " fill="#939292" transform="translate(187,242)"/>
<path d="M0 0 C2.475 0.495 2.475 0.495 5 1 C5 1.99 5 2.98 5 4 C3.35 4 1.7 4 0 4 C0 2.68 0 1.36 0 0 Z " fill="#747272" transform="translate(190,252)"/>
<path d="M0 0 C0.66 0.33 1.32 0.66 2 1 C1.360625 1.103125 0.72125 1.20625 0.0625 1.3125 C-0.9584375 1.6528125 -0.9584375 1.6528125 -2 2 C-2.33 2.99 -2.66 3.98 -3 5 C-4.65 5.33 -6.3 5.66 -8 6 C-3.375 1.125 -3.375 1.125 0 0 Z " fill="#706E6F" transform="translate(99,323)"/>
</svg>
