<?xml version="1.0" encoding="UTF-8"?>
<svg version="1.1" xmlns="http://www.w3.org/2000/svg" width="500" height="500">
<path d="M0 0 C165 0 330 0 500 0 C500 165 500 330 500 500 C335 500 170 500 0 500 C0 335 0 170 0 0 Z " fill="#FEFEFE" transform="translate(0,0)"/>
<path d="M0 0 C86.46 0 172.92 0 262 0 C262 9.41467788 261.72361218 18.12845927 260.5625 27.375 C259.5426732 35.97152271 258.69813306 44.49589717 258.2421875 53.140625 C257.79683216 60.23757781 257.00274705 67.30290026 256.27050781 74.375 C255.0018383 86.68613228 253.8435571 98.97210402 253.24609375 111.3359375 C253 115 253 115 252.5234375 118.3125 C251.8477711 123.07241851 251.52822592 127.83104773 251.1875 132.625 C250.30806566 144.47098051 249.30636378 156.30484893 248.26309204 168.13739014 C248.08978401 170.10543435 247.9175366 172.0735723 247.74642944 174.04180908 C246.94734317 183.21991916 246.13315817 192.38344965 244.9375 201.51953125 C244.02594733 208.52531203 243.44933949 215.5136465 243 222.5625 C242.38806826 231.61161678 241.72854832 240.65215199 240.9375 249.6875 C240.81858398 251.05660522 240.81858398 251.05660522 240.69726562 252.45336914 C240.20727133 257.97867246 239.63094412 263.48901023 239 269 C238.33806641 269.17539307 237.67613281 269.35078613 236.99414062 269.53149414 C224.95809047 272.72792281 212.94309051 275.9702891 201 279.5 C191.73571595 282.23452322 182.43840013 284.81215661 173.10205078 287.28930664 C167.11619414 288.88006977 161.14660014 290.51684186 155.19140625 292.21875 C153.22518222 292.77653083 151.25877026 293.33364503 149.29232788 293.89065552 C147.4236613 294.42362122 145.5580913 294.96740661 143.69262695 295.51147461 C132.09787592 298.79046142 125.0807428 298.06609899 113.63748169 294.5546875 C110.17253917 293.49205959 106.6967321 292.46588285 103.22265625 291.43359375 C102.52194504 291.22427216 101.82123383 291.01495056 101.09928894 290.79928589 C94.78371715 288.91810655 88.43296292 287.18573794 82.0625 285.5 C72.10130519 282.85232473 62.17023905 280.10889631 52.25 277.3125 C51.25651047 277.0326123 51.25651047 277.0326123 50.24295044 276.74707031 C41.15592581 274.18578876 32.07632903 271.59887543 23 269 C22.93006836 268.22551514 22.86013672 267.45103027 22.78808594 266.65307617 C21.19397239 249.01659328 19.57763819 231.38226396 17.9375 213.75 C17.85568481 212.86968109 17.77386963 211.98936218 17.6895752 211.08236694 C17.44829713 208.48717502 17.20663444 205.89201921 16.96484375 203.296875 C16.84656219 202.02506882 16.84656219 202.02506882 16.72589111 200.72756958 C16.32041922 196.38085919 15.90753642 192.03502136 15.48242188 187.69018555 C14.44339481 177.0398071 13.54719876 166.39087198 12.79534912 155.71655273 C11.69050322 140.12441005 10.36890847 124.55958131 8.875 109 C8.78873352 108.09859283 8.70246704 107.19718567 8.61358643 106.26846313 C8.36683514 103.69960491 8.11773775 101.13099028 7.8671875 98.5625 C7.79437561 97.81207932 7.72156372 97.06165863 7.64654541 96.28849792 C7.29724786 92.75429494 6.91117162 89.23013782 6.45898438 85.70751953 C5.97051697 81.76184613 5.77752428 77.84328381 5.625 73.875 C4.91517213 58.31886147 3.12919139 42.80991618 1.359375 27.34375 C1.2190686 26.09464844 1.2190686 26.09464844 1.07592773 24.8203125 C0.91085669 23.36634107 0.7394834 21.91305615 0.55883789 20.4609375 C-0.22820131 13.54786978 0 7.11950514 0 0 Z " fill="#E44E27" transform="translate(119,137)"/>
<path d="M0 0 C54.12 0 108.24 0 164 0 C163 23 163 23 162 33 C120.42 33 78.84 33 36 33 C36.66 39.6 37.32 46.2 38 53 C38 57.62 38 62.24 38 67 C77.6 67 117.2 67 158 67 C156.84777519 88.89227143 156.84777519 88.89227143 156.28125 95.51953125 C156.21844849 96.27747482 156.15564697 97.0354184 156.09094238 97.81632996 C155.9612889 99.37254441 155.83025423 100.92864449 155.69775391 102.48461914 C155.49619782 104.85725773 155.3005906 107.23034005 155.10546875 109.60351562 C154.97690758 111.13804978 154.84801434 112.67255617 154.71875 114.20703125 C154.661427 114.90391556 154.604104 115.60079987 154.54504395 116.31880188 C154.20598501 120.25524848 153.65611864 124.10604878 153 128 C152.89837703 129.41737303 152.82579761 130.83727595 152.7890625 132.2578125 C152.76255615 133.03930664 152.7360498 133.82080078 152.70874023 134.62597656 C152.68110596 135.4506543 152.65347168 136.27533203 152.625 137.125 C152.20424688 147.55499158 150.73921188 157.71786685 149 168 C147.25219644 168.61049167 145.50157732 169.21292161 143.75 169.8125 C142.77546875 170.14894531 141.8009375 170.48539063 140.796875 170.83203125 C137.78025592 171.759983 134.80025233 172.56532166 131.73828125 173.31640625 C124.07391756 175.19941488 116.47971609 177.32258757 108.87866211 179.44384766 C106.41114724 180.13235316 103.9429317 180.81830177 101.47460938 181.50390625 C99.89839652 181.94256111 98.32222315 182.38135788 96.74609375 182.8203125 C95.64460243 183.12656052 95.64460243 183.12656052 94.52085876 183.43899536 C91.65807385 184.23867816 88.82040707 185.05986431 86 186 C78.59680894 186.59054356 72.15131608 184.69270296 65.0625 182.6875 C63.93392578 182.37876953 62.80535156 182.07003906 61.64257812 181.75195312 C56.04489149 180.20518108 50.52162534 178.53681143 45.02709961 176.65893555 C40.57732242 175.2124766 36.00241619 174.24131496 31.453125 173.16015625 C25.56260311 171.6960463 19.78842207 169.8189812 14 168 C13.91435791 167.00669678 13.82871582 166.01339355 13.74047852 164.98999023 C13.42001501 161.27920623 13.09697858 157.56864981 12.77319336 153.8581543 C12.6338272 152.2569776 12.49514429 150.65574126 12.35717773 149.05444336 C12.15791709 146.74316371 11.9561411 144.43211483 11.75390625 142.12109375 C11.6934462 141.41351425 11.63298615 140.70593475 11.57069397 139.97691345 C11.29515519 136.85263718 10.96300894 133.77552815 10.45288086 130.67993164 C9.85489711 125.82095103 10 120.89563858 10 116 C20.89 116 31.78 116 43 116 C45.28571429 134 45.28571429 134 45 143 C45.61101562 143.07476562 46.22203125 143.14953125 46.8515625 143.2265625 C52.16271355 143.98957293 57.2237251 145.02135284 62.37890625 146.50390625 C63.33394043 146.77831543 64.28897461 147.05272461 65.27294922 147.33544922 C67.18385396 147.89409033 69.09069462 148.46686934 70.99267578 149.05517578 C80.69439875 151.89111727 88.34282111 150.11828083 97.9375 147.625 C99.18176758 147.31175781 99.18176758 147.31175781 100.45117188 146.9921875 C106.36240924 145.48567168 112.14766664 143.75570001 118 142 C119.32 128.14 120.64 114.28 122 100 C84.38 100 46.76 100 8 100 C4.59212247 64.7852655 4.59212247 64.7852655 3.4375 50.3125 C2.19136247 34.84844829 2.19136247 34.84844829 0.55834961 19.42114258 C-0.17034757 12.84557414 0 6.77167717 0 0 Z " fill="#FEFDFD" transform="translate(168,192)"/>
<path d="M0 0 C35.31 0 70.62 0 107 0 C105.81444865 23.71102705 105.81444865 23.71102705 105.0625 33.75 C104.97677734 34.90701416 104.89105469 36.06402832 104.80273438 37.25610352 C104.25255934 44.41590874 103.47180067 51.48377164 102.5 58.59765625 C101.74885511 64.66696568 101.41135804 70.77533155 101 76.875 C100.37851014 86.08081862 99.62305418 95.22843233 98.52734375 104.38916016 C97.97308868 109.13506525 97.50935877 113.88746077 97.0625 118.64453125 C96.97677734 119.55140686 96.89105469 120.45828247 96.80273438 121.39263916 C95.83525247 131.67544462 94.91297455 141.96223396 94 152.25 C93.86877243 153.72351929 93.86877243 153.72351929 93.7348938 155.22680664 C92.74810409 166.31410916 91.78573672 177.40114882 90.9375 188.5 C89.90319142 202.02729547 88.45068862 215.51208445 87 229 C79.14380627 232.16914342 71.01498933 234.38401579 62.875 236.6875 C61.72898315 237.01356735 61.72898315 237.01356735 60.55981445 237.34622192 C46.13136715 241.45107991 31.65524916 245.35994142 17.14453125 249.16357422 C13.15937274 250.22360163 9.19043334 251.33891175 5.22460938 252.46899414 C3 253 3 253 0 253 C-0.33 241.78 -0.66 230.56 -1 219 C2.795 217.989375 6.59 216.97875 10.5 215.9375 C20.61826426 213.2288809 30.69158342 210.39433098 40.72851562 207.39819336 C49.39090419 204.82779025 58.06391574 202.40219155 67 201 C67.06058594 200.14277344 67.12117188 199.28554688 67.18359375 198.40234375 C67.30927734 196.68724609 67.30927734 196.68724609 67.4375 194.9375 C67.51871094 193.81214844 67.59992188 192.68679688 67.68359375 191.52734375 C67.88968708 189.22978476 68.16145465 186.93688325 68.5078125 184.65625 C69.20102693 179.50665707 69.34360326 174.36337094 69.51757812 169.17382812 C69.76514079 163.23699506 70.43034306 157.41298669 71.20614624 151.52285767 C72.31870964 142.85597243 72.9196595 134.1493899 73.5625 125.4375 C73.75105828 122.90636531 73.94080852 120.37533751 74.13328552 117.84449768 C74.25146119 116.28863783 74.36739918 114.73260562 74.48060608 113.17637634 C74.53413742 112.46775955 74.58766876 111.75914276 74.64282227 111.02905273 C74.68786392 110.41779037 74.73290558 109.80652802 74.77931213 109.17674255 C75.09057458 106.10662269 75.56359376 103.05484368 76 100 C36.4 100 -3.2 100 -44 100 C-45.02784547 88.69369987 -46 77.35292424 -46 66 C-4.42 66 37.16 66 80 66 C80.33 57.42 80.66 48.84 81 40 C81.33 37.69 81.66 35.38 82 33 C54.94 33 27.88 33 0 33 C0 22.11 0 11.22 0 0 Z " fill="#F0652A" transform="translate(250,159)"/>
<path d="M0 0 C54.12 0 108.24 0 164 0 C163 23 163 23 162 33 C120.42 33 78.84 33 36 33 C36.66 39.6 37.32 46.2 38 53 C38 57.62 38 62.24 38 67 C52.52 67 67.04 67 82 67 C82 77.56 82 88.12 82 99 C95.2 99 108.4 99 122 99 C122 99.33 122 99.66 122 100 C84.38 100 46.76 100 8 100 C4.59212247 64.7852655 4.59212247 64.7852655 3.4375 50.3125 C2.19136247 34.84844829 2.19136247 34.84844829 0.55834961 19.42114258 C-0.17034757 12.84557414 0 6.77167717 0 0 Z " fill="#EBE8E7" transform="translate(168,192)"/>
<path d="M0 0 C10.89 0 21.78 0 33 0 C35.28571429 18 35.28571429 18 35 27 C35.61101562 27.07476562 36.22203125 27.14953125 36.8515625 27.2265625 C44.22651342 28.28606249 51.31554424 30.04659011 58.5 32 C59.46760254 32.26119629 60.43520508 32.52239258 61.43212891 32.79150391 C65.57925852 33.93892245 69.12406669 35.06203334 73 37 C72.67 47.89 72.34 58.78 72 70 C62.99343332 68.87417916 62.99343332 68.87417916 58.72265625 67.6953125 C57.79646484 67.44136719 56.87027344 67.18742187 55.91601562 66.92578125 C54.97435547 66.66152344 54.03269531 66.39726562 53.0625 66.125 C52.12470703 65.86847656 51.18691406 65.61195313 50.22070312 65.34765625 C45.87145459 64.14473692 41.56474449 62.88121735 37.29296875 61.42578125 C32.0865312 59.6542146 26.80338552 58.43166878 21.453125 57.16015625 C15.56260311 55.6960463 9.78842207 53.8189812 4 52 C3.91435791 51.00669678 3.82871582 50.01339355 3.74047852 48.98999023 C3.42001501 45.27920623 3.09697858 41.56864981 2.77319336 37.8581543 C2.6338272 36.2569776 2.49514429 34.65574126 2.35717773 33.05444336 C2.15791709 30.74316371 1.9561411 28.43211483 1.75390625 26.12109375 C1.6934462 25.41351425 1.63298615 24.70593475 1.57069397 23.97691345 C1.29515519 20.85263718 0.96300894 17.77552815 0.45288086 14.67993164 C-0.14510289 9.82095103 0 4.89563858 0 0 Z " fill="#EAE8E8" transform="translate(178,308)"/>
<path d="M0 0 C27.06 0 54.12 0 82 0 C81.67 7.26 81.34 14.52 81 22 C80.34 22 79.68 22 79 22 C79 24.97 79 27.94 79 31 C52.93 31 26.86 31 0 31 C0 20.77 0 10.54 0 0 Z " fill="#FEFEFE" transform="translate(250,193)"/>
<path d="M0 0 C18 0 18 0 21.65625 3.24609375 C22.68359375 5.28320312 22.68359375 5.28320312 23.5 7.4375 C24.15392089 8.83312493 24.81006088 10.22771293 25.46875 11.62109375 C25.9740625 12.73613281 26.479375 13.85117188 27 15 C27.66 15.33 28.32 15.66 29 16 C29.2784375 15.29488281 29.556875 14.58976562 29.84375 13.86328125 C30.2253125 12.91839844 30.606875 11.97351563 31 11 C31.3609375 10.04480469 31.721875 9.08960937 32.09375 8.10546875 C33.5 5.1875 33.5 5.1875 38 0 C43.94 0 49.88 0 56 0 C56 16.5 56 33 56 50 C50.39 50 44.78 50 39 50 C38.67 42.41 38.34 34.82 38 27 C35.16136689 31.60018374 35.16136689 31.60018374 32.34643555 36.21484375 C31.30931064 37.86191855 30.1563066 39.43429297 29 41 C28.01 41 27.02 41 26 41 C24.2884508 38.68246187 22.79796142 36.4533235 21.3125 34 C19.889375 31.69 18.46625 29.38 17 27 C16.67 34.59 16.34 42.18 16 50 C10.72 50 5.44 50 0 50 C0 33.5 0 17 0 0 Z " fill="#050505" transform="translate(253,65)"/>
<path d="M0 0 C5.61 0 11.22 0 17 0 C17 5.61 17 11.22 17 17 C21.95 17 26.9 17 32 17 C32 11.72 32 6.44 32 1 C37.61 1 43.22 1 49 1 C49 17.5 49 34 49 51 C43.39 51 37.78 51 32 51 C32 45.39 32 39.78 32 34 C27.05 34 22.1 34 17 34 C17 39.61 17 45.22 17 51 C11.39 51 5.78 51 0 51 C0 34.17 0 17.34 0 0 Z " fill="#090909" transform="translate(143,64)"/>
<path d="M0 0 C13.2 0 26.4 0 40 0 C40 6.52899964 39.99149456 12.45899121 39.34375 18.85546875 C39.27716187 19.52798172 39.21057373 20.20049469 39.14196777 20.89338684 C38.93303208 22.99196967 38.71668732 25.08970499 38.5 27.1875 C38.35497149 28.63080949 38.21043692 30.07416871 38.06640625 31.51757812 C37.71661809 35.01230919 37.36019253 38.50632409 37 42 C31.6217691 43.83871142 26.24803742 45.54677425 20.75 47 C19.58984375 47.309375 18.4296875 47.61875 17.234375 47.9375 C11.50960906 49.37397263 5.75108752 50.67282596 0 52 C0 34.84 0 17.68 0 0 Z " fill="#F06529" transform="translate(250,292)"/>
<path d="M0 0 C15.18 0 30.36 0 46 0 C46 10.56 46 21.12 46 32 C31.81 32 17.62 32 3 32 C1.24197864 20.57286119 0 11.48468046 0 0 Z " fill="#E34D26" transform="translate(204,226)"/>
<path d="M0 0 C15.18 0 30.36 0 46 0 C46 5.28 46 10.56 46 16 C41.05 16 36.1 16 31 16 C31 26.89 31 37.78 31 49 C25.72 49 20.44 49 15 49 C15 38.11 15 27.22 15 16 C10.05 16 5.1 16 0 16 C0 10.72 0 5.44 0 0 Z " fill="#000000" transform="translate(199,65)"/>
<path d="M0 0 C5.61 0 11.22 0 17 0 C17 10.89 17 21.78 17 33 C24.59 33 32.18 33 40 33 C40 38.61 40 44.22 40 50 C26.8 50 13.6 50 0 50 C0 33.5 0 17 0 0 Z " fill="#090909" transform="translate(317,65)"/>
</svg>
