<?xml version="1.0" encoding="UTF-8"?>
<svg version="1.1" xmlns="http://www.w3.org/2000/svg" width="2048" height="2048">
<path d="M0 0 C675.84 0 1351.68 0 2048 0 C2048 675.84 2048 1351.68 2048 2048 C1372.16 2048 696.32 2048 0 2048 C0 1372.16 0 696.32 0 0 Z " fill="#F6DE1D" transform="translate(0,0)"/>
<path d="M0 0 C3.66681184 0.01704314 7.33296762 0.00694783 10.99975681 -0.01032829 C36.89228097 -0.11348032 62.24645091 1.8075228 87.59936523 7.39111328 C88.48736816 7.58463379 89.37537109 7.7781543 90.2902832 7.97753906 C138.41388057 18.5926605 182.13665717 41.10331547 217.59936523 75.39111328 C218.25259766 76.02243164 218.90583008 76.65375 219.57885742 77.30419922 C227.78795433 85.28150986 235.57931779 93.33005205 242.59936523 102.39111328 C243.79819336 103.84710937 243.79819336 103.84710937 245.02124023 105.33251953 C251.09512654 112.75044874 256.52474484 120.54546687 261.84936523 128.51611328 C262.51073486 129.50506592 263.17210449 130.49401855 263.85351562 131.51293945 C267.21451447 136.59759222 270.4838156 141.73516554 273.64624023 146.94580078 C274.23759766 147.91759277 274.82895508 148.88938477 275.43823242 149.890625 C276.59936523 152.39111328 276.59936523 152.39111328 275.59936523 155.39111328 C273.86303711 156.76293945 273.86303711 156.76293945 271.56811523 158.18408203 C270.70726318 158.72379639 269.84641113 159.26351074 268.95947266 159.81958008 C268.01563721 160.40006104 267.07180176 160.98054199 266.09936523 161.57861328 C264.08469184 162.83846967 262.07038294 164.09890906 260.05639648 165.35986328 C258.99888184 166.01857422 257.94136719 166.67728516 256.85180664 167.35595703 C251.47088837 170.7229691 246.12979522 174.15176007 240.78686523 177.57861328 C239.19455078 178.59797974 239.19455078 178.59797974 237.57006836 179.63793945 C231.07722504 183.79571692 224.59738732 187.97288976 218.12939453 192.16918945 C210.71350477 196.97547086 203.26380602 201.72884578 195.81811523 206.48876953 C189.24337239 210.69373249 182.68112373 214.91689943 176.13500977 219.16625977 C171.94334359 221.88382807 167.73986493 224.58219792 163.52905273 227.27001953 C162.45486084 227.95588135 161.38066895 228.64174316 160.27392578 229.34838867 C158.09139449 230.74091308 155.90797684 232.13204934 153.72363281 233.52172852 C149.03960382 236.51007058 144.37621602 239.51143254 139.80639648 242.67236328 C139.11433105 243.14923584 138.42226562 243.6261084 137.70922852 244.11743164 C136.46920064 244.97934078 135.23644123 245.85184876 134.01293945 246.73706055 C130.12141813 249.44260001 130.12141813 249.44260001 127.55957031 249.18994141 C124.06237481 247.76475475 122.81094338 244.0188144 121.09936523 240.82861328 C115.98328478 231.73965159 110.10553074 223.52953828 103.59936523 215.39111328 C103.10678223 214.77075195 102.61419922 214.15039062 102.10668945 213.51123047 C81.9757001 188.39232524 53.53834958 172.21070813 21.34643555 168.62255859 C-9.00974747 166.06499892 -37.94797137 170.29598558 -61.95922852 190.21142578 C-75.83265626 202.59762207 -84.76684021 218.92492646 -87.40063477 237.39111328 C-87.64116415 242.09747156 -87.63163506 246.80418698 -87.65063477 251.51611328 C-87.67125977 252.77166016 -87.69188477 254.02720703 -87.71313477 255.32080078 C-87.80325667 277.04017859 -79.14125549 297.18675736 -64.08422852 312.71142578 C-49.33445413 327.43973033 -30.79965919 338.07043296 -12.12866211 347.09936523 C-8.7568724 348.73161535 -5.39097649 350.37544467 -2.02685547 352.0234375 C11.98068016 358.85007568 26.13798822 365.18231032 40.50549316 371.21090698 C46.40901624 373.68957217 52.30267704 376.19149846 58.19702148 378.69189453 C59.9385701 379.43011192 59.9385701 379.43011192 61.71530151 380.1832428 C127.77599403 408.22148027 195.93128401 438.17468413 249.32202148 487.30126953 C250.85217287 488.70543933 252.40224558 490.08817744 253.97045898 491.44970703 C288.70111451 521.73483865 312.91509202 564.13482285 324.59936523 608.39111328 C324.83494141 609.27605469 325.07051758 610.16099609 325.31323242 611.07275391 C338.63593948 662.57708505 339.22293449 725.09436091 321.29272461 775.44091797 C320.54473005 777.54478436 319.83073666 779.65888589 319.11499023 781.77392578 C312.55847335 800.72163971 303.87073817 818.79965231 292.59936523 835.39111328 C292.20426758 835.98150391 291.80916992 836.57189453 291.40209961 837.18017578 C277.95501348 857.16373422 260.84392501 875.8832595 241.59936523 890.39111328 C240.79329834 891.01179688 240.79329834 891.01179688 239.97094727 891.64501953 C207.99840616 916.22687798 171.23710223 932.43812088 132.59936523 943.39111328 C131.7550293 943.63555176 130.91069336 943.87999023 130.04077148 944.13183594 C107.43635305 950.64127745 84.07029142 954.79290484 60.58764648 956.14501953 C57.70006294 956.31419185 57.70006294 956.31419185 55.32510376 956.89840698 C52.16787003 957.46911064 49.20832914 957.51830185 45.99926758 957.52050781 C44.67953949 957.52365997 43.3598114 957.52681213 42.00009155 957.53005981 C40.56182828 957.52826721 39.1235653 957.52621556 37.68530273 957.52392578 C36.19096867 957.52460078 34.69663472 957.52557244 33.20230103 957.52682495 C30.06348632 957.52829905 26.92470006 957.52616086 23.78588867 957.52148438 C19.81998161 957.51585541 15.85414255 957.51912969 11.88823795 957.52490807 C-9.06679782 957.55114027 -29.79542715 957.45403251 -50.58813477 954.51611328 C-51.88332031 954.33757813 -53.17850586 954.15904297 -54.51293945 953.97509766 C-63.53689514 952.70897564 -72.48564301 951.28976558 -81.40063477 949.39111328 C-82.06788574 949.25237793 -82.73513672 949.11364258 -83.42260742 948.97070312 C-138.5754385 937.46308459 -190.19384872 916.43539463 -235.40063477 882.39111328 C-235.97185059 881.96266113 -236.54306641 881.53420898 -237.1315918 881.09277344 C-244.98651326 875.16318387 -252.34522309 868.8502703 -259.50610352 862.10205078 C-261.82578817 859.92949862 -264.17196843 857.8288124 -266.58813477 855.76611328 C-274.12727639 849.22900946 -280.9502919 841.98996441 -287.40063477 834.39111328 C-288.19856445 833.48232422 -288.99649414 832.57353516 -289.81860352 831.63720703 C-297.63964535 822.66618131 -304.58358661 813.13885504 -311.40063477 803.39111328 C-312.06361572 802.45211182 -312.06361572 802.45211182 -312.73999023 801.49414062 C-318.45833891 793.35983987 -323.53096149 784.89809031 -328.46313477 776.26611328 C-329.03612305 775.26942627 -329.60911133 774.27273926 -330.19946289 773.24584961 C-330.73120117 772.3012085 -331.26293945 771.35656738 -331.81079102 770.38330078 C-332.28653564 769.54138184 -332.76228027 768.69946289 -333.25244141 767.83203125 C-334.42567447 765.33788195 -334.98106459 763.10605039 -335.40063477 760.39111328 C-334.40773438 759.81949463 -334.40773438 759.81949463 -333.39477539 759.23632812 C-321.37961814 752.31706947 -309.37119937 745.38734152 -297.40063477 738.39111328 C-289.08312471 733.53007014 -280.74857818 728.69970222 -272.40063477 723.89111328 C-260.04040959 716.7702492 -247.7159615 709.5892795 -235.40063477 702.39111328 C-223.28039108 695.30697085 -211.15512786 688.23154418 -199.00262451 681.20285034 C-197.31841812 680.22836775 -195.63514871 679.25226633 -193.9519043 678.27612305 C-192.92178223 677.68114014 -191.89166016 677.08615723 -190.83032227 676.47314453 C-189.47269775 675.68774292 -189.47269775 675.68774292 -188.08764648 674.88647461 C-185.23286667 673.29774788 -182.33253511 671.83177453 -179.40063477 670.39111328 C-178.85874512 671.2196582 -178.85874512 671.2196582 -178.3059082 672.06494141 C-167.2297201 688.95560349 -155.73700617 705.20642796 -142.40063477 720.39111328 C-141.5330957 721.38240234 -140.66555664 722.37369141 -139.77172852 723.39501953 C-134.93887825 728.81814159 -129.98853721 733.75969864 -124.40063477 738.39111328 C-123.53051758 739.14908203 -122.66040039 739.90705078 -121.76391602 740.68798828 C-92.66213619 765.71007935 -55.75122248 782.0468378 -17.40063477 785.39111328 C-16.25208008 785.50068359 -15.10352539 785.61025391 -13.92016602 785.72314453 C27.77638776 789.01844646 74.87995776 784.87976068 108.59936523 757.39111328 C109.45014648 756.70404297 110.30092773 756.01697266 111.17749023 755.30908203 C121.78717326 746.27783344 129.25122508 735.21323738 134.59936523 722.39111328 C134.85766113 721.78267578 135.11595703 721.17423828 135.38208008 720.54736328 C143.52805146 700.4571063 141.77743816 675.08485862 133.53686523 655.32861328 C106.80331889 595.80009522 18.07752974 572.36358556 -37.00756836 548.8515625 C-92.19972384 525.26877233 -148.43787225 499.37361369 -192.72094727 457.88720703 C-194.99173927 455.77199407 -197.29592519 453.72389912 -199.65063477 451.70361328 C-239.34491099 417.18685135 -263.00936764 367.10137746 -273.40063477 316.39111328 C-273.58045898 315.55281982 -273.7602832 314.71452637 -273.94555664 313.85083008 C-280.91310768 280.69866591 -281.70900768 242.64221057 -275.40063477 209.39111328 C-275.12909778 207.76123784 -274.85958127 206.13102455 -274.59204102 204.50048828 C-264.96876566 148.8170443 -233.8064006 96.38285676 -189.40063477 61.39111328 C-188.41321289 60.59833984 -187.42579102 59.80556641 -186.40844727 58.98876953 C-164.20454806 41.46374684 -139.00650503 27.94674274 -112.40063477 18.39111328 C-111.28350098 17.9823999 -111.28350098 17.9823999 -110.14379883 17.56542969 C-98.94647393 13.50279171 -87.5848 10.5352874 -75.96166992 7.96142578 C-73.54521414 7.42330941 -71.13506715 6.86266514 -68.72485352 6.29736328 C-45.97634339 1.08472109 -23.24547651 -0.10900724 0 0 Z " fill="#000000" transform="translate(1555.400634765625,929.60888671875)"/>
<path d="M0 0 C63.36 0 126.72 0 192 0 C192.06039235 79.23971207 192.06039235 79.23971207 192.07695007 103.77075195 C192.07783807 105.08306247 192.07783807 105.08306247 192.07874402 106.42188431 C192.09863517 135.89738421 192.11438051 165.37288481 192.12702942 194.84838867 C192.12744359 195.8110508 192.12785776 196.77371293 192.12828448 197.76554663 C192.1372651 218.69134646 192.14557538 239.61714651 192.15319599 260.54294688 C192.1569377 270.80630057 192.1608274 281.0696542 192.16479492 291.33300781 C192.1651872 292.35428561 192.16557948 293.37556341 192.16598364 294.42778902 C192.17874701 327.47636561 192.20126542 360.52492672 192.22889166 393.57349394 C192.25725081 427.56089 192.27567053 461.5482775 192.28174497 495.53568519 C192.28260932 500.34614732 192.28358623 505.15660943 192.28463173 509.96707153 C192.284834 510.91375523 192.28503627 511.86043892 192.28524467 512.83581 C192.28877733 528.0192567 192.30265759 543.2026768 192.3204961 558.38611269 C192.3382453 573.68422476 192.3448822 588.98231071 192.34050413 604.2804327 C192.33823808 613.34751182 192.34416356 622.41449463 192.36239263 631.48155619 C192.37377965 637.56625441 192.37389643 643.65089078 192.36549544 649.73559355 C192.3610369 653.18474558 192.36259773 656.63357418 192.37464955 660.08272827 C192.45613592 684.87543131 191.17991142 709.94138121 186.3125 734.3125 C186.18816589 734.95403015 186.06383179 735.5955603 185.93572998 736.25653076 C183.23712695 750.12249278 179.44697617 763.59966531 175 777 C174.67773438 777.97646484 174.35546875 778.95292969 174.0234375 779.95898438 C165.69052112 804.83917576 154.10405276 828.20447732 138 849 C137.35546875 849.83660156 136.7109375 850.67320312 136.046875 851.53515625 C114.92870596 878.43172193 89.29470617 899.21620351 59 915 C58.35836914 915.33451172 57.71673828 915.66902344 57.05566406 916.01367188 C-2.84281706 946.72623641 -75.99212915 952.74772745 -142 945 C-143.43083871 944.85269377 -144.86182208 944.70678363 -146.29296875 944.5625 C-180.52049629 940.77821265 -214.04949203 931.03066778 -245 916 C-245.83176758 915.59974609 -246.66353516 915.19949219 -247.52050781 914.78710938 C-268.65145212 904.50894037 -288.30407324 891.46151492 -306 876 C-306.52416504 875.54351074 -307.04833008 875.08702148 -307.58837891 874.61669922 C-319.9819284 863.73117048 -331.9367112 852.08740105 -342 839 C-343.02699221 837.68982854 -344.05436466 836.37995507 -345.08203125 835.0703125 C-357.22245369 819.50328752 -367.47782878 803.29166445 -377 786 C-377.55905029 784.98921387 -377.55905029 784.98921387 -378.12939453 783.95800781 C-383.05331716 774.96649693 -383.05331716 774.96649693 -382.89453125 772.08813477 C-381.54474897 768.93729201 -379.40313546 768.03962291 -376.48046875 766.3125 C-375.63238396 765.80420654 -375.63238396 765.80420654 -374.76716614 765.28564453 C-372.91400843 764.1786432 -371.05100448 763.08947721 -369.1875 762 C-367.8944701 761.23166604 -366.6021569 760.46212472 -365.31054688 759.69140625 C-362.72953814 758.15364977 -360.14481753 756.62248813 -357.55615234 755.09765625 C-353.02101211 752.42570217 -348.51045545 749.71334699 -344 747 C-342.40626754 746.04554363 -340.81251705 745.09111736 -339.21875 744.13671875 C-332.96550701 740.38452907 -326.73258248 736.59886411 -320.5 732.8125 C-319.910979 732.45467438 -319.32195801 732.09684875 -318.71508789 731.72817993 C-314.47627017 729.15286852 -310.23807026 726.57654125 -306 724 C-301.16708024 721.06181909 -296.33390522 718.1240594 -291.5 715.1875 C-290.91033447 714.82927155 -290.32066895 714.47104309 -289.71313477 714.10195923 C-281.72184484 709.24819932 -273.71769212 704.41670655 -265.69165039 699.62060547 C-260.66331583 696.61156407 -255.6535421 693.57336732 -250.65234375 690.51953125 C-249.36394428 689.7337043 -248.07553281 688.94789704 -246.78710938 688.16210938 C-244.25643714 686.61851758 -241.72821542 685.0710077 -239.20117188 683.52148438 C-238.03915188 682.81235351 -236.87704653 682.10336249 -235.71484375 681.39453125 C-234.68480225 680.76393799 -233.65476074 680.13334473 -232.59350586 679.48364258 C-230 678 -230 678 -227 677 C-223.73350676 681.61151987 -220.77866395 686.32739009 -218.07055664 691.28955078 C-199.06744378 726.08886579 -174.34192642 759.30646382 -134.9375 771.3125 C-105.26718198 779.01092327 -68.89225434 776.82514384 -41.75 761.75 C-26.71869297 752.44775687 -17.48732764 739.2372879 -11 723 C-10.55914063 721.8965625 -10.11828125 720.793125 -9.6640625 719.65625 C-2.99767799 701.39439669 -0.84254035 681.46181094 -0.8613348 662.1203661 C-0.85707147 660.39438187 -0.85707147 660.39438187 -0.85272202 658.63352928 C-0.84441328 654.78553013 -0.84310981 650.93756124 -0.84178162 647.08955383 C-0.83776168 644.29994284 -0.83225474 641.51033522 -0.82681805 638.72072667 C-0.81579082 632.65972306 -0.80840095 626.59872357 -0.80341911 620.5377121 C-0.79599474 611.5252713 -0.78290739 602.51284489 -0.76867336 593.50041259 C-0.74488683 578.33858485 -0.72567257 563.17675455 -0.70907402 548.01491737 C-0.69262699 533.00516725 -0.67414171 517.99542191 -0.65294075 502.98567772 C-0.65162314 502.05203613 -0.65030554 501.11839453 -0.648948 500.15646077 C-0.64224582 495.414869 -0.63550728 490.67327729 -0.62875474 485.93168559 C-0.58100555 452.35656131 -0.53781654 418.78143256 -0.49731445 385.20629883 C-0.45795946 352.59073563 -0.41653569 319.97517612 -0.37231445 287.35961914 C-0.37095192 286.35407224 -0.36958939 285.34852535 -0.36818558 284.31250733 C-0.35450007 274.21429155 -0.34077255 264.11607582 -0.32701423 254.01786014 C-0.29898851 233.44706232 -0.27124325 212.87626413 -0.2436676 192.3054657 C-0.2423994 191.35967635 -0.2411312 190.41388701 -0.23982458 189.43943738 C-0.20097159 160.45289728 -0.1633072 131.4663558 -0.1268158 102.47981262 C-0.1257794 101.65693415 -0.12474301 100.83405568 -0.12367522 99.9862415 C-0.08171667 66.65749525 -0.04101651 33.32874743 0 0 Z " fill="#000000" transform="translate(923,940)"/>
</svg>
