<?xml version="1.0" encoding="UTF-8"?>
<svg version="1.1" xmlns="http://www.w3.org/2000/svg" width="500" height="500">
<path d="M0 0 C165 0 330 0 500 0 C500 165 500 330 500 500 C335 500 170 500 0 500 C0 335 0 170 0 0 Z " fill="#19174B" transform="translate(0,0)"/>
<path d="M0 0 C1.09238251 0.00063635 1.09238251 0.00063635 2.20683336 0.00128555 C20.63790136 0.01220751 39.06895324 0.03200619 57.5 0.0625 C54.10017593 3.57506627 50.43638666 6.24793524 46.375 8.9375 C37.07351386 15.21152401 28.27988318 22.08503616 19.5 29.0625 C18.50742187 29.85011719 17.51484375 30.63773438 16.4921875 31.44921875 C14.89272436 32.72527947 13.29610887 34.00492244 11.703125 35.2890625 C10.19889535 36.49991403 8.68815642 37.70271222 7.171875 38.8984375 C0.39013719 44.25819803 -6.15773584 49.86761681 -12.69873047 55.515625 C-14.4273077 57.00007409 -16.16627032 58.4710848 -17.91015625 59.9375 C-26.69215872 67.34265239 -35.05657828 75.13802809 -43.37841797 83.05419922 C-45.40931801 84.97665995 -47.45305748 86.88401185 -49.50390625 88.78515625 C-56.81531804 95.56688681 -63.99867505 102.46010055 -71.0625 109.5 C-72.16936157 110.59997314 -72.16936157 110.59997314 -73.29858398 111.72216797 C-77.36101602 115.79617124 -81.23193066 119.97472019 -84.98803711 124.33227539 C-86.74001827 126.33716647 -88.58490963 128.21344723 -90.5 130.0625 C-94.38021703 133.8983717 -97.94951511 137.92247564 -101.5 142.0625 C-102.46805642 143.17898717 -103.43687329 144.29481521 -104.40625 145.41015625 C-107.20848897 148.63474936 -110.00531421 151.86397127 -112.79931641 155.09570312 C-113.9155563 156.38660588 -115.03239868 157.67698797 -116.14990234 158.96679688 C-122.12265166 165.86413719 -127.98653114 172.7886331 -133.5 180.0625 C-134.67753554 181.5930956 -135.85515025 183.12363103 -137.03417969 184.65307617 C-138.3256776 186.32960621 -139.61409643 188.00847142 -140.90234375 189.6875 C-142.57251168 191.86202248 -144.25329445 194.02671689 -145.94140625 196.1875 C-146.74449219 197.21875 -147.54757813 198.25 -148.375 199.3125 C-148.77775146 199.82868896 -149.18050293 200.34487793 -149.59545898 200.87670898 C-152.05684194 204.06981541 -154.38780364 207.32683087 -156.65625 210.66015625 C-157.19137207 211.44165039 -157.72649414 212.22314453 -158.27783203 213.02832031 C-159.32732395 214.57031303 -160.3651804 216.12030169 -161.39013672 217.67871094 C-161.86725098 218.37899414 -162.34436523 219.07927734 -162.8359375 219.80078125 C-163.25407715 220.43024658 -163.6722168 221.05971191 -164.10302734 221.70825195 C-165.5 223.0625 -165.5 223.0625 -169.5 223.0625 C-176.06594543 218.8967111 -180.99193427 212.26874972 -185.5 206.0625 C-186.19480469 205.11761719 -186.88960937 204.17273438 -187.60546875 203.19921875 C-203.70774508 179.42343738 -201.9514127 146.85858328 -201.80418181 119.34054041 C-201.78514194 115.16729926 -201.78364347 110.99404815 -201.78010559 106.82077026 C-201.77086389 98.95555511 -201.74635952 91.09046841 -201.71605712 83.22530925 C-201.68226441 74.25521773 -201.66596527 65.28511935 -201.65097082 56.31497979 C-201.61980073 37.89741432 -201.5671975 19.47996756 -201.5 1.0625 C-182.89592733 0.88494658 -164.2917587 0.71923761 -145.6875 0.5625 C-144.98298077 0.55655146 -144.27846153 0.55060292 -143.55259323 0.54447412 C-95.70131159 0.14128457 -47.85293982 -0.02871855 0 0 Z " fill="#48C4AF" transform="translate(262.5,196.9375)"/>
<path d="M0 0 C2.62984999 0.01493635 5.25972237 0.02631677 7.88960266 0.03430176 C14.08049693 0.05904819 20.27024477 0.12453123 26.46063691 0.20509768 C34.20856297 0.30372002 41.95667993 0.34717482 49.70507812 0.390625 C63.50870281 0.46827154 77.3098303 0.62856165 91.11328125 0.78125 C91.11328125 19.59125 91.11328125 38.40125 91.11328125 57.78125 C86.09737793 57.71728027 81.08147461 57.65331055 75.91357422 57.58740234 C59.31765362 57.38895175 42.72221342 57.28913731 26.12521172 57.23978233 C16.06463975 57.2074685 6.00639925 57.14177295 -4.05322266 56.99609375 C-12.82655095 56.86912833 -21.59766542 56.80621863 -30.37194335 56.81862414 C-35.01452405 56.8229927 -39.65204954 56.79638813 -44.29358292 56.69291306 C-64.41310368 55.29171931 -64.41310368 55.29171931 -82.1239624 62.60968018 C-85.29782099 66.23049709 -87.58391339 70.07385123 -89.65908146 74.4030304 C-91.7645849 78.48188136 -94.6021895 82.02303237 -97.38671875 85.65625 C-98.46012366 87.14788913 -99.53035038 88.64183661 -100.59375 90.140625 C-101.1295166 90.89537109 -101.6652832 91.65011719 -102.21728516 92.42773438 C-102.76819824 93.20439453 -103.31911133 93.98105469 -103.88671875 94.78125 C-104.4698584 95.59916016 -105.05299805 96.41707031 -105.65380859 97.25976562 C-112.96539098 107.52482428 -120.01410761 117.87740973 -126.57226562 128.63964844 C-128.00952561 130.98133577 -129.46976777 133.30764433 -130.93359375 135.6328125 C-147.28987481 161.67575109 -162.2972516 188.70530764 -174.88671875 216.78125 C-175.31984375 217.72097656 -175.75296875 218.66070312 -176.19921875 219.62890625 C-179.1485297 226.03444096 -181.91734112 232.50865677 -184.65234375 239.0078125 C-185.88671875 241.78125 -185.88671875 241.78125 -186.88671875 242.78125 C-206.06104039 243.5903725 -226.8444069 242.51971391 -243.88671875 232.78125 C-243.88671875 232.12125 -243.88671875 231.46125 -243.88671875 230.78125 C-244.62921875 230.69875 -245.37171875 230.61625 -246.13671875 230.53125 C-249.41425128 229.63737749 -250.60230888 228.22185884 -252.88671875 225.78125 C-252.11328125 224.75386719 -251.33984375 223.72648438 -250.54296875 222.66796875 C-243.59037111 213.4266991 -243.59037111 213.4266991 -236.76171875 204.09375 C-224.90100993 187.72743311 -212.03194684 172.12561121 -198.88671875 156.78125 C-198.3870459 156.19520996 -197.88737305 155.60916992 -197.37255859 155.00537109 C-189.69921578 146.01291111 -181.79426285 137.28014044 -173.67822266 128.68603516 C-171.88785892 126.78246227 -170.11027782 124.86772726 -168.3359375 122.94921875 C-161.3420702 115.40253259 -154.21328865 108.00614976 -146.94921875 100.71875 C-145.77806519 99.54070801 -145.77806519 99.54070801 -144.58325195 98.33886719 C-140.38439794 94.15122208 -136.09304575 90.14477551 -131.59936523 86.27563477 C-129.59941115 84.53055723 -127.73001263 82.6903758 -125.88671875 80.78125 C-122.73691845 77.58863688 -119.47452386 74.60963721 -116.07421875 71.6875 C-113.53160476 69.47179352 -111.05561677 67.19026408 -108.57421875 64.90625 C-104.08874323 60.8156444 -99.48091331 56.93307157 -94.7578125 53.12109375 C-92.2088758 51.04379704 -89.69907209 48.9312024 -87.19970703 46.79516602 C-79.92292023 40.57743695 -72.46124543 34.63115068 -64.88671875 28.78125 C-64.18933594 28.24145508 -63.49195313 27.70166016 -62.7734375 27.14550781 C-46.55061354 14.60379532 -46.55061354 14.60379532 -40.30220032 10.52722168 C-37.84990904 8.87052019 -37.84990904 8.87052019 -35.9740448 6.74743652 C-26.26448216 -2.61109353 -12.53015481 -0.20909803 0 0 Z " fill="#6AFB34" transform="translate(347.88671875,195.21875)"/>
<path d="M0 0 C0.686439 0.00042423 1.372878 0.00084846 2.08011818 0.00128555 C19.38675903 0.01216673 36.69338187 0.03222111 54 0.0625 C51.3283706 1.84358627 49.83735574 2.51373534 46.83203125 3.28125 C45.61483398 3.59642578 45.61483398 3.59642578 44.37304688 3.91796875 C43.52806641 4.13066406 42.68308594 4.34335938 41.8125 4.5625 C40.98685547 4.77519531 40.16121094 4.98789063 39.31054688 5.20703125 C37.66724826 5.62918676 36.02288076 6.04720459 34.37744141 6.4609375 C32.83038648 6.85238783 31.28560271 7.25296472 29.74365234 7.6640625 C26.33931078 8.56031557 23.55016609 9.0625 20 9.0625 C19.90864273 9.68825424 19.81728546 10.31400848 19.72315979 10.95872498 C19.48451706 11.65297073 19.24587433 12.34721649 19 13.0625 C16.19937177 14.36486394 13.56980305 15.3843956 10.65234375 16.34765625 C8.90430511 16.95712099 7.15676 17.56800278 5.40966797 18.18017578 C4.50996277 18.49061829 3.61025757 18.80106079 2.68328857 19.12091064 C-1.4714977 20.57886137 -5.57681844 22.15886414 -9.68359375 23.74609375 C-10.4798819 24.05207993 -11.27617004 24.3580661 -12.09658813 24.67332458 C-14.54419146 25.61391443 -16.99087234 26.55687559 -19.4375 27.5 C-20.28352783 27.82543793 -21.12955566 28.15087585 -22.0012207 28.48617554 C-32.45350165 32.50690017 -42.90061262 36.53758602 -53.25561523 40.80444336 C-57.46051261 42.52183824 -61.61976991 43.89329796 -66 45.0625 C-66 45.7225 -66 46.3825 -66 47.0625 C-83.34010152 54.0625 -83.34010152 54.0625 -86 54.0625 C-86 54.7225 -86 55.3825 -86 56.0625 C-86.51046875 56.28164062 -87.0209375 56.50078125 -87.546875 56.7265625 C-93.04326854 59.12392564 -98.38952343 61.74371606 -103.71484375 64.5 C-106.2888036 65.72423774 -108.80505601 66.77043616 -111.4609375 67.78515625 C-118.44069388 70.54003161 -125.04057568 74.0384028 -131.6875 77.5 C-132.70387543 78.02681366 -132.70387543 78.02681366 -133.74078369 78.56427002 C-150.93923169 87.48420805 -167.74713559 97.0542197 -184.40625 106.94140625 C-185.6041271 107.64850453 -186.8020436 108.35553608 -188 109.0625 C-188.64324219 109.44647949 -189.28648437 109.83045898 -189.94921875 110.22607422 C-194.77400263 113.0625 -194.77400263 113.0625 -197 113.0625 C-197 125.9325 -197 138.8025 -197 152.0625 C-197.33 152.0625 -197.66 152.0625 -198 152.0625 C-198 102.2325 -198 52.4025 -198 1.0625 C-126.07817689 0.42319491 -126.07817689 0.42319491 -106.734375 0.28515625 C-106.01232471 0.27997522 -105.29027441 0.27479418 -104.5463438 0.26945615 C-69.69762531 0.02094966 -34.84948281 -0.02219153 0 0 Z " fill="#1E69D7" transform="translate(259,196.9375)"/>
<path d="M0 0 C1.15165146 -0.00073013 2.30330292 -0.00146027 3.48985291 -0.00221252 C7.29408973 0.00126915 11.09710026 0.04016115 14.90112305 0.0793457 C17.53955924 0.08867168 20.17800408 0.0957888 22.81645203 0.1007843 C29.0497068 0.1163101 35.28252186 0.15732075 41.51558322 0.20753175 C49.31002763 0.26895442 57.10454382 0.29628236 64.89916992 0.32348633 C78.79990288 0.37215151 92.69967666 0.47231537 106.6003418 0.56762695 C106.6003418 18.71762695 106.6003418 36.86762695 106.6003418 55.56762695 C54.7903418 55.56762695 2.9803418 55.56762695 -50.3996582 55.56762695 C-42.39558534 42.98979816 -42.39558534 42.98979816 -37.7121582 37.25512695 C-34.38197367 33.14027061 -31.32768085 28.98554718 -28.3996582 24.56762695 C-26.72723452 22.31027519 -25.00382925 20.09418425 -23.2746582 17.88012695 C-18.33621755 12.32177896 -18.33621755 12.32177896 -16.3996582 5.56762695 C-12.11158967 -0.79428736 -6.98268639 -0.11564601 0 0 Z " fill="#6BFE30" transform="translate(331.399658203125,196.432373046875)"/>
<path d="M0 0 C-1.00740234 0.45826172 -1.00740234 0.45826172 -2.03515625 0.92578125 C-5.69674959 2.60302723 -9.35018472 4.29732017 -13 6 C-14.31049316 6.61125732 -14.31049316 6.61125732 -15.64746094 7.23486328 C-26.30260374 12.2222602 -36.82118988 17.25513493 -46.953125 23.2421875 C-49.89844977 24.94141333 -52.87777663 26.45620535 -55.9375 27.9375 C-71.61168208 35.66160545 -86.23647908 45.70187243 -101 55 C-101.70576172 55.44375977 -102.41152344 55.88751953 -103.13867188 56.34472656 C-119.88198266 66.89567002 -136.03023829 78.32117894 -152 90 C-152.79470703 90.57927246 -153.58941406 91.15854492 -154.40820312 91.75537109 C-169.32709439 102.63546291 -183.79517236 113.93115065 -198.015625 125.70703125 C-200.3917279 127.67456584 -202.77331942 129.6341193 -205.171875 131.57421875 C-211.29544803 136.53016133 -217.1691202 141.70460916 -223 147 C-229.66666667 153 -229.66666667 153 -232 153 C-232 153.66 -232 154.32 -232 155 C-233.36328125 156.375 -233.36328125 156.375 -235.3125 158 C-238.93967795 161.08017086 -242.48708828 164.22869449 -246 167.4375 C-246.94875 168.30246094 -247.8975 169.16742188 -248.875 170.05859375 C-249.57625 170.69925781 -250.2775 171.33992187 -251 172 C-253 171 -253 171 -253.62841797 169.12988281 C-255.70352204 157.76552664 -255.21622763 146.25673049 -255.125 134.75 C-255.1149518 132.54036863 -255.1058292 130.33073285 -255.09765625 128.12109375 C-255.07578478 122.74729838 -255.04245259 117.37367014 -255 112 C-254.32267822 111.63648438 -253.64535645 111.27296875 -252.94750977 110.8984375 C-246.51045707 107.41925094 -240.20595956 103.77215471 -233.9375 100 C-221.50520659 92.59582629 -208.7971182 85.74902791 -196 79 C-194.79214965 78.36150091 -193.58430468 77.72299163 -192.37646484 77.08447266 C-189.34001566 75.48094038 -186.29981056 73.88473564 -183.25668335 72.29391479 C-181.55569786 71.40413535 -179.85655179 70.51084226 -178.1574707 69.61743164 C-172.56770551 66.71362973 -167.00483098 64.06502225 -161.10205078 61.85839844 C-159.04901879 61.02001743 -157.26234659 60.03327648 -155.375 58.875 C-151.53286761 56.74048201 -148.27996947 55.90104621 -144 55 C-144 54.34 -144 53.68 -144 53 C-126.65989848 46 -126.65989848 46 -124 46 C-124 45.34 -124 44.68 -124 44 C-122.86949219 43.55011719 -121.73898438 43.10023438 -120.57421875 42.63671875 C-118.94521791 41.98721636 -117.31632124 41.33745267 -115.6875 40.6875 C-114.80392822 40.33502197 -113.92035645 39.98254395 -113.01000977 39.61938477 C-107.7728862 37.52498584 -102.54554902 35.40865705 -97.328125 33.265625 C-85.01884722 28.21081123 -72.69526958 23.29910837 -60.17431641 18.79394531 C-57.90321358 17.96465872 -55.64422082 17.10777802 -53.38671875 16.2421875 C-52.64768311 15.95964111 -51.90864746 15.67709473 -51.1472168 15.38598633 C-49.75789615 14.8531633 -48.36993518 14.31677548 -46.98364258 13.77612305 C-44.15675343 12.69668436 -42.05679321 12 -39 12 C-38.67 10.68 -38.34 9.36 -38 8 C-36.58074219 7.65388672 -36.58074219 7.65388672 -35.1328125 7.30078125 C-33.79674311 6.97188949 -32.46081735 6.64241394 -31.125 6.3125 C-30.41698242 6.13823486 -29.70896484 5.96396973 -28.97949219 5.78442383 C-24.98720601 4.78896618 -21.02152145 3.73427225 -17.0703125 2.5859375 C-16.26577637 2.35350342 -15.46124023 2.12106934 -14.63232422 1.8815918 C-13.06636466 1.4253484 -11.50276913 0.96089635 -9.94189453 0.48754883 C-6.20053654 -0.59909867 -3.72002646 -1.16675429 0 0 Z " fill="#3194FD" transform="translate(317,198)"/>
<path d="M0 0 C1.3014521 0.00085602 2.60290421 0.00171204 3.94379425 0.00259399 C19.6292112 0.01370267 35.31460645 0.03332999 51 0.0625 C51 0.3925 51 0.7225 51 1.0625 C49.69289063 1.18367187 48.38578125 1.30484375 47.0390625 1.4296875 C24.34158438 3.54813591 24.34158438 3.54813591 1.75 6.5625 C0.96351074 6.68101318 0.17702148 6.79952637 -0.63330078 6.92163086 C-4.93591891 7.60709014 -8.8887353 8.57121622 -13 10.0625 C-19.5280806 12.15806873 -26.04581398 13.44080237 -32.8125 14.4375 C-42.7797092 15.91353258 -52.51923125 18.12658501 -62.32080078 20.43945312 C-64.93762087 21.04799375 -67.55853455 21.63126039 -70.18359375 22.203125 C-70.99755615 22.38045166 -71.81151855 22.55777832 -72.65014648 22.74047852 C-74.16351927 23.06862491 -75.67732361 23.39479047 -77.19165039 23.71850586 C-80.21052885 24.37771061 -83.13003848 25.10651047 -86.05859375 26.09765625 C-89.37887118 27.1867778 -92.61458221 27.74691096 -96.0625 28.3125 C-108.70918598 30.53245282 -120.95829125 34.46202979 -133.1875 38.3125 C-137.54860207 39.67674219 -141.8465941 40.67769158 -146.3359375 41.50390625 C-154.24364212 43.16197335 -162.00507048 45.65082782 -169.640625 48.27734375 C-173.75751065 49.64736696 -177.92358136 50.86055467 -182.08203125 52.09765625 C-184.92248307 52.94231396 -184.92248307 52.94231396 -187.07421875 54.18359375 C-189 55.0625 -189 55.0625 -194 55.0625 C-194 87.0725 -194 119.0825 -194 152.0625 C-194.33 152.0625 -194.66 152.0625 -195 152.0625 C-195 102.2325 -195 52.4025 -195 1.0625 C-122.59869806 0.42319491 -122.59869806 0.42319491 -103.3359375 0.28515625 C-102.61673614 0.27997522 -101.89753478 0.27479418 -101.15653944 0.26945615 C-67.4376799 0.02798749 -33.71962576 -0.02234197 0 0 Z " fill="#013DA3" transform="translate(256,196.9375)"/>
<path d="M0 0 C0.99 0.495 0.99 0.495 2 1 C-2.40608606 5.88440855 -7.57316959 9.23644106 -13.0625 12.8125 C-14.00625488 13.43487549 -14.95000977 14.05725098 -15.92236328 14.69848633 C-18.61133722 16.47117448 -21.30465119 18.23702456 -24 20 C-31.91360908 25.17856537 -39.60244036 30.58314539 -47.203125 36.20703125 C-51.37561713 39.28951841 -55.60890326 42.28315297 -59.84423828 45.27832031 C-64.64481102 48.69614173 -69.30864335 52.27769558 -73.91455078 55.95336914 C-77.78627243 59 -77.78627243 59 -80 59 C-80 59.66 -80 60.32 -80 61 C-81.84227561 62.53624976 -83.69130947 63.96153674 -85.625 65.375 C-91.44971041 69.72278258 -96.9797885 74.32860427 -102.41650391 79.15185547 C-104.93626665 81.36057245 -106.78569676 82.92856559 -110 84 C-110 84.66 -110 85.32 -110 86 C-111.61718311 87.4328718 -113.29623372 88.79624749 -115 90.125 C-119.22777668 93.50289072 -123.13262789 96.95944392 -126.85546875 100.8828125 C-128.68884466 102.69281203 -130.55884209 104.34973311 -132.51538086 106.02197266 C-137.52329437 110.39173161 -142.2058429 115.06212635 -146.8984375 119.765625 C-147.81460846 120.68083923 -148.73077942 121.59605347 -149.67471313 122.53900146 C-151.5974303 124.46025667 -153.51835817 126.38327769 -155.43798828 128.30761719 C-157.89582921 130.77119499 -160.35818799 133.23020086 -162.82187462 135.68793106 C-165.18315876 138.0447369 -167.5406306 140.4053404 -169.8984375 142.765625 C-170.78171722 143.64688049 -171.66499695 144.52813599 -172.57504272 145.43609619 C-173.38994171 146.25414734 -174.2048407 147.07219849 -175.04443359 147.91503906 C-175.76198822 148.63338928 -176.47954285 149.3517395 -177.21884155 150.09185791 C-179.16873008 152.0773037 -179.16873008 152.0773037 -181 155 C-182.32 149.06 -183.64 143.12 -185 137 C-183.02 136.01 -183.02 136.01 -181 135 C-179.76074269 133.95848579 -178.56122744 132.86843351 -177.3984375 131.7421875 C-176.74359375 131.11699219 -176.08875 130.49179687 -175.4140625 129.84765625 C-174.04674785 128.524871 -172.6795618 127.20195281 -171.3125 125.87890625 C-170.33410156 124.94498047 -170.33410156 124.94498047 -169.3359375 123.9921875 C-168.44720947 123.13149658 -168.44720947 123.13149658 -167.54052734 122.25341797 C-166 121 -166 121 -164 121 C-164 120.34 -164 119.68 -164 119 C-162.44759659 117.60674046 -160.82970015 116.28619872 -159.1875 115 C-155.21421446 111.82745313 -151.41067177 108.5933118 -147.6875 105.125 C-143.07999022 100.88451802 -138.2863363 97.00591983 -133.3371582 93.18066406 C-129.25438309 90.01599834 -125.29280476 86.74110068 -121.375 83.375 C-116.02362109 78.79825734 -110.50265306 74.5270399 -104.82763672 70.35498047 C-102.70844413 68.78384516 -100.60587752 67.19175694 -98.50390625 65.59765625 C-87.56619878 57.31454233 -76.46915927 49.30945393 -65.18164062 41.51025391 C-63.26684666 40.18472622 -61.35821607 38.85113243 -59.453125 37.51171875 C-46.74997264 28.61635211 -33.63393781 20.36475855 -20.5 12.125 C-19.49735107 11.4944873 -18.49470215 10.86397461 -17.46166992 10.21435547 C-12.97926764 7.41280736 -8.47999322 4.64254749 -3.90625 1.9921875 C-3.19791016 1.58081543 -2.48957031 1.16944336 -1.75976562 0.74560547 C-0.88868164 0.37653076 -0.88868164 0.37653076 0 0 Z " fill="#3B9499" transform="translate(249,232)"/>
<path d="M0 0 C-1.72137973 3.44275946 -5.8759205 3.94317353 -9.34765625 5.16015625 C-11.09561717 5.78810647 -12.84316432 6.41720946 -14.59033203 7.04736328 C-15.49003723 7.37037415 -16.38974243 7.69338501 -17.31671143 8.02618408 C-21.45809952 9.52917175 -25.57172034 11.10195652 -29.68359375 12.68359375 C-30.4798819 12.98941879 -31.27617004 13.29524384 -32.09658813 13.6103363 C-34.54408027 14.55137546 -36.99081872 15.49435492 -39.4375 16.4375 C-40.28352783 16.76293793 -41.12955566 17.08837585 -42.0012207 17.42367554 C-52.45350165 21.44440017 -62.90061262 25.47508602 -73.25561523 29.74194336 C-77.46051261 31.45933824 -81.61976991 32.83079796 -86 34 C-86 34.66 -86 35.32 -86 36 C-103.34010152 43 -103.34010152 43 -106 43 C-106 43.66 -106 44.32 -106 45 C-106.51046875 45.21914062 -107.0209375 45.43828125 -107.546875 45.6640625 C-113.04326854 48.06142564 -118.38952343 50.68121606 -123.71484375 53.4375 C-126.2888036 54.66173774 -128.80505601 55.70793616 -131.4609375 56.72265625 C-138.44069388 59.47753161 -145.04057568 62.9759028 -151.6875 66.4375 C-152.70387543 66.96431366 -152.70387543 66.96431366 -153.74078369 67.50177002 C-170.93923169 76.42170805 -187.74713559 85.9917197 -204.40625 95.87890625 C-205.6041271 96.58600453 -206.8020436 97.29303608 -208 98 C-208.64324219 98.38397949 -209.28648437 98.76795898 -209.94921875 99.16357422 C-214.77400263 102 -214.77400263 102 -217 102 C-217.10807131 100.06372231 -217.1856225 98.12572244 -217.25 96.1875 C-217.29640625 95.10855469 -217.3428125 94.02960938 -217.390625 92.91796875 C-217 90 -217 90 -215.15625 88.15625 C-212.76675369 86.87492589 -210.67582147 86.37164187 -208 86 C-208 85.34 -208 84.68 -208 84 C-205.73272667 82.82592979 -203.46165376 81.66060261 -201.1875 80.5 C-200.54490234 80.16613281 -199.90230469 79.83226562 -199.24023438 79.48828125 C-196.30452301 77.99760916 -194.33873483 77 -191 77 C-191 76.34 -191 75.68 -191 75 C-189.40285156 74.25556641 -189.40285156 74.25556641 -187.7734375 73.49609375 C-180.90986216 70.28688054 -174.0654089 67.06299372 -167.3125 63.625 C-160.24249524 60.05304638 -153.04014473 56.79327618 -145.8137207 53.55126953 C-141.05369694 51.41142268 -136.35346798 49.20085358 -131.69824219 46.84204102 C-129.6079847 45.80562669 -127.48608537 44.90930076 -125.3125 44.0625 C-124.47589844 43.73378906 -123.63929688 43.40507812 -122.77734375 43.06640625 C-120.7721668 42.29648599 -118.76396029 41.53443991 -116.75390625 40.77734375 C-109.75619504 38.16470163 -109.75619504 38.16470163 -103 35 C-98.81527654 32.82600609 -94.47301637 31.20201715 -90.0625 29.54296875 C-86.94555025 28.36854661 -83.84623319 27.15376945 -80.75 25.92578125 C-71.28130778 22.17337958 -61.80131567 18.49134897 -52.1875 15.125 C-51.01658813 14.71435303 -51.01658813 14.71435303 -49.82202148 14.29541016 C-45.01537808 12.63432482 -40.17806064 11.13314015 -35.29174805 9.72338867 C-33.00163541 9.00051622 -30.83004739 8.13609139 -28.625 7.1875 C-23.37157772 5.02879036 -17.98825367 3.35107018 -12.5625 1.6875 C-11.67320801 1.40865967 -10.78391602 1.12981934 -9.86767578 0.8425293 C-9.02575684 0.58898682 -8.18383789 0.33544434 -7.31640625 0.07421875 C-6.55787354 -0.15692627 -5.79934082 -0.38807129 -5.01782227 -0.6262207 C-3 -1 -3 -1 0 0 Z " fill="#2D7ACF" transform="translate(279,208)"/>
<path d="M0 0 C0.99 0.495 0.99 0.495 2 1 C-2.28412759 6.02473475 -6.61649934 10.71583212 -11.66015625 14.98046875 C-15.28166541 18.10621205 -18.76161265 21.383738 -22.2565918 24.6496582 C-32.31186471 34 -32.31186471 34 -35 34 C-35.20109375 34.53882813 -35.4021875 35.07765625 -35.609375 35.6328125 C-37.58092429 38.98887674 -40.38247982 41.3002861 -43.25 43.875 C-51.91980779 51.82987954 -60.24247648 60.12023727 -68.5625 68.4375 C-69.22197632 69.09466003 -69.88145264 69.75182007 -70.56091309 70.42889404 C-79.93830242 79.7264247 -79.93830242 79.7264247 -88.7565918 89.54833984 C-90 91 -90 91 -92.25 93.1875 C-94.12453472 94.9817485 -94.12453472 94.9817485 -95.4375 97.5 C-97 100 -97 100 -99.33984375 101.84765625 C-102.03136021 104.02537368 -103.98112292 106.22708506 -106.125 108.9375 C-108.97217241 112.49763815 -111.85287225 116.00651292 -114.84399414 119.44677734 C-133.11788429 140.57316097 -148.23913216 164.48996364 -162.88525391 188.20849609 C-163.84078111 189.74411996 -164.82933972 191.25910462 -165.82421875 192.76953125 C-167.31088067 195.16951057 -167.31088067 195.16951057 -167 199 C-168.32 198.67 -169.64 198.34 -171 198 C-171 197.34 -171 196.68 -171 196 C-171.7425 195.9175 -172.485 195.835 -173.25 195.75 C-176.52753253 194.85612749 -177.71559013 193.44060884 -180 191 C-179.2265625 189.97261719 -178.453125 188.94523438 -177.65625 187.88671875 C-170.70365236 178.6454491 -170.70365236 178.6454491 -163.875 169.3125 C-152.01429118 152.94618311 -139.14522809 137.34436121 -126 122 C-125.50032715 121.41395996 -125.0006543 120.82791992 -124.48583984 120.22412109 C-116.81249703 111.23166111 -108.9075441 102.49889044 -100.79150391 93.90478516 C-99.00114017 92.00121227 -97.22355907 90.08647726 -95.44921875 88.16796875 C-88.45535145 80.62128259 -81.3265699 73.22489976 -74.0625 65.9375 C-72.89134644 64.75945801 -72.89134644 64.75945801 -71.6965332 63.55761719 C-67.49767919 59.36997208 -63.206327 55.36352551 -58.71264648 51.49438477 C-56.7126924 49.74930723 -54.84329388 47.9091258 -53 46 C-49.8501997 42.80738688 -46.58780511 39.82838721 -43.1875 36.90625 C-40.64488601 34.69054352 -38.16889802 32.40901408 -35.6875 30.125 C-31.21172487 26.04324084 -26.61369627 22.16886442 -21.90234375 18.36328125 C-18.08794437 15.25734367 -14.33864667 12.07791567 -10.59033203 8.89282227 C-7.07702999 5.90779048 -3.54548979 2.9466253 0 0 Z " fill="#58C933" transform="translate(275,230)"/>
<path d="M0 0 C-0.33 0.66 -0.66 1.32 -1 2 C-3.29895308 2.75712188 -5.52634175 3.37767446 -7.875 3.9375 C-8.58897949 4.11224854 -9.30295898 4.28699707 -10.03857422 4.46704102 C-16.15093357 5.90955782 -22.29564752 6.87501844 -28.50512695 7.78710938 C-37.55553387 9.15841063 -46.41709425 11.27595298 -55.32080078 13.37695312 C-57.93762087 13.98549375 -60.55853455 14.56876039 -63.18359375 15.140625 C-63.99755615 15.31795166 -64.81151855 15.49527832 -65.65014648 15.67797852 C-67.16351927 16.00612491 -68.67732361 16.33229047 -70.19165039 16.65600586 C-73.21052885 17.31521061 -76.13003848 18.04401047 -79.05859375 19.03515625 C-82.37887118 20.1242778 -85.61458221 20.68441096 -89.0625 21.25 C-101.70918598 23.46995282 -113.95829125 27.39952979 -126.1875 31.25 C-130.54860207 32.61424219 -134.8465941 33.61519158 -139.3359375 34.44140625 C-147.24364212 36.09947335 -155.00507048 38.58832782 -162.640625 41.21484375 C-166.75751065 42.58486696 -170.92358136 43.79805467 -175.08203125 45.03515625 C-177.92248307 45.87981396 -177.92248307 45.87981396 -180.07421875 47.12109375 C-182 48 -182 48 -187 48 C-187 44.37 -187 40.74 -187 37 C-174.80761978 33.75881295 -162.59377492 30.62198622 -150.34863281 27.58642578 C-148.13383523 27.03341707 -145.9219466 26.47028577 -143.7109375 25.90234375 C-136.1767357 23.97364588 -128.63302078 22.25489582 -120.98828125 20.80859375 C-117.74235441 20.17648769 -114.53355852 19.42087737 -111.31640625 18.65625 C-102.13946293 16.52181741 -92.8821263 14.8090812 -83.625 13.0625 C-82.69513275 12.88636169 -81.7652655 12.71022339 -80.80722046 12.52874756 C-43.5293845 5.4689738 -43.5293845 5.4689738 -27.7734375 3.50390625 C-22.30731158 2.77395776 -16.86896976 1.8776831 -11.43066406 0.96459961 C-7.57668594 0.33379336 -3.92199179 -0.17326068 0 0 Z " fill="#1C56AA" transform="translate(249,204)"/>
<path d="M0 0 C2.64 0 5.28 0 8 0 C8.33 0.66 8.66 1.32 9 2 C9.99 1.34 10.98 0.68 12 0 C18.98591549 -0.67605634 18.98591549 -0.67605634 23 2 C23.66 2.66 24.32 3.32 25 4 C25.474375 3.34 25.94875 2.68 26.4375 2 C29.71612775 -0.55892897 31.81059603 -0.57224425 35.875 -0.3984375 C38.93145998 0.17464875 40.23616845 1.50123864 42 4 C43.27861615 6.55723229 43.11336609 8.36737102 43.09765625 11.2265625 C43.09443359 12.2578125 43.09121094 13.2890625 43.08789062 14.3515625 C43.07532227 15.97191406 43.07532227 15.97191406 43.0625 17.625 C43.05798828 18.71296875 43.05347656 19.8009375 43.04882812 20.921875 C43.03701776 23.61463789 43.02054778 26.30729188 43 29 C40.36 29 37.72 29 35 29 C34.67 21.74 34.34 14.48 34 7 C32.02 7 30.04 7 28 7 C25.94872156 10.07691766 25.72739128 10.93644999 25.5859375 14.44921875 C25.54726562 15.29677734 25.50859375 16.14433594 25.46875 17.01757812 C25.42234375 18.33918945 25.42234375 18.33918945 25.375 19.6875 C25.33632812 20.58017578 25.29765625 21.47285156 25.2578125 22.39257812 C25.16359782 24.5948462 25.07798412 26.79710722 25 29 C22.69 29 20.38 29 18 29 C17.97494385 28.36908447 17.9498877 27.73816895 17.92407227 27.08813477 C17.80845863 24.24603175 17.68557684 21.40428917 17.5625 18.5625 C17.52318359 17.56927734 17.48386719 16.57605469 17.44335938 15.55273438 C17.40146484 14.60849609 17.35957031 13.66425781 17.31640625 12.69140625 C17.27974854 11.81685791 17.24309082 10.94230957 17.20532227 10.04125977 C17.21818934 8.0072598 17.21818934 8.0072598 16 7 C13.54190002 6.7499227 13.54190002 6.7499227 11 7 C8.56085508 9.43914492 8.71337477 10.21446431 8.5859375 13.5703125 C8.52792969 14.91416016 8.52792969 14.91416016 8.46875 16.28515625 C8.42234375 17.69087891 8.42234375 17.69087891 8.375 19.125 C8.31699219 20.54232422 8.31699219 20.54232422 8.2578125 21.98828125 C8.16338654 24.32532375 8.07781606 26.66235501 8 29 C5.36 29 2.72 29 0 29 C0 19.43 0 9.86 0 0 Z " fill="#F1F1F4" transform="translate(159,135)"/>
<path d="M0 0 C2.9375 1.1875 2.9375 1.1875 5 3 C5.763125 3.639375 6.52625 4.27875 7.3125 4.9375 C9.99347882 9.80298008 9.71768672 14.5742884 9 20 C7.84073328 23.43048315 6.34909318 26.12338659 3.2265625 28.15234375 C-1.34130524 29.89133901 -6.21301989 29.6335709 -11 29 C-14.98348877 27.09187847 -17.36014992 24.05570063 -19 20 C-19.68781032 14.7054601 -19.65484652 10.30969305 -17.25 5.5 C-11.91039206 -0.43289771 -7.79409189 -0.84667962 0 0 Z " fill="#F6F6F8" transform="translate(363,135)"/>
<path d="M0 0 C38.94 0 77.88 0 118 0 C118 18.81 118 37.62 118 57 C62.89 57 7.78 57 -49 57 C-48.67 56.01 -48.34 55.02 -48 54 C-47.34 54 -46.68 54 -46 54 C-45.78214844 53.4740625 -45.56429688 52.948125 -45.33984375 52.40625 C-43.4914592 49.08670224 -41.04917204 46.34871774 -38.5625 43.5 C-38.02826416 42.8827002 -37.49402832 42.26540039 -36.94360352 41.62939453 C-32.19339306 36.16633709 -27.32244789 30.82258836 -22.3984375 25.51611328 C-20.90153527 23.89324965 -19.4183882 22.2585784 -17.9375 20.62109375 C-17.43549072 20.06760254 -16.93348145 19.51411133 -16.41625977 18.94384766 C-15.45106257 17.87905525 -14.48791134 16.81240363 -13.52709961 15.74365234 C-10.22436845 12.11218423 -10.22436845 12.11218423 -8 11 C-9.4061579 15.15863719 -11.39842958 17.93286707 -14.25 21.25 C-18.34071663 26.01780076 -21.4313514 30.6470271 -25 36 C-29.62 42.27 -34.24 48.54 -39 55 C12.48 55.33 63.96 55.66 117 56 C117 37.85 117 19.7 117 1 C78.39 1 39.78 1 0 1 C0 0.67 0 0.34 0 0 Z " fill="#54BE36" transform="translate(321,196)"/>
<path d="M0 0 C3.11937969 1.37252707 4.4897715 1.979543 6 5 C6.08308638 6.37548156 6.10736016 7.75485796 6.09765625 9.1328125 C6.09443359 9.93847656 6.09121094 10.74414062 6.08789062 11.57421875 C6.07951172 12.41597656 6.07113281 13.25773438 6.0625 14.125 C6.05798828 14.97449219 6.05347656 15.82398438 6.04882812 16.69921875 C6.03702874 18.79950909 6.01909306 20.8997633 6 23 C7.32 23 8.64 23 10 23 C10 24.98 10 26.96 10 29 C8.741875 29.04125 7.48375 29.0825 6.1875 29.125 C5.47980469 29.14820313 4.77210938 29.17140625 4.04296875 29.1953125 C2 29 2 29 -1 27 C-1.99 27.66 -2.98 28.32 -4 29 C-6.375 29.30078125 -6.375 29.30078125 -9 29.3125 C-10.299375 29.33763672 -10.299375 29.33763672 -11.625 29.36328125 C-14 29 -14 29 -15.77734375 27.7890625 C-17.84082815 24.76965082 -17.59303545 21.93657715 -17.46875 18.37890625 C-17 16 -17 16 -14.5625 13.5 C-10.42371016 11.75735165 -6.41657062 10.7459097 -2 10 C-2 9.01 -2 8.02 -2 7 C-7.32170494 6.70437633 -7.32170494 6.70437633 -12 9 C-12.99 9 -13.98 9 -15 9 C-15.66 7.35 -16.32 5.7 -17 4 C-11.70419124 -0.58015893 -6.86052531 -0.88758699 0 0 Z " fill="#F4F4F6" transform="translate(225,135)"/>
<path d="M0 0 C2.31 0 4.62 0 7 0 C7.33 0.99 7.66 1.98 8 3 C8.39445312 2.51660156 8.78890625 2.03320312 9.1953125 1.53515625 C11.5105609 -0.4343083 12.86280458 -0.49383293 15.875 -0.5625 C16.71804688 -0.60503906 17.56109375 -0.64757812 18.4296875 -0.69140625 C21.47737617 0.12841274 23.14141258 1.42075442 25.04492188 3.9387207 C27.07342322 8.31669536 26.50138293 13.15583258 26.3125 17.875 C26.28994141 18.94492188 26.26738281 20.01484375 26.24414062 21.1171875 C26.18545633 23.74624407 26.1034118 26.37238582 26 29 C23.36 29 20.72 29 18 29 C18 21.74 18 14.48 18 7 C11.6048153 6.37022947 11.6048153 6.37022947 9.09448242 8.22192383 C7.74105657 10.42067477 7.57469821 11.87399331 7.48828125 14.44921875 C7.45283203 15.29677734 7.41738281 16.14433594 7.38085938 17.01757812 C7.35830078 17.89865234 7.33574219 18.77972656 7.3125 19.6875 C7.27833984 20.58017578 7.24417969 21.47285156 7.20898438 22.39257812 C7.12654352 24.59492671 7.05738449 26.79687938 7 29 C4.69 29 2.38 29 0 29 C0 19.43 0 9.86 0 0 Z " fill="#F4F4F6" transform="translate(379,135)"/>
<path d="M0 0 C7.59 0 15.18 0 23 0 C23 1.98 23 3.96 23 6 C17.72 6 12.44 6 7 6 C7 9.3 7 12.6 7 16 C11.95 16 16.9 16 22 16 C22 18.31 22 20.62 22 23 C17.05 23 12.1 23 7 23 C7 27.95 7 32.9 7 38 C4.69 38 2.38 38 0 38 C0 25.46 0 12.92 0 0 Z " fill="#F9F9FA" transform="translate(241,126)"/>
<path d="M0 0 C2.31 0 4.62 0 7 0 C7.02505615 0.63091553 7.0501123 1.26183105 7.07592773 1.91186523 C7.19154137 4.75396825 7.31442316 7.59571083 7.4375 10.4375 C7.47681641 11.43072266 7.51613281 12.42394531 7.55664062 13.44726562 C7.59853516 14.39150391 7.64042969 15.33574219 7.68359375 16.30859375 C7.72025146 17.18314209 7.75690918 18.05769043 7.79467773 18.95874023 C7.78181066 20.9927402 7.78181066 20.9927402 9 22 C11.95804573 22.33340471 11.95804573 22.33340471 15 22 C17.05127844 18.92308234 17.27260872 18.06355001 17.4140625 14.55078125 C17.45273437 13.70322266 17.49140625 12.85566406 17.53125 11.98242188 C17.5621875 11.10134766 17.593125 10.22027344 17.625 9.3125 C17.66367187 8.41982422 17.70234375 7.52714844 17.7421875 6.60742188 C17.83640218 4.4051538 17.92201588 2.20289278 18 0 C20.31 0 22.62 0 25 0 C25 9.57 25 19.14 25 29 C22.69 29 20.38 29 18 29 C17.67 28.34 17.34 27.68 17 27 C16.01 27.66 15.02 28.32 14 29 C11.66015625 29.37109375 11.66015625 29.37109375 9.0625 29.4375 C8.20785156 29.47746094 7.35320312 29.51742187 6.47265625 29.55859375 C4 29 4 29 1.69921875 27.2421875 C-0.94748994 22.19214563 -0.42030621 17.29122945 -0.25 11.6875 C-0.22292969 10.00430664 -0.22292969 10.00430664 -0.1953125 8.28710938 C-0.14827856 5.52386553 -0.08256317 2.76237302 0 0 Z " fill="#F8F8FA" transform="translate(270,135)"/>
<path d="M0 0 C2.31 0 4.62 0 7 0 C7.02505615 0.63091553 7.0501123 1.26183105 7.07592773 1.91186523 C7.19154137 4.75396825 7.31442316 7.59571083 7.4375 10.4375 C7.47681641 11.43072266 7.51613281 12.42394531 7.55664062 13.44726562 C7.59853516 14.39150391 7.64042969 15.33574219 7.68359375 16.30859375 C7.72025146 17.18314209 7.75690918 18.05769043 7.79467773 18.95874023 C7.78181066 20.9927402 7.78181066 20.9927402 9 22 C11.95804573 22.33340471 11.95804573 22.33340471 15 22 C17.05127844 18.92308234 17.27260872 18.06355001 17.4140625 14.55078125 C17.45273438 13.70322266 17.49140625 12.85566406 17.53125 11.98242188 C17.5621875 11.10134766 17.593125 10.22027344 17.625 9.3125 C17.66367188 8.41982422 17.70234375 7.52714844 17.7421875 6.60742188 C17.83640218 4.4051538 17.92201588 2.20289278 18 0 C20.31 0 22.62 0 25 0 C25 9.57 25 19.14 25 29 C22.69 29 20.38 29 18 29 C17.67 28.34 17.34 27.68 17 27 C16.01 27.66 15.02 28.32 14 29 C11.66015625 29.37109375 11.66015625 29.37109375 9.0625 29.4375 C8.20785156 29.47746094 7.35320312 29.51742187 6.47265625 29.55859375 C4 29 4 29 1.69921875 27.2421875 C-0.94748994 22.19214563 -0.42030621 17.29122945 -0.25 11.6875 C-0.22292969 10.00430664 -0.22292969 10.00430664 -0.1953125 8.28710938 C-0.14827856 5.52386553 -0.08256317 2.76237302 0 0 Z " fill="#F8F8FA" transform="translate(126,135)"/>
<path d="M0 0 C3.1875 1.5 3.1875 1.5 5 3 C4.34 4.32 3.68 5.64 3 7 C-1.1274515 7 -4.915021 6.54466387 -9 6 C-8.67 7.32 -8.34 8.64 -8 10 C-7.24074219 10.18175781 -6.48148437 10.36351562 -5.69921875 10.55078125 C-4.70535156 10.80214844 -3.71148437 11.05351562 -2.6875 11.3125 C-1.70136719 11.55613281 -0.71523438 11.79976562 0.30078125 12.05078125 C3.05611177 13.0197325 4.30993875 13.64738981 6 16 C6.39919236 19.09374082 6.62913952 21.03900393 6 24 C3.46546343 27.21954645 1.88702695 28.70432435 -2 30 C-7.21930524 30.39390983 -10.58177416 29.87698427 -15 27 C-16.375 24.8125 -16.375 24.8125 -17 23 C-16.01 22.01 -15.02 21.02 -14 20 C-13.43796875 20.31710938 -12.8759375 20.63421875 -12.296875 20.9609375 C-9.84803683 22.06874525 -7.91612145 22.38975399 -5.25 22.625 C-4.45078125 22.69976562 -3.6515625 22.77453125 -2.828125 22.8515625 C-2.22484375 22.90054688 -1.6215625 22.94953125 -1 23 C-1.12338117 21.01774874 -1.12338117 21.01774874 -2 19 C-4.18831283 18.03795212 -4.18831283 18.03795212 -6.8125 17.5625 C-10.30898214 16.63210561 -11.85294711 16.12954659 -14.625 13.6875 C-16.31625368 10.38186781 -16.68653822 8.66153717 -16 5 C-12.08025802 -1.21752175 -6.68654841 -0.96238178 0 0 Z " fill="#F2F2F5" transform="translate(318,135)"/>
<path d="M0 0 C2.64 0 5.28 0 8 0 C8 10.56 8 21.12 8 32 C13.61 32 19.22 32 25 32 C25 33.98 25 35.96 25 38 C16.75 38 8.5 38 0 38 C0 25.46 0 12.92 0 0 Z " fill="#F6F5F8" transform="translate(96,126)"/>
<path d="M0 0 C0 4.05820583 -1.58087276 5.38485711 -4.0625 8.5625 C-6.84983252 12.17807465 -9.60267486 15.79793416 -12.1875 19.5625 C-15.81625197 24.80307292 -19.5945764 29.9309417 -23.375 35.0625 C-24.00688232 35.92109619 -24.63876465 36.77969238 -25.28979492 37.66430664 C-29.87167894 43.87167894 -29.87167894 43.87167894 -31 45 C-33.67058851 45.14115161 -36.32432238 45.04247107 -39 45 C-39 44.34 -39 43.68 -39 43 C-38.34 43 -37.68 43 -37 43 C-36.78214844 42.4740625 -36.56429688 41.948125 -36.33984375 41.40625 C-34.4914592 38.08670224 -32.04917204 35.34871774 -29.5625 32.5 C-29.02826416 31.8827002 -28.49402832 31.26540039 -27.94360352 30.62939453 C-23.19419423 25.16725849 -18.32507648 19.82260233 -13.40283203 14.51611328 C-10.88223229 11.79197051 -8.38015635 9.05083711 -5.875 6.3125 C-1.15401376 1.15401376 -1.15401376 1.15401376 0 0 Z " fill="#54E338" transform="translate(312,207)"/>
<path d="M0 0 C2.31 0 4.62 0 7 0 C7 9.57 7 19.14 7 29 C4.69 29 2.38 29 0 29 C0 19.43 0 9.86 0 0 Z " fill="#F9F9FA" transform="translate(330,135)"/>
<path d="M0 0 C2.375 1.4375 2.375 1.4375 4 4 C4.67298561 8.12109164 4.54130175 11.69450754 2.9375 15.5625 C-0.06591067 17.79083695 -2.37886313 17.45264211 -6 17 C-7.6953125 15.81640625 -7.6953125 15.81640625 -9 14 C-9.3984375 11.40625 -9.3984375 11.40625 -9.375 8.5 C-9.38273437 7.5409375 -9.39046875 6.581875 -9.3984375 5.59375 C-9 3 -9 3 -7.66015625 1.18359375 C-5.03403727 -0.6886746 -3.12825865 -0.44689409 0 0 Z " fill="#201E51" transform="translate(361,141)"/>
<path d="M0 0 C0 0.66 0 1.32 0 2 C-1.98779297 3.42041016 -1.98779297 3.42041016 -4.7421875 5.0390625 C-5.72574219 5.61914062 -6.70929688 6.19921875 -7.72265625 6.796875 C-9.28306641 7.70179688 -9.28306641 7.70179688 -10.875 8.625 C-11.90753906 9.23601562 -12.94007813 9.84703125 -14.00390625 10.4765625 C-21.72807966 15 -21.72807966 15 -24 15 C-24 15.66 -24 16.32 -24 17 C-24.99 17.33 -25.98 17.66 -27 18 C-26.8671875 15.71484375 -26.8671875 15.71484375 -26 13 C-23.4453125 11.19140625 -23.4453125 11.19140625 -20.125 9.5625 C-18.95582031 8.9746875 -17.78664063 8.386875 -16.58203125 7.78125 C-15.98471191 7.48734375 -15.38739258 7.1934375 -14.77197266 6.890625 C-12.07127325 5.5332054 -9.44757944 4.04233269 -6.8125 2.5625 C-2.24281984 0 -2.24281984 0 0 0 Z " fill="#3FACB2" transform="translate(276,218)"/>
<path d="M0 0 C4.55555556 0.55555556 4.55555556 0.55555556 6 2 C6.1875 4.4375 6.1875 4.4375 6 7 C4 9 4 9 1.5 9.3125 C0.2625 9.1578125 0.2625 9.1578125 -1 9 C-3 6 -3 6 -2.75 3.9375 C-2 2 -2 2 0 0 Z " fill="#E9E9EE" transform="translate(332,123)"/>
<path d="M0 0 C0.36190476 5.42857143 0.36190476 5.42857143 -1.1875 7.875 C-3.58590175 9.36366316 -5.22806071 9.29178308 -8 9 C-9 8 -9 8 -9.0625 5.4375 C-9.041875 4.633125 -9.02125 3.82875 -9 3 C-2.25 0 -2.25 0 0 0 Z " fill="#232052" transform="translate(224,150)"/>
<path d="M0 0 C-0.33 0.66 -0.66 1.32 -1 2 C-3.58783855 2.80943808 -6.11773821 3.4993744 -8.75 4.125 C-9.82507813 4.39763672 -9.82507813 4.39763672 -10.921875 4.67578125 C-14.68989874 5.59700764 -18.09038683 6.23088267 -22 6 C-22 5.01 -22 4.02 -22 3 C-19.27172635 2.49465273 -16.54255306 1.99556155 -13.8125 1.5 C-13.04357422 1.35691406 -12.27464844 1.21382812 -11.48242188 1.06640625 C-7.60578227 0.36761285 -3.958529 -0.19039017 0 0 Z " fill="#1A5CBE" transform="translate(249,204)"/>
<path d="M0 0 C-2.65678338 1.77118892 -4.46372565 2.58611664 -7.44921875 3.5078125 C-8.29677734 3.77207031 -9.14433594 4.03632813 -10.01757812 4.30859375 C-10.89865234 4.57800781 -11.77972656 4.84742188 -12.6875 5.125 C-14.02651367 5.54072266 -14.02651367 5.54072266 -15.39257812 5.96484375 C-17.59375282 6.64756104 -19.79621473 7.32576666 -22 8 C-21.67 6.68 -21.34 5.36 -21 4 C-18.43923903 3.32595716 -15.87673417 2.660586 -13.3125 2 C-12.59126953 1.80921875 -11.87003906 1.6184375 -11.12695312 1.421875 C-7.33149039 0.45134572 -3.95384561 -0.24955239 0 0 Z " fill="#2E89EC" transform="translate(300,202)"/>
<path d="M0 0 C0 3 0 3 -1.25 4.61328125 C-5.57281809 8.81066042 -10.08470289 12.51460751 -15 16 C-11.55374416 8.76596747 -6.44826008 4.51218199 0 0 Z " fill="#62E938" transform="translate(287,221)"/>
<path d="M0 0 C0.66 0.33 1.32 0.66 2 1 C0.90716423 2.03295436 -0.19970579 3.05107835 -1.3125 4.0625 C-1.92738281 4.63097656 -2.54226563 5.19945312 -3.17578125 5.78515625 C-3.77777344 6.18605469 -4.37976563 6.58695313 -5 7 C-5.99 6.67 -6.98 6.34 -8 6 C-5.36 4.02 -2.72 2.04 0 0 Z " fill="#61EA3E" transform="translate(296,214)"/>
</svg>
