<?xml version="1.0" encoding="UTF-8"?>
<svg version="1.1" xmlns="http://www.w3.org/2000/svg" width="500" height="500">
<path d="M0 0 C165 0 330 0 500 0 C500 165 500 330 500 500 C335 500 170 500 0 500 C0 335 0 170 0 0 Z " fill="#001E36" transform="translate(0,0)"/>
<path d="M0 0 C12.00614589 12.39790113 16.17168127 28.68971736 16.00976562 45.48535156 C15.55948944 61.6161916 10.33899059 76.03861169 -1.03515625 87.73828125 C-12.55481782 98.61362276 -24.91099329 103.45746432 -40.33984375 105.9140625 C-41.24371826 106.08824707 -42.14759277 106.26243164 -43.07885742 106.44189453 C-46.73815358 106.97173497 -50.22842082 107.02650819 -53.92578125 107.01171875 C-55.85236572 107.00797241 -55.85236572 107.00797241 -57.81787109 107.00415039 C-59.43387207 106.99504639 -61.04987305 106.98594238 -62.71484375 106.9765625 C-67.87109375 106.9559375 -73.02734375 106.9353125 -78.33984375 106.9140625 C-78.33984375 126.0540625 -78.33984375 145.1940625 -78.33984375 164.9140625 C-81.50298528 166.49563327 -84.90273918 166.055956 -88.375 166.046875 C-89.56578407 166.04831009 -89.56578407 166.04831009 -90.78062439 166.04977417 C-92.45930053 166.05045501 -94.1379793 166.0486074 -95.81665039 166.04443359 C-98.39540472 166.03907691 -100.97398543 166.04438542 -103.55273438 166.05078125 C-105.18098997 166.05012059 -106.80924546 166.04883968 -108.4375 166.046875 C-109.60153099 166.04991135 -109.60153099 166.04991135 -110.78907776 166.05300903 C-116.22488792 166.02901833 -116.22488792 166.02901833 -117.33984375 164.9140625 C-117.43969644 162.55088781 -117.47427018 160.21688455 -117.46682739 157.85314941 C-117.46838738 157.10571047 -117.46994737 156.35827153 -117.47155464 155.58818293 C-117.47556743 153.06462838 -117.47237393 150.5411332 -117.46923828 148.01757812 C-117.4705922 146.21612004 -117.47237208 144.41466223 -117.47454834 142.61320496 C-117.47912381 137.70632186 -117.47733265 132.7994597 -117.47416925 127.89257622 C-117.47164624 122.76940731 -117.47398303 117.64624026 -117.47555542 112.52307129 C-117.47737729 103.91788408 -117.47497036 95.31270544 -117.47021484 86.70751953 C-117.46477219 76.7435705 -117.46653484 66.77964192 -117.47204125 56.81569338 C-117.47657189 48.27729762 -117.47722317 39.73890803 -117.47460258 31.20051146 C-117.47303954 26.09369795 -117.47284678 20.98689407 -117.47613907 15.88008118 C-117.47901708 11.08015798 -117.47704339 6.28026128 -117.47124481 1.48034096 C-117.46991683 -0.28660221 -117.47031196 -2.05354758 -117.47250748 -3.82048988 C-117.47521752 -6.22203203 -117.47183967 -8.62348785 -117.46682739 -11.02502441 C-117.46905811 -11.73347299 -117.47128884 -12.44192157 -117.47358716 -13.17183828 C-117.45399361 -17.97178764 -117.45399361 -17.97178764 -116.33984375 -19.0859375 C-114.71541566 -19.2462266 -113.08416446 -19.33777201 -111.453125 -19.40234375 C-110.38835937 -19.44456055 -109.32359375 -19.48677734 -108.2265625 -19.53027344 C-24.99416735 -22.28194552 -24.99416735 -22.28194552 0 0 Z " fill="#30A6FB" transform="translate(251.33984375,169.0859375)"/>
<path d="M0 0 C1.91425781 -0.00483398 1.91425781 -0.00483398 3.8671875 -0.00976562 C31.83501767 0.14751767 31.83501767 0.14751767 39 7.3125 C39.17488254 9.74994897 39.23177405 12.0718608 39.1953125 14.5078125 C39.1924826 15.21525604 39.18965271 15.92269958 39.18673706 16.65158081 C39.17553137 18.9137251 39.15042679 21.17547515 39.125 23.4375 C39.11497067 24.97004637 39.10584474 26.50259894 39.09765625 28.03515625 C39.07559086 31.79442301 39.04105896 35.55339464 39 39.3125 C34.83381856 39.38285297 31.96428081 39.13752073 28.125 37.5 C16.23161818 32.97761801 -1.63013976 28.75707761 -13.90234375 33.7109375 C-17.07112893 34.96382081 -17.07112893 34.96382081 -18 37.3125 C-18.58414702 40.68556618 -18.58414702 40.68556618 -18 44.3125 C-14.06238073 48.13710603 -9.9524393 50.58794627 -4.9375 52.8125 C-4.28338135 53.11164307 -3.6292627 53.41078613 -2.95532227 53.71899414 C1.15936272 55.57446068 5.31964212 57.20572452 9.5625 58.75 C24.29541551 64.26120173 36.58611517 72.25258979 44.109375 86.3984375 C47.84116337 95.58708622 47.22418883 106.97241976 44 116.1875 C38.39045058 128.84815903 29.55556935 136.18425328 17 141.625 C7.30019406 145.11187816 -2.38920039 145.67268012 -12.625 145.625 C-13.85395996 145.62081055 -15.08291992 145.61662109 -16.34912109 145.61230469 C-47.08003834 145.23246166 -47.08003834 145.23246166 -56 136.3125 C-56.17502995 133.73146694 -56.23162279 131.25941837 -56.1953125 128.6796875 C-56.1924826 127.92785187 -56.18965271 127.17601624 -56.18673706 126.40139771 C-56.17552874 123.99660422 -56.15042352 121.59218119 -56.125 119.1875 C-56.11497102 117.55859912 -56.10584503 115.92969242 -56.09765625 114.30078125 C-56.07558735 110.30454444 -56.04105351 106.30858506 -56 102.3125 C-52.27164789 103.17315933 -49.04835191 104.59690696 -45.5625 106.1875 C-34.4635985 110.98679238 -24.62389841 112.57379835 -12.5625 112.6875 C-11.51916504 112.70151855 -10.47583008 112.71553711 -9.40087891 112.72998047 C-3.90092333 112.69532248 0.32451743 112.55112695 5 109.3125 C7.18038095 106.04192857 7.63246755 105.10730531 7 101.3125 C3.12202679 96.61330894 -1.08357233 94.59227991 -6.5625 92.3125 C-7.36244385 91.96711182 -8.1623877 91.62172363 -8.98657227 91.26586914 C-13.44121943 89.35148642 -17.9321155 87.54151116 -22.4375 85.75 C-36.55888 79.91003787 -47.99724976 71.11143924 -54.03515625 56.87109375 C-57.81480947 45.9188893 -56.70162643 35.09540685 -51.78125 24.75 C-45.88289615 14.00188854 -36.13546628 6.31634403 -24.49853516 2.48999023 C-16.28768109 0.16475004 -8.49421923 -0.10725024 0 0 Z " fill="#30A6FC" transform="translate(342,192.6875)"/>
<path d="M0 0 C4.74375 -0.061875 9.4875 -0.12375 14.375 -0.1875 C16.58775635 -0.22846802 16.58775635 -0.22846802 18.84521484 -0.27026367 C29.6207299 -0.33792896 39.47080444 0.89843804 48 8 C54.51650452 15.00886264 56.44619015 21.40364973 56.24609375 30.90234375 C55.50612613 40.21653933 52.36892688 46.40700194 45.32421875 52.43359375 C32.50666952 61.68308859 14.48370263 59 0 59 C0 39.53 0 20.06 0 0 Z " fill="#001E36" transform="translate(173,184)"/>
</svg>
