<?xml version="1.0" encoding="UTF-8"?>
<svg version="1.1" xmlns="http://www.w3.org/2000/svg" width="500" height="500">
<path d="M0 0 C165 0 330 0 500 0 C500 165 500 330 500 500 C335 500 170 500 0 500 C0 335 0 170 0 0 Z " fill="#00005B" transform="translate(0,0)"/>
<path d="M0 0 C25.57371056 -0.59562949 51.60118789 -0.49684577 72.63574219 16.10742188 C73.27125 16.57921875 73.90675781 17.05101562 74.56152344 17.53710938 C82.95311772 24.12385965 87.69992134 33.00597195 90.63574219 43.10742188 C90.99152344 44.32300781 91.34730469 45.53859375 91.71386719 46.79101562 C95.69316943 63.14673641 92.94269879 81.68625725 84.38574219 96.10742188 C73.44338443 111.71567678 58.79569712 119.39047669 40.47509766 123.50756836 C32.95732984 124.68212995 25.41228011 124.41261636 17.82324219 124.29492188 C12.15136719 124.23304688 6.47949219 124.17117188 0.63574219 124.10742188 C0.63574219 142.91742188 0.63574219 161.72742188 0.63574219 181.10742188 C-11.57425781 181.10742188 -23.78425781 181.10742188 -36.36425781 181.10742188 C-36.38680266 157.78599049 -36.40523571 134.46456789 -36.41606998 111.1431284 C-36.42123349 100.31538567 -36.42827723 89.48765019 -36.43969727 78.65991211 C-36.44964243 69.22607781 -36.45611084 59.79224874 -36.45834631 50.35840935 C-36.4596537 45.36000701 -36.46274134 40.36161967 -36.46998787 35.36322212 C-36.47674545 30.66427178 -36.47887531 25.96534268 -36.47736549 21.26638794 C-36.47764194 19.53653282 -36.47964861 17.80667703 -36.48346329 16.0768261 C-36.48839646 13.72559365 -36.48725751 11.37444273 -36.48451233 9.02320862 C-36.48543412 7.70412286 -36.48635592 6.3850371 -36.48730564 5.02597904 C-36.36425781 2.10742188 -36.36425781 2.10742188 -35.36425781 1.10742188 C-33.46184052 0.94704367 -31.55358145 0.85557344 -29.64550781 0.79101562 C-27.80641846 0.72756958 -27.80641846 0.72756958 -25.93017578 0.6628418 C-24.57489704 0.62260664 -23.21958966 0.58332649 -21.86425781 0.54492188 C-21.1789801 0.52507233 -20.49370239 0.50522278 -19.78765869 0.48477173 C-15.3939461 0.36043336 -10.99999685 0.2540197 -6.60559082 0.1574707 C-4.40363528 0.10830117 -2.20183522 0.05425619 0 0 Z " fill="#9898FD" transform="translate(173.3642578125,150.892578125)"/>
<path d="M0 0 C1.24974609 0.01297119 2.49949219 0.02594238 3.78710938 0.03930664 C5.20733398 0.06432251 5.20733398 0.06432251 6.65625 0.08984375 C6.68089928 5.34089817 6.69908568 10.5919192 6.71118164 15.84301758 C6.71622218 17.63078396 6.72305454 19.4185462 6.73168945 21.20629883 C6.7437673 23.77035543 6.74948094 26.33435772 6.75390625 28.8984375 C6.75906754 29.70260605 6.76422882 30.5067746 6.76954651 31.33531189 C6.76974215 33.2538609 6.71826983 35.17229743 6.65625 37.08984375 C4.83741711 38.90867664 2.30666631 38.26015283 -0.12133789 38.32885742 C-13.12553641 38.72539919 -26.65506787 40.40116162 -36.34375 50.08984375 C-36.46362041 52.85323822 -36.51921545 55.59276039 -36.53320312 58.35742188 C-36.54149643 59.22402939 -36.54978973 60.0906369 -36.55833435 60.98350525 C-36.57577484 62.8714665 -36.59093059 64.75944988 -36.60411072 66.64744568 C-36.62506466 69.63029769 -36.65209253 72.61303827 -36.68078613 75.5958252 C-36.74059353 81.92712237 -36.792705 88.25847066 -36.84375 94.58984375 C-36.90287308 101.92318304 -36.9650855 109.25646732 -37.03562927 116.58970642 C-37.06230788 119.53736629 -37.08305971 122.48503137 -37.1036377 125.43273926 C-37.12023339 127.22925076 -37.13710458 129.02575974 -37.15429688 130.82226562 C-37.15848129 131.64931503 -37.16266571 132.47636444 -37.16697693 133.32847595 C-37.22990654 138.97600029 -37.22990654 138.97600029 -38.34375 140.08984375 C-41.07099279 140.19083863 -43.77237523 140.22954904 -46.5 140.22265625 C-47.72620056 140.22409134 -47.72620056 140.22409134 -48.97717285 140.22555542 C-50.70890378 140.2262372 -52.44063724 140.22438304 -54.17236328 140.22021484 C-56.83241482 140.21486654 -59.4922975 140.22015987 -62.15234375 140.2265625 C-63.83072954 140.22590172 -65.50911523 140.22462055 -67.1875 140.22265625 C-67.98853149 140.22468048 -68.78956299 140.22670471 -69.61486816 140.22879028 C-75.22879921 140.20479454 -75.22879921 140.20479454 -76.34375 139.08984375 C-76.45227231 137.33128608 -76.49062242 135.56836976 -76.50196838 133.8065033 C-76.5117572 132.66080368 -76.52154602 131.51510406 -76.53163147 130.33468628 C-76.53738693 129.06658112 -76.5431424 127.79847595 -76.54907227 126.49194336 C-76.55864566 125.15190831 -76.56865542 123.81187631 -76.57907104 122.47184753 C-76.60618458 118.82328226 -76.6271591 115.17470396 -76.64707303 111.52609324 C-76.66889295 107.71704259 -76.69630111 103.90803236 -76.72312927 100.09901428 C-76.77311034 92.88129553 -76.81802901 85.66355441 -76.86115164 78.44579178 C-76.91047785 70.23066247 -76.96541304 62.01557371 -77.02083123 53.80048358 C-77.13473435 36.89697443 -77.24155515 19.99342766 -77.34375 3.08984375 C-72.53826403 3.04047492 -67.73292506 3.00413932 -62.92724609 2.97998047 C-61.29180328 2.96991121 -59.65637851 2.95625494 -58.02099609 2.93896484 C-55.6728063 2.9147567 -53.32485412 2.90337018 -50.9765625 2.89453125 C-50.24317657 2.88420868 -49.50979065 2.87388611 -48.75418091 2.86325073 C-46.94912303 2.86285007 -45.1446717 2.9677162 -43.34375 3.08984375 C-39.84104599 6.59254776 -40.28794361 10.669959 -40.28125 15.40234375 C-40.29721774 16.96490105 -40.31644592 18.52744343 -40.34375 20.08984375 C-39.72113281 19.48849609 -39.72113281 19.48849609 -39.0859375 18.875 C-28.20225505 8.83377832 -15.23291849 -0.20560864 0 0 Z " fill="#9696FC" transform="translate(366.34375,192.91015625)"/>
<path d="M0 0 C36.81818182 0 36.81818182 0 47 8 C52.9468884 13.9468884 55.13245098 19.63810515 55.375 27.9375 C55.10011558 36.67882451 53.0165746 42.87975188 46.9453125 49.28125 C34.13215224 60.60211449 15.65491937 58 0 58 C0 38.86 0 19.72 0 0 Z " fill="#02025D" transform="translate(174,185)"/>
</svg>
