<?xml version="1.0" encoding="UTF-8"?>
<svg version="1.1" xmlns="http://www.w3.org/2000/svg" width="500" height="500">
<path d="M0 0 C165 0 330 0 500 0 C500 165 500 330 500 500 C335 500 170 500 0 500 C0 335 0 170 0 0 Z " fill="#FEFEFE" transform="translate(0,0)"/>
<path d="M0 0 C0.88558594 -0.01160156 1.77117187 -0.02320313 2.68359375 -0.03515625 C13.22140595 0.01126583 20.83182122 3.15449267 28.5 10.375 C33.49121191 15.81205001 37.21690807 21.84552916 37.6875 29.375 C37.5946875 30.365 37.5946875 30.365 37.5 31.375 C38.16 31.375 38.82 31.375 39.5 31.375 C39.52946035 34.99998242 39.54695131 38.62493332 39.5625 42.25 C39.57087891 43.26320312 39.57925781 44.27640625 39.58789062 45.3203125 C39.61840541 54.84092431 39.32640329 63.53269019 35.75 72.4375 C35.47905518 73.1286792 35.20811035 73.8198584 34.92895508 74.53198242 C30.06288301 86.69216075 23.05211191 98.53803581 11.5 105.375 C10.84 105.375 10.18 105.375 9.5 105.375 C9.005 106.86 9.005 106.86 8.5 108.375 C6.02669208 109.28461755 3.73884663 109.9674278 1.1875 110.5625 C0.4648999 110.73467041 -0.2577002 110.90684082 -1.00219727 111.08422852 C-12.47136519 113.64884957 -22.24203539 113.04148402 -32.5625 107.25 C-44.20745318 99.5099413 -48.99980196 88.02210185 -52.07421875 74.9296875 C-53.93662388 63.75525675 -52.54241939 51.87807181 -48.5 41.375 C-48.21125 40.58351562 -47.9225 39.79203125 -47.625 38.9765625 C-41.93469117 23.94466335 -33.70678063 11.54066585 -19.5 3.375 C-13.01777194 0.50340968 -7.03018768 -0.09209853 0 0 Z " fill="#093686" transform="translate(191.5,180.625)"/>
<path d="M0 0 C18.15 0 36.3 0 55 0 C54 14 54 14 53 16 C40.13 16 27.26 16 14 16 C13.67 19.63 13.34 23.26 13 27 C12.51222086 30.24259396 12.00451914 33.46035285 11.4375 36.6875 C10.963125 39.430625 10.48875 42.17375 10 45 C21.55 45 33.1 45 45 45 C44.34 50.28 43.68 55.56 43 61 C31.12 61 19.24 61 7 61 C6.34 66.61 5.68 72.22 5 78 C4.01 82.95 3.02 87.9 2 93 C14.87 93 27.74 93 41 93 C40 103 40 103 38 109 C19.52 109 1.04 109 -18 109 C-18 100.01352758 -18 100.01352758 -16.79296875 95.19921875 C-16.53749268 94.14976074 -16.2820166 93.10030273 -16.01879883 92.01904297 C-15.60730591 90.3699292 -15.60730591 90.3699292 -15.1875 88.6875 C-12.11866002 75.87337029 -9.83533633 63.17487473 -8.296875 50.09375 C-8.05261044 48.02077116 -7.80781403 45.94785491 -7.5625 43.875 C-7.44181152 42.85398193 -7.32112305 41.83296387 -7.19677734 40.78100586 C-6.28906461 33.46338137 -4.88823139 26.45406068 -2.96484375 19.33984375 C-1.54943227 12.9733573 -0.86196221 6.46471659 0 0 Z " fill="#0A3786" transform="translate(247,182)"/>
<path d="M0 0 C1.12317627 0.01353516 1.12317627 0.01353516 2.26904297 0.02734375 C10.37981588 0.28119102 15.76952065 2.1718393 21.4375 8.125 C30.57846603 19.47167477 30.59372496 32.50580969 29.625 46.4375 C28.5234343 54.22906225 25.60614341 62.13028824 19.625 67.4375 C11.63422013 73.02503781 4.25173431 74.66092323 -5.375 73.4375 C-12.87104305 72.0383903 -18.42060964 68.59872355 -22.84765625 62.36328125 C-29.99144692 50.42919363 -29.91605724 35.18029141 -27.79296875 21.7578125 C-25.66690923 14.28262607 -21.37772397 8.35730643 -15.375 3.4375 C-10.12900757 0.62960919 -5.81569884 -0.08369794 0 0 Z " fill="#093484" transform="translate(310.375,368.5625)"/>
<path d="M0 0 C1.01964844 -0.00515625 2.03929687 -0.0103125 3.08984375 -0.015625 C9.5115222 0.55819121 13.71139468 3.72319684 18.0625 8.25 C24.76059106 17.38193195 23.99088433 29.43324301 23.0625 40.25 C21.03939049 52.60073806 16.66764864 68.02859588 6.07421875 75.6875 C-1.53349024 80.58313723 -9.19530055 81.64087331 -18.171875 79.7890625 C-24.41674734 77.44032733 -27.59743525 72.53741401 -30.25 66.75 C-32.22344974 60.92591662 -32.33195016 55.21478027 -32.375 49.125 C-32.3850708 48.19494141 -32.3951416 47.26488281 -32.40551758 46.30664062 C-32.32750151 40.06978178 -31.1452181 35.04978113 -28.9375 29.25 C-28.48117188 27.6721875 -28.48117188 27.6721875 -28.015625 26.0625 C-24.60742585 14.48748401 -18.24300712 7.34103261 -8.0703125 1.10546875 C-5.29226512 -0.008803 -2.98679684 -0.01506581 0 0 Z " fill="#FAFBFC" transform="translate(189.9375,195.75)"/>
<path d="M0 0 C0.99 0.99 0.99 0.99 2 2 C1.6046932 5.68325543 0.34549646 8.90605696 -1.0625 12.3125 C-1.42472656 13.19550781 -1.78695312 14.07851562 -2.16015625 14.98828125 C-2.57587891 15.98408203 -2.57587891 15.98408203 -3 17 C-3.680625 16.855625 -4.36125 16.71125 -5.0625 16.5625 C-17.39298341 14.2013436 -29.18685193 12.73739839 -40.4375 19.21875 C-48.42458967 24.77075136 -52.28461186 31.11537619 -56 40 C-56.34675781 40.65613281 -56.69351562 41.31226563 -57.05078125 41.98828125 C-61.07306973 50.5128844 -60.52500505 67.06179225 -57.9375 76.0625 C-55.45381547 81.94674326 -51.50235618 88.26340848 -45.5625 91.0625 C-35.35525291 93.9958448 -23.15351037 92.15377493 -13 90 C-12.15318867 95.08086796 -11.90961901 99.84828377 -12 105 C-17.61072731 107.79237586 -22.67186997 109.7516263 -29 110 C-30.50433594 110.05994141 -30.50433594 110.05994141 -32.0390625 110.12109375 C-45.80135896 110.39505047 -57.06281342 107.89878849 -67.375 98.1875 C-77.41572657 87.26384656 -79.62022881 73.72880983 -79.21484375 59.18359375 C-77.92414626 40.05780363 -70.35712714 22.69776069 -56 10 C-53.14587462 7.65146255 -50.24253759 5.77265233 -47 4 C-45.9790625 3.43925781 -44.958125 2.87851563 -43.90625 2.30078125 C-30.94617562 -3.84951954 -13.68225523 -4.7479046 0 0 Z " fill="#093686" transform="translate(412,183)"/>
<path d="M0 0 C3.98896486 4.10984258 5.4814731 7.3791816 5.4375 13.125 C5.44910156 14.6409375 5.44910156 14.6409375 5.4609375 16.1875 C4.67682947 21.96837486 0.74118557 25.84977083 -2.9375 30.125 C-2.215625 30.351875 -1.49375 30.57875 -0.75 30.8125 C3.60828477 32.84636623 6.26313076 35.48819632 8.375 39.8125 C9.80703227 46.71229183 10.03511364 53.04354206 6.4609375 59.3046875 C2.4822867 64.48360167 -2.6855374 67.47777632 -8.9375 69.125 C-17.77770491 70.13038298 -27.39000246 70.36726639 -34.9375 65.125 C-39.74474961 61.1537938 -42.58172206 56.94558187 -43.37109375 50.6875 C-43.38424679 38.69192913 -43.38424679 38.69192913 -38.9375 34.125 C-34.51644737 30.125 -34.51644737 30.125 -31.9375 30.125 C-32.43121094 29.49851562 -32.92492187 28.87203125 -33.43359375 28.2265625 C-34.07425781 27.40929687 -34.71492187 26.59203125 -35.375 25.75 C-36.01308594 24.93789063 -36.65117187 24.12578125 -37.30859375 23.2890625 C-40.84427175 18.59178285 -40.5118099 13.83574354 -39.9375 8.125 C-37.12490139 2.28344905 -32.70441323 -1.75759274 -26.6875 -4.1875 C-17.27696287 -5.91276514 -8.21922763 -5.24631551 0 0 Z " fill="#093484" transform="translate(201.9375,372.875)"/>
<path d="M0 0 C23.76 0 47.52 0 72 0 C71 14 71 14 70 17 C60.76 17 51.52 17 42 17 C41.67 20.63 41.34 24.26 41 28 C40.58543337 29.9765812 40.12020904 31.9445444 39.56640625 33.88671875 C37.904754 40.14490268 36.8721912 46.41015202 35.9375 52.8125 C35.76831055 53.94091309 35.59912109 55.06932617 35.42480469 56.23193359 C34.19749492 64.47666483 33.03727064 72.72913144 32 81 C31.34 81 30.68 81 30 81 C29.95101562 81.75023437 29.90203125 82.50046875 29.8515625 83.2734375 C29.36060918 89.99441916 28.45832603 96.42613967 27 103 C26.67 104.65 26.34 106.3 26 108 C20.72 108 15.44 108 10 108 C10.33 103.05 10.66 98.1 11 93 C11.66 93 12.32 93 13 93 C13.05607422 91.99259766 13.05607422 91.99259766 13.11328125 90.96484375 C13.8626191 79.57784701 15.4603072 68.30218525 17 57 C17.66 57 18.32 57 19 57 C19.02578125 56.20722656 19.0515625 55.41445312 19.078125 54.59765625 C19.69579413 41.89332526 21.89849062 29.54126567 24 17 C15.42 17 6.84 17 -2 17 C-1.125 4.5 -1.125 4.5 0 0 Z " fill="#0A3786" transform="translate(78,182)"/>
<path d="M0 0 C14.19 0 28.38 0 43 0 C43 3.96 43 7.92 43 12 C32.77 12 22.54 12 12 12 C12 17.94 12 23.88 12 30 C13.27875 29.01 14.5575 28.02 15.875 27 C21.00791892 23.60487181 24.96859636 22.89392754 31 24 C38.36851106 26.18283478 41.84000333 29.37429131 45.75 35.9375 C48.61728246 43.19283352 47.98059664 52.2543669 45.4375 59.5 C42.36127039 66.09656278 37.5693554 69.64880808 30.91577148 72.38696289 C23.67042475 74.70543691 14.15767928 74.06119456 7.3125 70.875 C1.18854427 67.22121129 -2.16247846 63.01599135 -4 56 C-2.37750059 55.16180842 -0.75191503 54.3295884 0.875 53.5 C1.77992188 53.0359375 2.68484375 52.571875 3.6171875 52.09375 C6 51 6 51 8 51 C9.33333333 53 10.66666667 55 12 57 C15.74750737 60.42652172 18.66203208 60.5637668 23.5859375 60.42578125 C27.28723924 59.77296266 28.85425264 57.97635924 31 55 C32.65189223 50.04432332 32.54993333 45.03052307 31.1875 40 C30.09869127 37.66940637 30.09869127 37.66940637 27 37 C23.28601777 36.5975561 19.70540187 36.48245501 16 37 C15.195625 37.825 14.39125 38.65 13.5625 39.5 C10.34407549 42.63992635 9.07671633 42.33807818 4.6875 42.3125 C2.79132734 42.21470443 0.89541343 42.11154657 -1 42 C-1.06673101 32.35922255 -0.87692845 22.75877935 -0.5 13.125 C-0.335 8.79375 -0.17 4.4625 0 0 Z " fill="#0A3585" transform="translate(224,369)"/>
<path d="M0 0 C5.28 0 10.56 0 16 0 C14.125 16.47321429 14.125 16.47321429 12.9375 23.8125 C12.27604448 27.90334796 11.83029613 31.92772779 11.5625 36.0625 C11.26971732 40.00141658 10.68140725 43.61356227 9.65625 47.42578125 C7.80678297 54.60622771 6.3443035 61.84687252 4.9375 69.125 C4.80549194 69.8016571 4.67348389 70.47831421 4.53747559 71.17547607 C2.82551162 79.98889128 1.29612697 88.77503013 0.58178711 97.73486328 C0.25063702 101.72989841 -0.45159319 104.12898298 -2 108 C-7.28 108 -12.56 108 -18 108 C-18.25118742 99.71081529 -18.25118742 99.71081529 -17.06176758 96.3449707 C-15.86245442 92.56667923 -15.30268772 88.84261306 -14.81640625 84.92578125 C-14.60878319 83.35480988 -14.40109893 81.7838466 -14.19335938 80.21289062 C-13.87749147 77.7692505 -13.5641324 75.32531096 -13.25268555 72.88110352 C-12.19056084 64.60457848 -11.08014525 56.61869808 -8.68481445 48.60375977 C-7.36705971 43.593473 -6.88838266 38.4513873 -6.3125 33.3125 C-6.11817383 31.66991211 -6.11817383 31.66991211 -5.91992188 29.99414062 C-5.60583295 27.33020119 -5.2993182 24.66563228 -5 22 C-4.34 22 -3.68 22 -3 22 C-2.95101563 21.33355469 -2.90203125 20.66710937 -2.8515625 19.98046875 C-2.30248102 13.21161952 -1.29852549 6.66576419 0 0 Z " fill="#083585" transform="translate(315,183)"/>
<path d="M0 0 C4.18605611 1.83139955 5.51000742 4.5926197 7.3125 8.625 C10.70906957 18.96720775 10.68403921 31.84418233 6.25 41.8515625 C4.13901567 45.47981681 2.7771422 46.97153475 -1 49 C-5.14605955 49.80355226 -9.0130075 49.97897752 -12.87109375 48.078125 C-17.91735578 44.20219307 -20.04758259 39.09881327 -21 33 C-21.83803905 21.74756489 -22.01222526 10.7351777 -15 1.3125 C-10.07581969 -0.84182888 -5.2760359 -0.68148797 0 0 Z " fill="#F9FAFC" transform="translate(317,381)"/>
<path d="M0 0 C0.66 0.33 1.32 0.66 2 1 C1.31035156 1.4846875 0.62070313 1.969375 -0.08984375 2.46875 C-12.66988758 11.44216947 -24.20804567 20.97977974 -28.59765625 36.55859375 C-30.30142608 46.89700291 -29.43010252 55.1748733 -23.75 63.92578125 C-18.643684 70.7003539 -10.2437915 74.52072465 -2 76 C2.25295902 76.30912524 6.48725351 76.32463766 10.75 76.3125 C11.86632812 76.32861328 12.98265625 76.34472656 14.1328125 76.36132812 C21.55915943 76.36565583 27.96379036 75.35570689 35 73 C36.1653125 72.61199219 37.330625 72.22398437 38.53125 71.82421875 C48.89007458 67.85787934 57.71561142 63.40307065 66 56 C66.66 56 67.32 56 68 56 C64.5992154 64.86204459 50.07350302 72.05295408 42 76 C24.5760649 83.30938914 3.72719567 88.12825639 -14.875 82.375 C-25.42603768 78.00429399 -33.15566364 71.51939802 -38.15551758 61.22119141 C-39.5858796 57.45899608 -39.72400605 53.86810595 -39.6875 49.875 C-39.68097412 49.04750244 -39.67444824 48.22000488 -39.66772461 47.36743164 C-39.16766666 34.3922437 -32.09606985 24.83353473 -23 16 C-22.31292969 15.30390625 -21.62585938 14.6078125 -20.91796875 13.890625 C-16.52553348 9.68562204 -11.79779292 6.4773475 -6.5625 3.4375 C-5.94673096 3.07833496 -5.33096191 2.71916992 -4.6965332 2.34912109 C-3.16748392 1.49707332 -1.5865257 0.73953588 0 0 Z " fill="#0E3987" transform="translate(227,66)"/>
<path d="M0 0 C0.79921875 0.45890625 1.5984375 0.9178125 2.421875 1.390625 C9.44625212 5.75216635 15.73824055 11.60884599 17.6875 19.9375 C17.82322695 21.28886829 17.92079195 22.6441445 18 24 C18.06445312 25.05960938 18.12890625 26.11921875 18.1953125 27.2109375 C18.60579864 39.82654487 14.6726383 49.01440421 7 59 C5.37551999 60.38442055 3.71769822 61.73308707 2 63 C2.43119141 61.93265625 2.43119141 61.93265625 2.87109375 60.84375 C3.97052465 58.07424933 5.03003207 55.29512232 6.0625 52.5 C6.40410156 51.5821875 6.74570312 50.664375 7.09765625 49.71875 C9.88077184 41.33325887 10.84087271 30.39639983 7.4375 22.0625 C2.25162058 12.46771961 -4.74780341 7.41739886 -15 4 C-35.68032194 2.12040332 -52.7687433 6.61067814 -69 20 C-64.39574063 9.88825334 -53.45027966 3.51133382 -43.4375 -0.3125 C-41.63384333 -0.90274158 -39.82138644 -1.46697661 -38 -2 C-37.2471875 -2.22558594 -36.494375 -2.45117188 -35.71875 -2.68359375 C-24.35109065 -5.50604342 -10.31431028 -6.01049736 0 0 Z " fill="#8E2E31" transform="translate(295,57)"/>
<path d="M0 0 C7.26 0 14.52 0 22 0 C22 2.31 22 4.62 22 7 C17.05 7 12.1 7 7 7 C6.67 9.64 6.34 12.28 6 15 C10.29 15 14.58 15 19 15 C19 17.31 19 19.62 19 22 C14.05 22 9.1 22 4 22 C4 24.97 4 27.94 4 31 C8.62 31 13.24 31 18 31 C18 33.31 18 35.62 18 38 C10.41 38 2.82 38 -5 38 C-4.71125 35.73125 -4.4225 33.4625 -4.125 31.125 C-3.23252682 24.07261027 -2.43218711 17.01249686 -1.69775391 9.94189453 C-1.33178858 6.522382 -0.83646885 3.34587539 0 0 Z " fill="#0D3887" transform="translate(216,83)"/>
<path d="M0 0 C1.76923828 0.01353516 1.76923828 0.01353516 3.57421875 0.02734375 C4.47785156 0.03894531 5.38148438 0.05054687 6.3125 0.0625 C5.9825 2.7025 5.6525 5.3425 5.3125 8.0625 C-1.1225 8.5575 -1.1225 8.5575 -7.6875 9.0625 C-5.68619963 14.06575092 -5.40942844 14.69354008 -1.1875 17.25 C1.27374024 18.76430203 3.2638068 20.0138068 5.3125 22.0625 C6.030986 26.78278595 6.02091246 30.82933757 3.625 35 C-0.68511194 38.84415389 -3.85261611 40.48215472 -9.6875 40.4375 C-10.698125 40.44523437 -11.70875 40.45296875 -12.75 40.4609375 C-16.04994598 40.01333844 -17.97475269 38.94746045 -20.6875 37.0625 C-20.08566251 35.04204558 -19.41443904 33.04138961 -18.6875 31.0625 C-18.0275 30.7325 -17.3675 30.4025 -16.6875 30.0625 C-16.130625 30.371875 -15.57375 30.68125 -15 31 C-11.79175167 32.47406005 -9.17330822 32.32070802 -5.6875 32.0625 C-3.5489515 29.9239515 -3.26094937 28.92974686 -2.6875 26.0625 C-3.7084375 25.753125 -3.7084375 25.753125 -4.75 25.4375 C-9.01610149 23.44060143 -13.53538222 20.36673557 -15.6875 16.0625 C-16.48061581 9.37766673 -16.48061581 9.37766673 -14.453125 6.015625 C-10.0069479 0.68901679 -6.96806645 -0.06899076 0 0 Z " fill="#133D8A" transform="translate(281.6875,81.9375)"/>
<path d="M0 0 C3.10118526 2.04396302 4.32061104 3.3978486 5.75 6.8125 C6.33763137 10.75802489 5.91374881 12.49713193 4.0625 16.0625 C0.54131098 20.24985991 -1.81323433 20.67566517 -7.1875 21.1875 C-11.44536512 21.09073034 -13.96514128 19.53652918 -17.25 16.8125 C-19.10855282 13.09539437 -18.82908439 8.85972719 -18.25 4.8125 C-13.43764045 -1.56062481 -7.45270913 -2.72310526 0 0 Z " fill="#F7F8FB" transform="translate(191.25,409.1875)"/>
<path d="M0 0 C8.91 0 17.82 0 27 0 C25.68 2.31 24.36 4.62 23 7 C20.03 7 17.06 7 14 7 C13.95101562 7.7528125 13.90203125 8.505625 13.8515625 9.28125 C13.39465355 15.77250812 12.7911089 22.22946817 12 28.6875 C11.8755249 29.72970703 11.8755249 29.72970703 11.74853516 30.79296875 C11.12200227 35.75599546 11.12200227 35.75599546 10 38 C7.69 38 5.38 38 3 38 C3.39680923 31.24380077 3.88853458 24.72074524 5.5234375 18.14453125 C6.34136994 14.46383527 6.64284347 10.75014352 7 7 C4.36 7 1.72 7 -1 7 C-0.67 4.69 -0.34 2.38 0 0 Z " fill="#093585" transform="translate(241,83)"/>
<path d="M0 0 C2.5625 2 2.5625 2 4 5 C4.2824359 9.12790927 3.96592104 12.67185857 1.5 16.0625 C-2.36828398 17.51310649 -5.92890417 17.63494155 -10 17 C-12.5625 15.625 -12.5625 15.625 -14 13 C-14.65298217 9.52128081 -14.74776654 6.46848632 -14 3 C-9.87867302 -1.4304265 -5.52682385 -1.98308542 0 0 Z " fill="#F7F8FB" transform="translate(190,380)"/>
<path d="M0 0 C3.15717369 1.15506355 4.62397626 2.1788316 6.5625 4.9375 C6.49748241 8.12336196 6.08164046 10.11780454 4.375 12.8125 C1.66225061 14.49627549 -0.31625511 14.32765561 -3.4375 13.9375 C-5.375 12.9375 -5.375 12.9375 -6.4375 10.9375 C-6.55284076 7.24659577 -6.1121432 4.05066128 -4.1875 0.875 C-2.4375 -0.0625 -2.4375 -0.0625 0 0 Z " fill="#B5C3DA" transform="translate(414.4375,277.0625)"/>
<path d="M0 0 C0.66 0 1.32 0 2 0 C-1.65780879 9.53181938 -17.70258399 17.10853938 -26.390625 21.09765625 C-29.8140116 22.46067129 -32.27533908 23 -36 23 C-36 22.34 -36 21.68 -36 21 C-36.66 20.34 -37.32 19.68 -38 19 C-37.2471875 18.8040625 -36.494375 18.608125 -35.71875 18.40625 C-23.15035277 14.86757505 -9.3975387 9.3975387 0 0 Z " fill="#244991" transform="translate(293,122)"/>
<path d="M0 0 C0 1.65 0 3.3 0 5 C-0.9178125 5.43570313 -1.835625 5.87140625 -2.78125 6.3203125 C-9.69307974 9.65572693 -16.10479139 13.00188835 -22 18 C-18.72992689 10.81835617 -8.26804693 0 0 0 Z " fill="#994346" transform="translate(248,59)"/>
<path d="M0 0 C2.31 0.33 4.62 0.66 7 1 C7.6875 4.3125 7.6875 4.3125 8 8 C6.5625 9.9375 6.5625 9.9375 5 11 C4.01 10.67 3.02 10.34 2 10 C2.66 10 3.32 10 4 10 C4 9.01 4 8.02 4 7 C3.01 7.33 2.02 7.66 1 8 C0.67 6.68 0.34 5.36 0 4 C0.33 5.98 0.66 7.96 1 10 C0.34 10 -0.32 10 -1 10 C-2.25 3.375 -2.25 3.375 0 0 Z " fill="#99ACCD" transform="translate(303,121)"/>
<path d="M0 0 C-1.54558018 4.13725427 -4.25335699 5.99220645 -7.75 8.5625 C-8.77609375 9.32691406 -9.8021875 10.09132812 -10.859375 10.87890625 C-13.820187 12.87855913 -16.7687413 14.48595214 -20 16 C-20 15.34 -20 14.68 -20 14 C-20.66 13.67 -21.32 13.34 -22 13 C-21.14277344 12.56429687 -20.28554688 12.12859375 -19.40234375 11.6796875 C-14.38878958 9.06834362 -4.7334434 0 0 0 Z " fill="#345598" transform="translate(295,122)"/>
<path d="M0 0 C1.65 0.33 3.3 0.66 5 1 C5.33 2.32 5.66 3.64 6 5 C6.66 4.01 7.32 3.02 8 2 C8.22223194 4.74086056 8.34781139 6.43963721 6.875 8.8125 C4.22464043 10.49106106 2.06753576 10.20450238 -1 10 C-1.33 9.01 -1.66 8.02 -2 7 C-0.35 7 1.3 7 3 7 C3 6.34 3 5.68 3 5 C2.01 5 1.02 5 0 5 C0 3.35 0 1.7 0 0 Z " fill="#98ABCC" transform="translate(412,281)"/>
<path d="M0 0 C9.57 0 19.14 0 29 0 C29.33 0.99 29.66 1.98 30 3 C28.35 4.65 26.7 6.3 25 8 C24.375 6.125 24.375 6.125 24 4 C24.66 3.34 25.32 2.68 26 2 C13.13 1.505 13.13 1.505 0 1 C0 0.67 0 0.34 0 0 Z " fill="#BECADF" transform="translate(241,82)"/>
<path d="M0 0 C0.66 0.33 1.32 0.66 2 1 C-3.28 6.28 -8.56 11.56 -14 17 C-14 12.95607032 -12.51908749 11.99868382 -9.8125 9.0625 C-9.03519531 8.20785156 -8.25789062 7.35320312 -7.45703125 6.47265625 C-5.09786332 4.09848566 -2.65532732 2.0327639 0 0 Z " fill="#CFD8E7" transform="translate(220,72)"/>
<path d="M0 0 C0.66 0.33 1.32 0.66 2 1 C0.2527456 2.29537826 -1.49791517 3.58616273 -3.25 4.875 C-4.22453125 5.59429687 -5.1990625 6.31359375 -6.203125 7.0546875 C-8.43902154 8.60982225 -10.52872493 9.88204223 -13 11 C-13.66 10.34 -14.32 9.68 -15 9 C-13.25156882 7.87256334 -11.5011906 6.7481458 -9.75 5.625 C-8.77546875 4.99851562 -7.8009375 4.37203125 -6.796875 3.7265625 C-2.18608936 0.88023952 -2.18608936 0.88023952 0 0 Z " fill="#3B5B9C" transform="translate(227,66)"/>
<path d="M0 0 C-1.38167466 3.15712659 -2.96996213 5.11651187 -5.5 7.4375 C-8.26040574 10.10034462 -9.96797698 12.21591561 -11 16 C-11.66 16 -12.32 16 -13 16 C-11.70127848 11.18626046 -9.87520666 8.27416824 -6.5 4.625 C-5.7059375 3.75101563 -4.911875 2.87703125 -4.09375 1.9765625 C-2 0 -2 0 0 0 Z " fill="#C0CCE0" transform="translate(177,201)"/>
<path d="M0 0 C8.91 0 17.82 0 27 0 C25.68 1.65 24.36 3.3 23 5 C23 3.68 23 2.36 23 1 C15.41 1.33 7.82 1.66 0 2 C0 1.34 0 0.68 0 0 Z " fill="#214890" transform="translate(241,83)"/>
<path d="M0 0 C-0.96441531 2.41103827 -1.68797047 3.77404758 -3.8125 5.3125 C-6.54191176 6.17031512 -8.27678692 5.75644808 -11 5 C-8.12934225 2.12934225 -4.13678472 0 0 0 Z " fill="#0D3685" transform="translate(275,136)"/>
<path d="M0 0 C-1.38188453 3.21043882 -2.92421903 5.04936365 -5.625 7.25 C-6.57246094 8.03117188 -6.57246094 8.03117188 -7.5390625 8.828125 C-8.02117187 9.21484375 -8.50328125 9.6015625 -9 10 C-9 7 -9 7 -7.5390625 5.17578125 C-6.90742188 4.56089844 -6.27578125 3.94601563 -5.625 3.3125 C-4.68527344 2.37857422 -4.68527344 2.37857422 -3.7265625 1.42578125 C-2 0 -2 0 0 0 Z " fill="#C2CDE1" transform="translate(371,203)"/>
<path d="M0 0 C0.66 0.33 1.32 0.66 2 1 C0.84881881 4.45354356 -0.0563512 5.05140647 -2.9375 7.125 C-3.64777344 7.64320312 -4.35804688 8.16140625 -5.08984375 8.6953125 C-7 10 -7 10 -9 11 C-7.59155282 7.78475695 -5.89655214 5.67816132 -3.375 3.25 C-2.74335938 2.63640625 -2.11171875 2.0228125 -1.4609375 1.390625 C-0.73777344 0.70226562 -0.73777344 0.70226562 0 0 Z " fill="#9D4C4E" transform="translate(235,66)"/>
<path d="M0 0 C0.66 0 1.32 0 2 0 C0.48328036 4.55015893 -3.16891053 6.50057264 -7 9 C-7.66 8.34 -8.32 7.68 -9 7 C-8.43410156 6.57847656 -7.86820312 6.15695313 -7.28515625 5.72265625 C-6.55167969 5.17480469 -5.81820313 4.62695312 -5.0625 4.0625 C-4.33160156 3.51722656 -3.60070312 2.97195312 -2.84765625 2.41015625 C-1.0865547 1.13092062 -1.0865547 1.13092062 0 0 Z " fill="#6A82B3" transform="translate(293,122)"/>
<path d="M0 0 C0.66 1.32 1.32 2.64 2 4 C2.66 4 3.32 4 4 4 C4.33 5.65 4.66 7.3 5 9 C3.35 8.67 1.7 8.34 0 8 C-0.38063221 5.6739143 -0.71269945 3.33944736 -1 1 C-0.67 0.67 -0.34 0.34 0 0 Z " fill="#D7DEEA" transform="translate(303,124)"/>
<path d="M0 0 C2.475 0.495 2.475 0.495 5 1 C4.67 2.32 4.34 3.64 4 5 C2.68 5 1.36 5 0 5 C0 3.35 0 1.7 0 0 Z " fill="#7991BD" transform="translate(412,281)"/>
<path d="M0 0 C1.32 0.33 2.64 0.66 4 1 C1.47211993 3.79872437 -0.20411134 5.45773019 -4 6 C-2.68 4.02 -1.36 2.04 0 0 Z " fill="#913538" transform="translate(239,63)"/>
<path d="M0 0 C0.66 0 1.32 0 2 0 C0.70700306 2.88437779 -0.65941363 4.87219421 -3 7 C-3.66 6.67 -4.32 6.34 -5 6 C-3.38405168 3.95880212 -1.7143618 1.95927063 0 0 Z " fill="#2D5195" transform="translate(161,192)"/>
<path d="M0 0 C2.475 0.495 2.475 0.495 5 1 C5.625 2.875 5.625 2.875 6 5 C5.34 5.66 4.68 6.32 4 7 C3.566875 5.824375 3.566875 5.824375 3.125 4.625 C2.15087746 1.90328368 2.15087746 1.90328368 0 0 Z " fill="#506EA7" transform="translate(408,183)"/>
<path d="M0 0 C0.66 0.99 1.32 1.98 2 3 C0.35 4.65 -1.3 6.3 -3 8 C-3.33 6.68 -3.66 5.36 -4 4 C-2.68 3.67 -1.36 3.34 0 3 C0 2.01 0 1.02 0 0 Z " fill="#D8DFEC" transform="translate(269,82)"/>
</svg>
