<?xml version="1.0" encoding="UTF-8"?>
<svg version="1.1" xmlns="http://www.w3.org/2000/svg" width="500" height="500">
<path d="M0 0 C165 0 330 0 500 0 C500 165 500 330 500 500 C335 500 170 500 0 500 C0 335 0 170 0 0 Z " fill="#FEFEFE" transform="translate(0,0)"/>
<path d="M0 0 C18.50622815 -0.30395148 37.01194861 -0.53305332 55.52015686 -0.67355824 C64.11438528 -0.74053822 72.70706125 -0.8318127 81.30029297 -0.98071289 C88.79206574 -1.11046532 96.2827143 -1.19419589 103.77557945 -1.22315043 C107.74218334 -1.24007349 111.70557192 -1.27969736 115.67114258 -1.37449074 C119.40852874 -1.46310129 123.1413953 -1.4898896 126.87973213 -1.47039986 C128.89696771 -1.47565331 130.91371567 -1.54544792 132.92967224 -1.61746216 C136.70831139 -1.561849 139.47800941 -1.38420208 143 0 C146.57879909 3.99209854 148.73151789 8.13278938 151 13 C151.71782945 14.25765508 152.44795711 15.50858581 153.20239258 16.74462891 C154.04000122 18.22068604 154.04000122 18.22068604 154.89453125 19.7265625 C155.8546814 21.41362305 155.8546814 21.41362305 156.83422852 23.13476562 C157.15739044 23.70493408 157.48055237 24.27510254 157.81350708 24.86254883 C159.54290905 27.91360801 161.27994241 30.96032341 163.015625 34.0078125 C163.52906212 34.91004547 163.52906212 34.91004547 164.0528717 35.83050537 C168.27814798 43.25240431 172.56118907 50.64035637 176.85546875 58.02246094 C177.96499999 59.93952644 179.06256721 61.86292041 180.15625 63.7890625 C180.7853125 64.88992187 181.414375 65.99078125 182.0625 67.125 C182.58972656 68.05570312 183.11695313 68.98640625 183.66015625 69.9453125 C184.83790095 72.12933938 184.83790095 72.12933938 187 73 C187.26466064 72.29254639 187.52932129 71.58509277 187.80200195 70.85620117 C189.0622334 67.85162654 190.54383309 65.12499202 192.16796875 62.30078125 C192.80669922 61.18654785 193.44542969 60.07231445 194.10351562 58.92431641 C194.79810056 57.72033346 195.49276396 56.51639576 196.1875 55.3125 C196.90456364 54.0644436 197.62135663 52.81623165 198.33789062 51.56787109 C200.55411206 47.70932579 202.77674315 43.85449442 205 40 C205.69747745 38.78990458 206.39490697 37.57978154 207.09228516 36.36962891 C209.65077244 31.93048445 212.20992532 27.49173026 214.77416992 23.0559082 C219.20845793 15.38482204 223.60377671 7.69339076 228 0 C274.86 0 321.72 0 370 0 C369.1582897 5.0502618 368.72034424 7.00543948 366.26171875 11.09765625 C365.4119043 12.53044922 365.4119043 12.53044922 364.54492188 13.9921875 C363.93197266 15.00539063 363.31902344 16.01859375 362.6875 17.0625 C361.39885616 19.22994376 360.1111109 21.39792199 358.82421875 23.56640625 C358.17759277 24.65066895 357.5309668 25.73493164 356.86474609 26.85205078 C354.1881849 31.37045613 351.59067899 35.93199231 349 40.5 C344.77515374 47.92305488 340.49821253 55.31399171 336.1875 62.6875 C328.73915494 75.42817144 321.36575055 88.21144805 314 101 C306.12337411 114.67554314 298.22879908 128.33960958 290.26708984 141.96582031 C284.10511341 152.51883187 278.00382161 163.1066104 271.90429688 173.69580078 C269.98493338 177.02614252 268.06317647 180.35509148 266.140625 183.68359375 C260.38386841 193.65143316 254.63634324 203.6239207 248.9375 213.625 C244.15243103 222.01932313 239.29586808 230.37039647 234.41943359 238.71191406 C228.20441055 249.3482831 222.05310091 260.02105818 215.90429688 270.69580078 C213.98493338 274.02614252 212.06317647 277.35509148 210.140625 280.68359375 C202.39097206 294.10190146 194.67269671 307.53753017 187 321 C186.34 321 185.68 321 185 321 C183.74169922 319.24121094 183.74169922 319.24121094 182.3046875 316.734375 C181.76199219 315.7959375 181.21929687 314.8575 180.66015625 313.890625 C180.07105469 312.85421875 179.48195312 311.8178125 178.875 310.75 C178.25753906 309.6775 177.64007813 308.605 177.00390625 307.5 C175.33595102 304.59862697 173.67481516 301.6935909 172.01794434 298.78588867 C170.68215437 296.4423694 169.34325037 294.10063619 168.00442505 291.7588501 C165.65543515 287.6501138 163.30778298 283.54062263 160.96435547 279.42871094 C156.686833 271.92656297 152.36377619 264.45237038 148 257 C142.88272275 248.26009217 137.82962565 239.48512958 132.8125 230.6875 C124.37251585 215.8897302 115.84030053 201.14846386 107.25 186.4375 C99.14632153 172.55977001 91.12523806 158.6347513 83.10449219 144.70898438 C76.43043688 133.12318234 69.74535916 121.54446647 63 110 C56.25729405 98.46007441 49.57537475 86.88564479 42.90429688 75.30419922 C40.98493338 71.97385748 39.06317647 68.64490852 37.140625 65.31640625 C30.90420131 54.51802198 24.68395926 43.71121836 18.51391602 32.87475586 C13.86550875 24.72802208 9.12636195 16.63455709 4.36694336 8.55224609 C3.7972583 7.58109863 3.22757324 6.60995117 2.640625 5.609375 C1.87540527 4.3095166 1.87540527 4.3095166 1.09472656 2.98339844 C0 1 0 1 0 0 Z " fill="#41B783" transform="translate(65,89)"/>
<path d="M0 0 C8.72717189 -0.30202876 17.45253137 -0.53257939 26.18379974 -0.67355824 C30.23900132 -0.74124797 34.29061459 -0.83291459 38.34375 -0.98071289 C42.2603887 -1.12262976 46.17359356 -1.19981365 50.09260559 -1.23340416 C51.58256643 -1.25731553 53.07235115 -1.30402408 54.56083679 -1.37449074 C59.26734707 -1.58831334 63.47941347 -1.53741129 68 0 C71.7400656 3.93168725 73.76528984 8.04345866 76 13 C76.71475713 14.25940369 77.44392561 15.51105553 78.20239258 16.74462891 C78.76079834 17.72866699 79.3192041 18.71270508 79.89453125 19.7265625 C80.53463135 20.85126953 81.17473145 21.97597656 81.83422852 23.13476562 C82.15739044 23.70493408 82.48055237 24.27510254 82.81350708 24.86254883 C84.54290905 27.91360801 86.27994241 30.96032341 88.015625 34.0078125 C88.52906212 34.91004547 88.52906212 34.91004547 89.0528717 35.83050537 C93.27814798 43.25240431 97.56118907 50.64035637 101.85546875 58.02246094 C102.96499999 59.93952644 104.06256721 61.86292041 105.15625 63.7890625 C105.7853125 64.88992187 106.414375 65.99078125 107.0625 67.125 C107.58972656 68.05570312 108.11695313 68.98640625 108.66015625 69.9453125 C109.83790095 72.12933938 109.83790095 72.12933938 112 73 C112.39699097 71.93881958 112.39699097 71.93881958 112.80200195 70.85620117 C114.0622334 67.85162654 115.54383309 65.12499202 117.16796875 62.30078125 C117.80669922 61.18654785 118.44542969 60.07231445 119.10351562 58.92431641 C119.79810056 57.72033346 120.49276396 56.51639576 121.1875 55.3125 C121.90456364 54.0644436 122.62135663 52.81623165 123.33789062 51.56787109 C125.55411206 47.70932579 127.77674315 43.85449442 130 40 C130.69747745 38.78990458 131.39490697 37.57978154 132.09228516 36.36962891 C134.65077244 31.93048445 137.20992532 27.49173026 139.77416992 23.0559082 C144.20845793 15.38482204 148.60377671 7.69339076 153 0 C175.77 0 198.54 0 222 0 C213.97220032 16.05559937 213.97220032 16.05559937 209.9375 22.875 C209.24769043 24.05437134 209.24769043 24.05437134 208.54394531 25.25756836 C207.55241694 26.95222541 206.55904705 28.64580617 205.56396484 30.33837891 C202.78169899 35.07335586 200.01720886 39.81871338 197.25 44.5625 C196.66331543 45.56732422 196.07663086 46.57214844 195.47216797 47.60742188 C189.23938261 58.28834119 183.06373652 69.00201039 176.89111328 79.71777344 C173.76319852 85.14659942 170.63141552 90.57319281 167.5 96 C166.24998121 98.16665583 164.99998122 100.3333225 163.75 102.5 C161.25 106.83333333 158.75 111.16666667 156.25 115.5 C155.63116943 116.57266113 155.01233887 117.64532227 154.37475586 118.75048828 C153.12564482 120.91557071 151.87645871 123.08060982 150.62719727 125.24560547 C147.48797691 130.68615706 144.35009437 136.12747216 141.21484375 141.5703125 C134.36527208 153.45791858 127.49108041 165.33041168 120.56616211 177.17431641 C117.68548822 182.10220235 114.82092252 187.03764725 112 192 C108.35248225 190.78416075 108.14744257 189.99712003 106.35546875 186.71484375 C105.85096191 185.80436279 105.34645508 184.89388184 104.82666016 183.95581055 C104.2857373 182.95976807 103.74481445 181.96372559 103.1875 180.9375 C102.01327424 178.8168463 100.83744297 176.69708093 99.66015625 174.578125 C99.05445801 173.48435547 98.44875977 172.39058594 97.82470703 171.26367188 C94.99269899 166.19834092 92.06232003 161.19227026 89.125 156.1875 C82.32989132 144.58131813 75.60409535 132.93606035 68.89111328 121.28222656 C65.76319852 115.85340058 62.63141552 110.42680719 59.5 105 C58.24998121 102.83334417 56.99998122 100.6666775 55.75 98.5 C55.13125 97.4275 54.5125 96.355 53.875 95.25 C48.25 85.5 48.25 85.5 46.37475586 82.24951172 C45.12564482 80.08442929 43.87645871 77.91939018 42.62719727 75.75439453 C39.48797691 70.31384294 36.35009437 64.87252784 33.21484375 59.4296875 C27.02488968 48.68691081 20.81646105 37.95566185 14.5625 27.25 C12.87829732 24.36386668 11.19452248 21.47748486 9.51123047 18.59082031 C8.54751996 16.93865619 7.58307834 15.28691817 6.61767578 13.63574219 C5.44909778 11.63464783 4.28598431 9.63050634 3.125 7.625 C2.50882813 6.56539063 1.89265625 5.50578125 1.2578125 4.4140625 C0 2 0 2 0 0 Z " fill="#34495E" transform="translate(140,89)"/>
</svg>
