<?xml version="1.0" encoding="UTF-8"?>
<svg version="1.1" xmlns="http://www.w3.org/2000/svg" width="1080" height="1080">
<path d="M0 0 C356.4 0 712.8 0 1080 0 C1080 356.4 1080 712.8 1080 1080 C723.6 1080 367.2 1080 0 1080 C0 723.6 0 367.2 0 0 Z " fill="#393939" transform="translate(0,0)"/>
<path d="M0 0 C3.61350146 0.11330637 7.22733139 0.12315492 10.84233499 0.14445734 C17.67268362 0.20018912 24.49778438 0.34755702 31.32583147 0.52874815 C39.10512054 0.73065446 46.88467419 0.8290798 54.66593516 0.91926599 C70.65828105 1.10691619 86.64540378 1.42304941 102.63388467 1.82509089 C101.38459841 4.1881553 100.13295502 6.54992156 98.87997842 8.91102839 C98.53140786 9.57094782 98.18283731 10.23086725 97.823704 10.91078424 C94.88040945 16.45010205 91.70017256 21.81749679 88.43466592 27.17274714 C84.68313596 33.37074303 81.04191957 39.63416804 77.38388467 45.88759089 C75.88940678 48.44116007 74.39458164 50.99452573 72.89950967 53.54774714 C72.34939469 54.487232 72.34939469 54.487232 71.78816628 55.44569635 C68.58465279 60.91413601 65.3626625 66.37153138 62.13388467 71.82509089 C56.74069231 80.93611089 51.38363939 90.06806402 46.03339028 99.20433283 C41.35514922 107.19244735 36.66264785 115.17184494 31.94638467 123.13759089 C23.10810619 138.07446039 14.33449616 153.04817623 5.75888467 168.13759089 C0.58066023 177.24157951 -4.74299366 186.25537292 -10.09438682 195.25844049 C-15.02597062 203.55575597 -19.92613642 211.87085766 -24.80361533 220.20009089 C-25.15423026 220.79870935 -25.50484519 221.39732782 -25.86608481 222.01408625 C-27.64697978 225.0548292 -29.427389 228.09585611 -31.20742393 231.1371026 C-34.84187014 237.34664395 -38.47843339 243.55494461 -42.11611533 249.76259089 C-42.47309501 250.37181391 -42.83007468 250.98103693 -43.19787192 251.60872126 C-47.73848086 259.35668911 -52.29259021 267.09649418 -56.86611533 274.82509089 C-71.11833841 298.76017963 -71.11833841 298.76017963 -84.92861533 322.95009089 C-89.43477084 331.06360298 -94.19746749 339.02506233 -98.94057822 347.00136042 C-103.94832914 355.42373466 -108.91825077 363.86740897 -113.86611533 372.32509089 C-119.39885885 381.78046589 -124.96042077 391.21783024 -130.55361533 400.63759089 C-136.66732291 410.93647616 -142.72314035 421.2675443 -148.74892783 431.61805964 C-152.71210056 438.42409289 -156.69416914 445.21900098 -160.67861533 452.01259089 C-161.21039893 452.9193104 -161.21039893 452.9193104 -161.75292563 453.84434748 C-163.19639083 456.3054587 -164.63988909 458.7665505 -166.0835073 461.22757196 C-168.64680151 465.59765808 -171.20808558 469.96891804 -173.76845908 474.34071589 C-180.24835705 485.40444563 -186.73100647 496.46660429 -193.24111533 507.51259089 C-193.7035665 508.29948298 -194.16601768 509.08637506 -194.64248252 509.89711237 C-195.58254356 511.48955745 -196.55279921 513.0645373 -197.55137229 514.62095881 C-199.01199023 517.19984336 -200.02898939 519.49674019 -201.06678367 522.24286127 C-203.312513 527.55535092 -205.75325777 532.2194876 -210.36611533 535.82509089 C-218.93979163 538.91709823 -228.55522436 537.98203649 -237.53030157 537.65018177 C-241.11577067 537.53686603 -244.70157168 537.52702619 -248.28855491 537.50572443 C-255.06579963 537.44999512 -261.83775461 537.30263151 -268.61267954 537.12143362 C-276.33150429 536.9195188 -284.05059589 536.8211 -291.7714082 536.73091578 C-307.63936401 536.54327137 -323.50205515 536.22714396 -339.36611533 535.82509089 C-337.94137116 531.36809011 -336.2763589 527.74511134 -333.80361533 523.76259089 C-332.98805645 522.43163454 -332.17443078 521.09949263 -331.36220908 519.76649714 C-330.89540732 519.00095514 -330.42860557 518.23541315 -329.9476583 517.44667292 C-326.69989417 512.0631454 -323.54025961 506.62722479 -320.36611533 501.20009089 C-319.62856138 499.94036199 -318.89093035 498.68067822 -318.15322471 497.42103815 C-315.89003822 493.55620016 -313.62804238 489.69066606 -311.36611533 485.82509089 C-308.51295926 480.94949876 -305.65897766 476.07439129 -302.80361533 471.20009089 C-302.277844 470.30246531 -302.277844 470.30246531 -301.74145103 469.38670588 C-296.58118584 460.57898145 -291.38958207 451.79041582 -286.17861533 443.01259089 C-280.65446883 433.70664245 -275.16918821 424.37936823 -269.72695518 415.0252862 C-266.55395794 409.57228559 -263.37066492 404.12563656 -260.17080283 398.68837214 C-252.92515082 386.37191513 -245.74737424 374.02822844 -238.74770713 361.56947565 C-235.60837905 355.99190155 -232.40446945 350.46984466 -229.08315635 344.99843073 C-225.08504907 338.39947553 -221.19903412 331.73493779 -217.30361533 325.07509089 C-211.62524091 315.36958055 -205.92016857 305.68087885 -200.17861533 296.01259089 C-194.6521335 286.70306058 -189.16521935 277.37179495 -183.72036338 268.01429987 C-180.5836852 262.62419744 -177.43808038 257.23955427 -174.27627158 251.86415339 C-167.18827528 239.80999625 -160.14972947 227.73309304 -153.24111533 215.57509089 C-147.51835505 205.50416438 -141.64362049 195.53628364 -135.65639853 185.62050104 C-132.02098635 179.59659852 -128.4358615 173.54947721 -124.92861533 167.45009089 C-120.53409604 159.80766446 -116.05626657 152.21675271 -111.55361533 144.63759089 C-105.90103667 135.12039913 -100.2888313 125.580839 -94.71963096 116.01454401 C-90.17825782 108.2140077 -85.61995105 100.42352803 -81.05361533 92.63759089 C-80.69776359 92.03078485 -80.34191184 91.42397882 -79.97527671 90.79878473 C-78.16348695 87.70932048 -76.35152315 84.61995837 -74.53945518 81.53065729 C-71.68640308 76.66645043 -68.83467626 71.80146695 -65.98305869 66.93641901 C-64.57404071 64.53258277 -63.16467654 62.12895 -61.75503135 59.72548151 C-58.50789298 54.18854226 -55.26275857 48.65046558 -52.02596641 43.10747004 C-50.53877524 40.56099025 -49.05026431 38.01528303 -47.56167197 35.46962214 C-46.54404808 33.72817409 -45.52827294 31.9856461 -44.51259971 30.24305964 C-43.23434626 28.0576173 -41.92652164 25.88914405 -40.58668113 23.74090815 C-38.93368763 20.98677468 -37.7234835 18.25967696 -36.58768821 15.25778437 C-29.39399884 -1.85717904 -16.51866861 -0.60597641 0 0 Z " fill="#FEFEFE" transform="translate(717.3661153316498,271.17490911483765)"/>
<path d="M0 0 C18.52369975 -0.23373426 37.04709981 -0.41000686 55.57196903 -0.51812172 C64.17372531 -0.56965902 72.77456472 -0.63990275 81.37573242 -0.75439453 C88.87371719 -0.85415395 96.37103797 -0.91860171 103.86966795 -0.94088495 C107.83957249 -0.95390925 111.80757779 -0.98444807 115.77687263 -1.05730057 C119.51623263 -1.12537438 123.25291903 -1.14608129 126.99283981 -1.13107681 C129.01360515 -1.13512419 131.03408133 -1.18884678 133.05409241 -1.24420166 C141.76508841 -1.14546952 141.76508841 -1.14546952 145.30218315 2.13544083 C147.11026902 4.68425793 148.56779014 7.22606922 150 10 C151.03060117 11.59526734 152.07524284 13.18165388 153.140625 14.75390625 C154.17894291 16.35556685 155.21535571 17.95846386 156.25 19.5625 C157.08797119 20.85667847 157.08797119 20.85667847 157.94287109 22.17700195 C159.63019947 24.78362512 161.31516041 27.39176772 163 30 C163.96592433 31.49233089 164.93205812 32.98452624 165.8984375 34.4765625 C169.04614292 39.33723647 172.19009011 44.20033704 175.33398438 49.06347656 C180.71239512 57.3823469 186.09933164 65.6955585 191.5 74 C197.79373087 83.67767622 204.06658429 93.36873543 210.33398438 103.06347656 C215.71239533 111.38234723 221.09944464 119.69548478 226.5 128 C234.23841784 139.90229974 241.96686603 151.80964716 249.60620117 163.77587891 C256.02056425 173.82135016 262.47583128 183.83810233 269 193.8125 C269.68143066 194.85462646 270.36286133 195.89675293 271.06494141 196.97045898 C271.72413574 197.97665283 272.38333008 198.98284668 273.0625 200.01953125 C273.70316406 200.99744629 274.34382813 201.97536133 275.00390625 202.98291016 C276.4159896 205.11726999 277.83816849 207.24106861 279.27734375 209.35693359 C280.01082031 210.4392627 280.74429687 211.5215918 281.5 212.63671875 C282.1703125 213.61729248 282.840625 214.59786621 283.53125 215.6081543 C285 218 285 218 285 220 C266.63308151 220.58604526 248.26861083 221.02579886 229.89434052 221.2953043 C221.3607753 221.42381912 212.833041 221.59868941 204.30322266 221.88598633 C196.86115098 222.13652512 189.42329983 222.29674564 181.97712851 222.35221237 C178.03766216 222.38461915 174.11025693 222.45963505 170.17469788 222.64325142 C146.40439357 223.70923557 146.40439357 223.70923557 139.17425537 217.6202507 C134.18543598 211.74499256 130.80228037 205.24363568 127.60092163 198.27239799 C124.95486753 192.86367469 121.5624858 187.97348079 118.1875 183 C116.94339899 181.10366822 115.70207672 179.20550736 114.46484375 177.3046875 C113.87815918 176.40717773 113.29147461 175.50966797 112.68701172 174.58496094 C108.87577986 168.74511681 105.09428316 162.88599927 101.31054688 157.02832031 C99.04223201 153.51767204 96.77092702 150.00895887 94.5 146.5 C93.58331985 145.08334206 92.66665316 143.66667541 91.75 142.25 C91.29625 141.54875 90.8425 140.8475 90.375 140.125 C86.25 133.75 86.25 133.75 84.87548828 131.62573242 C83.957221 130.20660689 83.03892665 128.78749886 82.12060547 127.3684082 C79.85320799 123.86450403 77.58625499 120.36031405 75.3203125 116.85546875 C70.38995756 109.2306175 65.45029805 101.61192092 60.5 94 C55.10221018 85.69998475 49.71823375 77.39115044 44.34277344 69.07666016 C42.06276071 65.55051684 39.78129794 62.02531191 37.5 58.5 C36.58332659 57.0833377 35.66665992 55.66667103 34.75 54.25 C34.069375 53.198125 34.069375 53.198125 33.375 52.125 C29.25 45.75 29.25 45.75 27.87475586 43.62451172 C26.95903799 42.20938529 26.04318535 40.79434607 25.12719727 39.37939453 C22.81989503 35.81486895 20.51503306 32.24880786 18.21484375 28.6796875 C17.28925101 27.24467006 16.36347109 25.80977333 15.4375 24.375 C14.76497192 23.33279297 14.76497192 23.33279297 14.07885742 22.26953125 C10.44677667 16.65649437 6.74520004 11.09153675 2.99584961 5.55615234 C0 1.10674955 0 1.10674955 0 0 Z " fill="#FEFEFE" transform="translate(260,273)"/>
</svg>
